G04 #@! TF.FileFunction,Legend,Top*
%FSLAX46Y46*%
G04 Gerber Fmt 4.6, Leading zero omitted, Abs format (unit mm)*
G04 Created by KiCad (PCBNEW 4.0.5) date 01/04/17 16:28:54*
%MOMM*%
%LPD*%
G01*
G04 APERTURE LIST*
%ADD10C,0.100000*%
%ADD11C,0.150000*%
G04 APERTURE END LIST*
D10*
D11*
X201900000Y-119346051D02*
X198307898Y-122938154D01*
X198307898Y-122938154D02*
X196511846Y-121142102D01*
X196511846Y-121142102D02*
X200103949Y-117550000D01*
X200103949Y-117550000D02*
X201900000Y-119346051D01*
X199300000Y-96200000D02*
G75*
G03X199300000Y-96200000I-1500000J0D01*
G01*
X232100000Y-96600000D02*
G75*
G03X232100000Y-96600000I-1500000J0D01*
G01*
X199700000Y-129800000D02*
G75*
G03X199700000Y-129800000I-1500000J0D01*
G01*
X221700000Y-94996051D02*
X218107898Y-98588154D01*
X218107898Y-98588154D02*
X216311846Y-96792102D01*
X216311846Y-96792102D02*
X219903949Y-93200000D01*
X219903949Y-93200000D02*
X221700000Y-94996051D01*
X233850000Y-107046051D02*
X230257898Y-110638154D01*
X230257898Y-110638154D02*
X228461846Y-108842102D01*
X228461846Y-108842102D02*
X232053949Y-105250000D01*
X232053949Y-105250000D02*
X233850000Y-107046051D01*
X194300000Y-118903949D02*
X197892102Y-115311846D01*
X197892102Y-115311846D02*
X199688154Y-117107898D01*
X199688154Y-117107898D02*
X196096051Y-120700000D01*
X196096051Y-120700000D02*
X194300000Y-118903949D01*
X205230256Y-91131590D02*
X192657898Y-103703949D01*
X198046051Y-105500000D02*
X208822359Y-94723693D01*
X205230256Y-91131590D02*
X208822359Y-94723693D01*
X192657898Y-103703949D02*
X194453949Y-105500000D01*
X195153984Y-106596016D02*
X196250000Y-107692031D01*
X194453949Y-105500000D02*
X196250000Y-103703949D01*
X196250000Y-103703949D02*
X198046051Y-105500000D01*
X196250000Y-107692031D02*
X197346016Y-106596016D01*
X230053949Y-123100000D02*
X226461846Y-119507898D01*
X226461846Y-119507898D02*
X228257898Y-117711846D01*
X228257898Y-117711846D02*
X231850000Y-121303949D01*
X231850000Y-121303949D02*
X230053949Y-123100000D01*
X212431891Y-97732322D02*
X211017678Y-96318109D01*
X209568109Y-97767678D02*
X210982322Y-99181891D01*
X200931891Y-109482322D02*
X199517678Y-108068109D01*
X198068109Y-109517678D02*
X199482322Y-110931891D01*
X223900000Y-97296051D02*
X220307898Y-100888154D01*
X220307898Y-100888154D02*
X218511846Y-99092102D01*
X218511846Y-99092102D02*
X222103949Y-95500000D01*
X222103949Y-95500000D02*
X223900000Y-97296051D01*
X226250000Y-106603949D02*
X229842102Y-103011846D01*
X229842102Y-103011846D02*
X231638154Y-104807898D01*
X231638154Y-104807898D02*
X228046051Y-108400000D01*
X228046051Y-108400000D02*
X226250000Y-106603949D01*
X204050000Y-128853949D02*
X207642102Y-125261846D01*
X207642102Y-125261846D02*
X209438154Y-127057898D01*
X209438154Y-127057898D02*
X205846051Y-130650000D01*
X205846051Y-130650000D02*
X204050000Y-128853949D01*
X206250000Y-131053949D02*
X209842102Y-127461846D01*
X209842102Y-127461846D02*
X211638154Y-129257898D01*
X211638154Y-129257898D02*
X208046051Y-132850000D01*
X208046051Y-132850000D02*
X206250000Y-131053949D01*
X232253949Y-120900000D02*
X228661846Y-117307898D01*
X228661846Y-117307898D02*
X230457898Y-115511846D01*
X230457898Y-115511846D02*
X234050000Y-119103949D01*
X234050000Y-119103949D02*
X232253949Y-120900000D01*
X222503949Y-130750000D02*
X218911846Y-127157898D01*
X218911846Y-127157898D02*
X220707898Y-125361846D01*
X220707898Y-125361846D02*
X224300000Y-128953949D01*
X224300000Y-128953949D02*
X222503949Y-130750000D01*
X220303949Y-132950000D02*
X216711846Y-129357898D01*
X216711846Y-129357898D02*
X218507898Y-127561846D01*
X218507898Y-127561846D02*
X222100000Y-131153949D01*
X222100000Y-131153949D02*
X220303949Y-132950000D01*
X199352031Y-120737732D02*
X198779610Y-120636717D01*
X198947970Y-121141794D02*
X198240863Y-120434687D01*
X198510237Y-120165312D01*
X198611253Y-120131641D01*
X198678596Y-120131641D01*
X198779611Y-120165312D01*
X198880626Y-120266328D01*
X198914298Y-120367343D01*
X198914298Y-120434686D01*
X198880626Y-120535701D01*
X198611252Y-120805076D01*
X198880626Y-119794924D02*
X199318359Y-119357190D01*
X199352030Y-119862267D01*
X199453046Y-119761251D01*
X199554061Y-119727579D01*
X199621405Y-119727579D01*
X199722421Y-119761252D01*
X199890779Y-119929610D01*
X199924451Y-120030626D01*
X199924451Y-120097969D01*
X199890779Y-120198984D01*
X199688748Y-120401015D01*
X199587733Y-120434687D01*
X199520390Y-120434687D01*
X196466667Y-93604381D02*
X196133333Y-93128190D01*
X195895238Y-93604381D02*
X195895238Y-92604381D01*
X196276191Y-92604381D01*
X196371429Y-92652000D01*
X196419048Y-92699619D01*
X196466667Y-92794857D01*
X196466667Y-92937714D01*
X196419048Y-93032952D01*
X196371429Y-93080571D01*
X196276191Y-93128190D01*
X195895238Y-93128190D01*
X196895238Y-93080571D02*
X197228572Y-93080571D01*
X197371429Y-93604381D02*
X196895238Y-93604381D01*
X196895238Y-92604381D01*
X197371429Y-92604381D01*
X198133334Y-93080571D02*
X197800000Y-93080571D01*
X197800000Y-93604381D02*
X197800000Y-92604381D01*
X198276191Y-92604381D01*
X198800000Y-92604381D02*
X198800000Y-92842476D01*
X198561905Y-92747238D02*
X198800000Y-92842476D01*
X199038096Y-92747238D01*
X198657143Y-93032952D02*
X198800000Y-92842476D01*
X198942858Y-93032952D01*
X199561905Y-92604381D02*
X199561905Y-92842476D01*
X199323810Y-92747238D02*
X199561905Y-92842476D01*
X199800001Y-92747238D01*
X199419048Y-93032952D02*
X199561905Y-92842476D01*
X199704763Y-93032952D01*
X229266667Y-94004381D02*
X228933333Y-93528190D01*
X228695238Y-94004381D02*
X228695238Y-93004381D01*
X229076191Y-93004381D01*
X229171429Y-93052000D01*
X229219048Y-93099619D01*
X229266667Y-93194857D01*
X229266667Y-93337714D01*
X229219048Y-93432952D01*
X229171429Y-93480571D01*
X229076191Y-93528190D01*
X228695238Y-93528190D01*
X229695238Y-93480571D02*
X230028572Y-93480571D01*
X230171429Y-94004381D02*
X229695238Y-94004381D01*
X229695238Y-93004381D01*
X230171429Y-93004381D01*
X230933334Y-93480571D02*
X230600000Y-93480571D01*
X230600000Y-94004381D02*
X230600000Y-93004381D01*
X231076191Y-93004381D01*
X231600000Y-93004381D02*
X231600000Y-93242476D01*
X231361905Y-93147238D02*
X231600000Y-93242476D01*
X231838096Y-93147238D01*
X231457143Y-93432952D02*
X231600000Y-93242476D01*
X231742858Y-93432952D01*
X232361905Y-93004381D02*
X232361905Y-93242476D01*
X232123810Y-93147238D02*
X232361905Y-93242476D01*
X232600001Y-93147238D01*
X232219048Y-93432952D02*
X232361905Y-93242476D01*
X232504763Y-93432952D01*
X196866667Y-127204381D02*
X196533333Y-126728190D01*
X196295238Y-127204381D02*
X196295238Y-126204381D01*
X196676191Y-126204381D01*
X196771429Y-126252000D01*
X196819048Y-126299619D01*
X196866667Y-126394857D01*
X196866667Y-126537714D01*
X196819048Y-126632952D01*
X196771429Y-126680571D01*
X196676191Y-126728190D01*
X196295238Y-126728190D01*
X197295238Y-126680571D02*
X197628572Y-126680571D01*
X197771429Y-127204381D02*
X197295238Y-127204381D01*
X197295238Y-126204381D01*
X197771429Y-126204381D01*
X198533334Y-126680571D02*
X198200000Y-126680571D01*
X198200000Y-127204381D02*
X198200000Y-126204381D01*
X198676191Y-126204381D01*
X199200000Y-126204381D02*
X199200000Y-126442476D01*
X198961905Y-126347238D02*
X199200000Y-126442476D01*
X199438096Y-126347238D01*
X199057143Y-126632952D02*
X199200000Y-126442476D01*
X199342858Y-126632952D01*
X199961905Y-126204381D02*
X199961905Y-126442476D01*
X199723810Y-126347238D02*
X199961905Y-126442476D01*
X200200001Y-126347238D01*
X199819048Y-126632952D02*
X199961905Y-126442476D01*
X200104763Y-126632952D01*
X219152031Y-96387732D02*
X218579610Y-96286717D01*
X218747970Y-96791794D02*
X218040863Y-96084687D01*
X218310237Y-95815312D01*
X218411253Y-95781641D01*
X218478596Y-95781641D01*
X218579611Y-95815312D01*
X218680626Y-95916328D01*
X218714298Y-96017343D01*
X218714298Y-96084686D01*
X218680626Y-96185701D01*
X218411252Y-96455076D01*
X219825466Y-95714297D02*
X219421405Y-96118359D01*
X219623435Y-95916328D02*
X218916328Y-95209222D01*
X218950000Y-95377580D01*
X218950000Y-95512267D01*
X218916328Y-95613282D01*
X231302031Y-108437732D02*
X230729610Y-108336717D01*
X230897970Y-108841794D02*
X230190863Y-108134687D01*
X230460237Y-107865312D01*
X230561253Y-107831641D01*
X230628596Y-107831641D01*
X230729611Y-107865312D01*
X230830626Y-107966328D01*
X230864298Y-108067343D01*
X230864298Y-108134686D01*
X230830626Y-108235701D01*
X230561252Y-108505076D01*
X231234688Y-107090862D02*
X230897970Y-107427580D01*
X231201015Y-107797969D01*
X231201015Y-107730626D01*
X231234687Y-107629610D01*
X231403046Y-107461251D01*
X231504061Y-107427579D01*
X231571405Y-107427579D01*
X231672421Y-107461252D01*
X231840779Y-107629610D01*
X231874451Y-107730626D01*
X231874451Y-107797969D01*
X231840779Y-107898984D01*
X231672420Y-108067343D01*
X231571405Y-108101015D01*
X231504061Y-108101015D01*
X197252031Y-118387732D02*
X196679610Y-118286717D01*
X196847970Y-118791794D02*
X196140863Y-118084687D01*
X196410237Y-117815312D01*
X196511253Y-117781641D01*
X196578596Y-117781641D01*
X196679611Y-117815312D01*
X196780626Y-117916328D01*
X196814298Y-118017343D01*
X196814298Y-118084686D01*
X196780626Y-118185701D01*
X196511252Y-118455076D01*
X197386718Y-117310236D02*
X197858123Y-117781641D01*
X196948985Y-117209222D02*
X197285703Y-117882657D01*
X197723436Y-117444924D01*
X192008206Y-104947971D02*
X192715313Y-104240864D01*
X192984688Y-104510238D01*
X193018359Y-104611254D01*
X193018359Y-104678597D01*
X192984688Y-104779612D01*
X192883672Y-104880627D01*
X192782657Y-104914299D01*
X192715314Y-104914299D01*
X192614299Y-104880627D01*
X192344924Y-104611253D01*
X193085703Y-106025467D02*
X192681641Y-105621406D01*
X192883672Y-105823436D02*
X193590778Y-105116329D01*
X193422420Y-105150001D01*
X193287733Y-105150001D01*
X193186718Y-105116329D01*
X228662268Y-120552031D02*
X228763283Y-119979610D01*
X228258206Y-120147970D02*
X228965313Y-119440863D01*
X229234688Y-119710237D01*
X229268359Y-119811253D01*
X229268359Y-119878596D01*
X229234688Y-119979611D01*
X229133672Y-120080626D01*
X229032657Y-120114298D01*
X228965314Y-120114298D01*
X228864299Y-120080626D01*
X228594924Y-119811252D01*
X228998985Y-120888748D02*
X229133672Y-121023435D01*
X229234688Y-121057107D01*
X229302031Y-121057107D01*
X229470390Y-121023436D01*
X229638748Y-120922421D01*
X229908123Y-120653046D01*
X229941794Y-120552031D01*
X229941794Y-120484688D01*
X229908123Y-120383672D01*
X229773435Y-120248985D01*
X229672420Y-120215313D01*
X229605076Y-120215313D01*
X229504061Y-120248985D01*
X229335703Y-120417343D01*
X229302031Y-120518359D01*
X229302030Y-120585703D01*
X229335702Y-120686718D01*
X229470390Y-120821405D01*
X229571405Y-120855077D01*
X229638749Y-120855076D01*
X229739764Y-120821405D01*
X210629611Y-97884688D02*
X210562268Y-97884688D01*
X210427581Y-97817344D01*
X210360237Y-97750001D01*
X210292893Y-97615313D01*
X210292893Y-97480626D01*
X210326565Y-97379611D01*
X210427580Y-97211253D01*
X210528596Y-97110237D01*
X210696955Y-97009222D01*
X210797970Y-96975550D01*
X210932657Y-96975550D01*
X211067344Y-97042894D01*
X211134688Y-97110237D01*
X211202031Y-97244924D01*
X211202031Y-97312268D01*
X211909138Y-97884688D02*
X211572420Y-97547970D01*
X211202031Y-97851015D01*
X211269374Y-97851015D01*
X211370390Y-97884687D01*
X211538749Y-98053046D01*
X211572421Y-98154061D01*
X211572421Y-98221405D01*
X211538748Y-98322421D01*
X211370390Y-98490779D01*
X211269374Y-98524451D01*
X211202031Y-98524451D01*
X211101016Y-98490779D01*
X210932657Y-98322420D01*
X210898985Y-98221405D01*
X210898985Y-98154061D01*
X199129611Y-109634688D02*
X199062268Y-109634688D01*
X198927581Y-109567344D01*
X198860237Y-109500001D01*
X198792893Y-109365313D01*
X198792893Y-109230626D01*
X198826565Y-109129611D01*
X198927580Y-108961253D01*
X199028596Y-108860237D01*
X199196955Y-108759222D01*
X199297970Y-108725550D01*
X199432657Y-108725550D01*
X199567344Y-108792894D01*
X199634688Y-108860237D01*
X199702031Y-108994924D01*
X199702031Y-109062268D01*
X200375466Y-109601016D02*
X200240778Y-109466328D01*
X200139763Y-109432657D01*
X200072420Y-109432657D01*
X199904061Y-109466328D01*
X199735703Y-109567343D01*
X199466328Y-109836718D01*
X199432657Y-109937733D01*
X199432657Y-110005076D01*
X199466328Y-110106092D01*
X199601016Y-110240779D01*
X199702031Y-110274451D01*
X199769374Y-110274451D01*
X199870390Y-110240779D01*
X200038748Y-110072421D01*
X200072421Y-109971405D01*
X200072421Y-109904061D01*
X200038749Y-109803046D01*
X199904061Y-109668359D01*
X199803046Y-109634687D01*
X199735703Y-109634687D01*
X199634687Y-109668359D01*
X221352031Y-98687732D02*
X220779610Y-98586717D01*
X220947970Y-99091794D02*
X220240863Y-98384687D01*
X220510237Y-98115312D01*
X220611253Y-98081641D01*
X220678596Y-98081641D01*
X220779611Y-98115312D01*
X220880626Y-98216328D01*
X220914298Y-98317343D01*
X220914298Y-98384686D01*
X220880626Y-98485701D01*
X220611252Y-98755076D01*
X220981641Y-97778595D02*
X220981641Y-97711252D01*
X221015313Y-97610237D01*
X221183672Y-97441877D01*
X221284688Y-97408206D01*
X221352031Y-97408206D01*
X221453046Y-97441877D01*
X221520390Y-97509221D01*
X221587733Y-97643908D01*
X221587733Y-98452030D01*
X222025466Y-98014297D01*
X229202031Y-106087732D02*
X228629610Y-105986717D01*
X228797970Y-106491794D02*
X228090863Y-105784687D01*
X228360237Y-105515312D01*
X228461253Y-105481641D01*
X228528596Y-105481641D01*
X228629611Y-105515312D01*
X228730626Y-105616328D01*
X228764298Y-105717343D01*
X228764298Y-105784686D01*
X228730626Y-105885701D01*
X228461252Y-106155076D01*
X229101016Y-104774534D02*
X228966328Y-104909222D01*
X228932657Y-105010237D01*
X228932657Y-105077580D01*
X228966328Y-105245939D01*
X229067343Y-105414297D01*
X229336718Y-105683672D01*
X229437733Y-105717343D01*
X229505076Y-105717343D01*
X229606092Y-105683672D01*
X229740779Y-105548984D01*
X229774451Y-105447969D01*
X229774451Y-105380626D01*
X229740779Y-105279610D01*
X229572421Y-105111252D01*
X229471405Y-105077579D01*
X229404061Y-105077579D01*
X229303046Y-105111251D01*
X229168359Y-105245939D01*
X229134687Y-105346954D01*
X229134687Y-105414297D01*
X229168359Y-105515313D01*
X207002031Y-128337732D02*
X206429610Y-128236717D01*
X206597970Y-128741794D02*
X205890863Y-128034687D01*
X206160237Y-127765312D01*
X206261253Y-127731641D01*
X206328596Y-127731641D01*
X206429611Y-127765312D01*
X206530626Y-127866328D01*
X206564298Y-127967343D01*
X206564298Y-128034686D01*
X206530626Y-128135701D01*
X206261252Y-128405076D01*
X206530626Y-127394924D02*
X207002031Y-126923519D01*
X207406092Y-127933672D01*
X209202031Y-130537732D02*
X208629610Y-130436717D01*
X208797970Y-130941794D02*
X208090863Y-130234687D01*
X208360237Y-129965312D01*
X208461253Y-129931641D01*
X208528596Y-129931641D01*
X208629611Y-129965312D01*
X208730626Y-130066328D01*
X208764298Y-130167343D01*
X208764298Y-130234686D01*
X208730626Y-130335701D01*
X208461252Y-130605076D01*
X209202030Y-129729610D02*
X209101015Y-129763282D01*
X209033672Y-129763282D01*
X208932657Y-129729610D01*
X208898985Y-129695939D01*
X208865313Y-129594924D01*
X208865313Y-129527580D01*
X208898985Y-129426565D01*
X209033672Y-129291877D01*
X209134688Y-129258206D01*
X209202031Y-129258206D01*
X209303046Y-129291877D01*
X209336718Y-129325549D01*
X209370390Y-129426564D01*
X209370390Y-129493908D01*
X209336718Y-129594923D01*
X209202030Y-129729610D01*
X209168359Y-129830626D01*
X209168359Y-129897969D01*
X209202031Y-129998985D01*
X209336718Y-130133672D01*
X209437733Y-130167343D01*
X209505076Y-130167343D01*
X209606092Y-130133672D01*
X209740779Y-129998984D01*
X209774451Y-129897969D01*
X209774451Y-129830626D01*
X209740779Y-129729610D01*
X209606092Y-129594924D01*
X209505076Y-129561251D01*
X209437733Y-129561251D01*
X209336718Y-129594923D01*
X230525550Y-118015313D02*
X230626565Y-117442893D01*
X230121488Y-117611252D02*
X230828595Y-116904145D01*
X231097970Y-117173519D01*
X231131641Y-117274535D01*
X231131641Y-117341878D01*
X231097970Y-117442893D01*
X230996955Y-117543908D01*
X230895939Y-117577580D01*
X230828596Y-117577580D01*
X230727581Y-117543908D01*
X230458206Y-117274534D01*
X231198985Y-118688748D02*
X230794924Y-118284687D01*
X230996954Y-118486717D02*
X231704061Y-117779610D01*
X231535702Y-117813282D01*
X231401015Y-117813282D01*
X231300000Y-117779610D01*
X232343824Y-118419374D02*
X232411168Y-118486718D01*
X232444840Y-118587733D01*
X232444840Y-118655076D01*
X232411168Y-118756092D01*
X232310153Y-118924450D01*
X232141794Y-119092810D01*
X231973435Y-119193825D01*
X231872420Y-119227496D01*
X231805076Y-119227496D01*
X231704061Y-119193825D01*
X231636717Y-119126481D01*
X231603045Y-119025465D01*
X231603045Y-118958122D01*
X231636717Y-118857107D01*
X231737732Y-118688748D01*
X231906092Y-118520389D01*
X232074450Y-118419374D01*
X232175465Y-118385702D01*
X232242809Y-118385702D01*
X232343824Y-118419374D01*
X220775550Y-127865313D02*
X220876565Y-127292893D01*
X220371488Y-127461252D02*
X221078595Y-126754145D01*
X221347970Y-127023519D01*
X221381641Y-127124535D01*
X221381641Y-127191878D01*
X221347970Y-127292893D01*
X221246955Y-127393908D01*
X221145939Y-127427580D01*
X221078596Y-127427580D01*
X220977581Y-127393908D01*
X220708206Y-127124534D01*
X221448985Y-128538748D02*
X221044924Y-128134687D01*
X221246954Y-128336717D02*
X221954061Y-127629610D01*
X221785702Y-127663282D01*
X221651015Y-127663282D01*
X221550000Y-127629610D01*
X222122420Y-129212183D02*
X221718359Y-128808122D01*
X221920389Y-129010152D02*
X222627496Y-128303045D01*
X222459137Y-128336717D01*
X222324450Y-128336717D01*
X222223435Y-128303045D01*
X218575550Y-130065313D02*
X218676565Y-129492893D01*
X218171488Y-129661252D02*
X218878595Y-128954145D01*
X219147970Y-129223519D01*
X219181641Y-129324535D01*
X219181641Y-129391878D01*
X219147970Y-129492893D01*
X219046955Y-129593908D01*
X218945939Y-129627580D01*
X218878596Y-129627580D01*
X218777581Y-129593908D01*
X218508206Y-129324534D01*
X219248985Y-130738748D02*
X218844924Y-130334687D01*
X219046954Y-130536717D02*
X219754061Y-129829610D01*
X219585702Y-129863282D01*
X219451015Y-129863282D01*
X219350000Y-129829610D01*
X220158122Y-130368359D02*
X220225465Y-130368359D01*
X220326481Y-130402030D01*
X220494840Y-130570390D01*
X220528512Y-130671405D01*
X220528512Y-130738748D01*
X220494840Y-130839763D01*
X220427496Y-130907107D01*
X220292810Y-130974450D01*
X219484687Y-130974450D01*
X219922420Y-131412183D01*
M02*
