M48
;DRILL file {KiCad 4.0.5} date 01/04/17 16:32:00
;FORMAT={-:-/ absolute / metric / decimal}
FMAT,2
METRIC,TZ
T1C0.635
T2C1.001
T3C1.016
%
G90
G05
M71
T1
X195.3Y-127.
X200.75Y-124.75
X200.8Y-119.6
X207.Y-120.45
X208.05Y-121.15
X208.5Y-105.5
X209.6Y-117.85
X210.Y-110.5
X210.5Y-118.6
X214.35Y-110.75
X216.85Y-107.45
X219.45Y-111.
X220.25Y-99.75
X221.Y-121.5
X221.25Y-117.5
X222.5Y-120.
X223.5Y-122.5
X225.25Y-99.75
X226.25Y-98.75
X227.25Y-101.75
X228.25Y-100.75
T2
X193.76Y-113.
X194.3Y-120.7
X196.3Y-113.
X196.512Y-122.938
X199.688Y-115.312
X201.9Y-117.55
X204.05Y-130.65
X205.25Y-113.
X206.25Y-132.85
X207.79Y-113.
X209.438Y-125.262
X211.638Y-127.462
X214.Y-92.76
X214.Y-95.3
X214.Y-104.25
X214.Y-106.79
X214.Y-119.21
X214.Y-121.75
X214.Y-130.7
X214.Y-133.24
X216.312Y-98.588
X216.712Y-127.562
X218.512Y-100.888
X218.912Y-125.362
X220.21Y-113.
X221.7Y-93.2
X222.1Y-132.95
X222.75Y-113.
X223.9Y-95.5
X224.3Y-130.75
X226.25Y-108.4
X226.462Y-117.712
X228.462Y-110.638
X228.662Y-115.512
X231.638Y-103.012
X231.7Y-113.
X231.85Y-123.1
X233.85Y-105.25
X234.05Y-120.9
X234.24Y-113.
T3
X194.454Y-103.704
X196.25Y-101.908
X196.25Y-105.5
X198.046Y-100.112
X198.046Y-103.704
X199.842Y-98.316
X199.842Y-101.908
X201.638Y-96.52
X201.638Y-100.112
X202.75Y-108.45
X203.434Y-94.724
X203.434Y-98.316
X204.546Y-106.654
X205.23Y-92.928
X205.23Y-96.52
X206.342Y-104.858
X207.026Y-94.724
X208.138Y-103.062
X209.934Y-101.266
T0
M30
