G04 #@! TF.FileFunction,Copper,L1,Top,Signal*
%FSLAX46Y46*%
G04 Gerber Fmt 4.6, Leading zero omitted, Abs format (unit mm)*
G04 Created by KiCad (PCBNEW 4.0.5) date 01/04/17 16:28:53*
%MOMM*%
%LPD*%
G01*
G04 APERTURE LIST*
%ADD10C,0.100000*%
%ADD11C,1.998980*%
%ADD12C,2.500000*%
%ADD13C,1.727200*%
%ADD14R,2.000000X1.900000*%
%ADD15C,1.900000*%
%ADD16R,1.900000X2.000000*%
%ADD17C,0.889000*%
%ADD18C,0.200000*%
%ADD19C,0.400000*%
%ADD20C,0.254000*%
G04 APERTURE END LIST*
D10*
D11*
X201900000Y-117550000D03*
X196511846Y-122938154D03*
D12*
X197800000Y-96200000D03*
X230600000Y-96600000D03*
X198200000Y-129800000D03*
D11*
X221700000Y-93200000D03*
X216311846Y-98588154D03*
D10*
G36*
X201420922Y-108342237D02*
X202642237Y-107120922D01*
X204079078Y-108557763D01*
X202857763Y-109779078D01*
X201420922Y-108342237D01*
X201420922Y-108342237D01*
G37*
D13*
X204438288Y-106546186D02*
X204653814Y-106761712D01*
X206234339Y-104750135D02*
X206449865Y-104965661D01*
X208030391Y-102954083D02*
X208245917Y-103169609D01*
X209826442Y-101158032D02*
X210041968Y-101373558D01*
D11*
X233850000Y-105250000D03*
X228461846Y-110638154D03*
X194300000Y-120700000D03*
X199688154Y-115311846D03*
D10*
G36*
X197471315Y-105500000D02*
X196250000Y-106721315D01*
X195028685Y-105500000D01*
X196250000Y-104278685D01*
X197471315Y-105500000D01*
X197471315Y-105500000D01*
G37*
D13*
X194453949Y-103703949D02*
X194453949Y-103703949D01*
X198046051Y-103703949D02*
X198046051Y-103703949D01*
X196250000Y-101907898D02*
X196250000Y-101907898D01*
X199842102Y-101907898D02*
X199842102Y-101907898D01*
X198046051Y-100111846D02*
X198046051Y-100111846D01*
X201638154Y-100111846D02*
X201638154Y-100111846D01*
X199842102Y-98315795D02*
X199842102Y-98315795D01*
X203434205Y-98315795D02*
X203434205Y-98315795D01*
X201638154Y-96519744D02*
X201638154Y-96519744D01*
X205230256Y-96519744D02*
X205230256Y-96519744D01*
X203434205Y-94723693D02*
X203434205Y-94723693D01*
X207026307Y-94723693D02*
X207026307Y-94723693D01*
X205230256Y-92927641D02*
X205230256Y-92927641D01*
D11*
X231850000Y-123100000D03*
X226461846Y-117711846D03*
D10*
G36*
X208312994Y-96194365D02*
X209444365Y-95062994D01*
X210858578Y-96477207D01*
X209727207Y-97608578D01*
X208312994Y-96194365D01*
X208312994Y-96194365D01*
G37*
G36*
X211141422Y-99022793D02*
X212272793Y-97891422D01*
X213687006Y-99305635D01*
X212555635Y-100437006D01*
X211141422Y-99022793D01*
X211141422Y-99022793D01*
G37*
G36*
X196812994Y-107944365D02*
X197944365Y-106812994D01*
X199358578Y-108227207D01*
X198227207Y-109358578D01*
X196812994Y-107944365D01*
X196812994Y-107944365D01*
G37*
G36*
X199641422Y-110772793D02*
X200772793Y-109641422D01*
X202187006Y-111055635D01*
X201055635Y-112187006D01*
X199641422Y-110772793D01*
X199641422Y-110772793D01*
G37*
D14*
X214000000Y-104250000D03*
D15*
X214000000Y-106790000D03*
D16*
X205250000Y-113000000D03*
D15*
X207790000Y-113000000D03*
D16*
X222750000Y-113000000D03*
D15*
X220210000Y-113000000D03*
D14*
X214000000Y-121750000D03*
D15*
X214000000Y-119210000D03*
D14*
X214000000Y-95300000D03*
D15*
X214000000Y-92760000D03*
D16*
X231700000Y-113000000D03*
D15*
X234240000Y-113000000D03*
D16*
X196300000Y-113000000D03*
D15*
X193760000Y-113000000D03*
D14*
X214000000Y-130700000D03*
D15*
X214000000Y-133240000D03*
D11*
X223900000Y-95500000D03*
X218511846Y-100888154D03*
X226250000Y-108400000D03*
X231638154Y-103011846D03*
X204050000Y-130650000D03*
X209438154Y-125261846D03*
X206250000Y-132850000D03*
X211638154Y-127461846D03*
X234050000Y-120900000D03*
X228661846Y-115511846D03*
X224300000Y-130750000D03*
X218911846Y-125361846D03*
X222100000Y-132950000D03*
X216711846Y-127561846D03*
D17*
X208050000Y-121150000D03*
X210500000Y-118600000D03*
X219450000Y-111000000D03*
X216850000Y-107450000D03*
X209600000Y-117850000D03*
X207000000Y-120450000D03*
X225250000Y-99750000D03*
X226250000Y-98750000D03*
X228250000Y-100750000D03*
X227250000Y-101750000D03*
X200800000Y-119600000D03*
X220250000Y-99750000D03*
X208500000Y-105500000D03*
X210000000Y-110500000D03*
X214350000Y-110750000D03*
X221250000Y-117500000D03*
X223500000Y-122500000D03*
X222500000Y-120000000D03*
X200750000Y-124750000D03*
X221000000Y-121500000D03*
X195300000Y-127000000D03*
D18*
X226250000Y-108400000D02*
X226250000Y-108450000D01*
X226250000Y-108450000D02*
X223750000Y-110950000D01*
X208050000Y-121050000D02*
X208050000Y-121150000D01*
X210500000Y-118600000D02*
X208050000Y-121050000D01*
X219500000Y-110950000D02*
X219450000Y-111000000D01*
X223750000Y-110950000D02*
X219500000Y-110950000D01*
X216311846Y-98588154D02*
X216311846Y-98988154D01*
X216311846Y-98988154D02*
X214000000Y-101300000D01*
X214000000Y-101300000D02*
X214000000Y-104250000D01*
X218511846Y-105788154D02*
X218511846Y-100888154D01*
X216850000Y-107450000D02*
X218511846Y-105788154D01*
X207000000Y-120450000D02*
X209600000Y-117850000D01*
X209250000Y-109000000D02*
X205250000Y-113000000D01*
X216500000Y-109000000D02*
X209250000Y-109000000D01*
X225250000Y-100250000D02*
X216500000Y-109000000D01*
X225250000Y-99750000D02*
X225250000Y-100250000D01*
X205250000Y-113000000D02*
X202000000Y-113000000D01*
X202000000Y-113000000D02*
X199688154Y-115311846D01*
X205700000Y-117550000D02*
X201900000Y-117550000D01*
X208750000Y-114500000D02*
X205700000Y-117550000D01*
X211750000Y-114500000D02*
X208750000Y-114500000D01*
X226250000Y-100000000D02*
X211750000Y-114500000D01*
X226250000Y-98750000D02*
X226250000Y-100000000D01*
X228461846Y-110638154D02*
X228461846Y-110938154D01*
X228461846Y-110938154D02*
X226400000Y-113000000D01*
X226400000Y-113000000D02*
X222750000Y-113000000D01*
X211000000Y-119500000D02*
X211000000Y-123650000D01*
X212500000Y-118000000D02*
X211000000Y-119500000D01*
X212500000Y-115250000D02*
X212500000Y-118000000D01*
X227000000Y-100750000D02*
X212500000Y-115250000D01*
X228250000Y-100750000D02*
X227000000Y-100750000D01*
X211000000Y-123650000D02*
X209400000Y-125250000D01*
X211638154Y-127461846D02*
X211738154Y-127461846D01*
X211738154Y-127461846D02*
X214000000Y-125200000D01*
X214000000Y-125200000D02*
X214000000Y-121750000D01*
X218000000Y-117750000D02*
X214000000Y-121750000D01*
X218000000Y-110500000D02*
X218000000Y-117750000D01*
X226750000Y-101750000D02*
X218000000Y-110500000D01*
X227250000Y-101750000D02*
X226750000Y-101750000D01*
X214000000Y-121750000D02*
X214000000Y-121500000D01*
X210500000Y-97250000D02*
X209835786Y-96585786D01*
X198500000Y-108750000D02*
X198085786Y-108335786D01*
D19*
X196100000Y-116400000D02*
X200914214Y-111585786D01*
X196100000Y-118300000D02*
X196100000Y-116400000D01*
X196800000Y-119000000D02*
X196100000Y-118300000D01*
X200200000Y-119000000D02*
X196800000Y-119000000D01*
X200800000Y-119600000D02*
X200200000Y-119000000D01*
X200914214Y-111585786D02*
X200914214Y-110914214D01*
X214578428Y-97000000D02*
X212414214Y-99164214D01*
X215500000Y-97000000D02*
X214578428Y-97000000D01*
X217750000Y-94750000D02*
X215500000Y-97000000D01*
X219000000Y-94750000D02*
X217750000Y-94750000D01*
X219750000Y-95500000D02*
X219000000Y-94750000D01*
X219750000Y-99250000D02*
X219750000Y-95500000D01*
X220250000Y-99750000D02*
X219750000Y-99250000D01*
D18*
X200914214Y-111585786D02*
X200914214Y-110914214D01*
D19*
X205230256Y-96519744D02*
X205230256Y-97480256D01*
X200000000Y-110000000D02*
X200914214Y-110914214D01*
X200000000Y-107000000D02*
X200000000Y-110000000D01*
X206250000Y-100750000D02*
X200000000Y-107000000D01*
X206250000Y-98500000D02*
X206250000Y-100750000D01*
X205230256Y-97480256D02*
X206250000Y-98500000D01*
X212414214Y-101585786D02*
X212414214Y-99164214D01*
X208500000Y-105500000D02*
X212414214Y-101585786D01*
X214100000Y-110500000D02*
X210000000Y-110500000D01*
D18*
X214350000Y-110750000D02*
X214100000Y-110500000D01*
D19*
X221250000Y-120250000D02*
X221250000Y-117500000D01*
X223500000Y-122500000D02*
X221250000Y-120250000D01*
D18*
X205230256Y-96519744D02*
X205769744Y-96519744D01*
D19*
X205769744Y-96519744D02*
X207750000Y-98500000D01*
X207750000Y-98500000D02*
X211750000Y-98500000D01*
D18*
X211750000Y-98500000D02*
X212414214Y-99164214D01*
X205230256Y-96519744D02*
X205230256Y-96730256D01*
X205230256Y-96730256D02*
X205250000Y-96750000D01*
X205230256Y-96519744D02*
X205519744Y-96519744D01*
X205519744Y-96519744D02*
X205585786Y-96585786D01*
X230000000Y-125500000D02*
X231850000Y-123650000D01*
X228000000Y-125500000D02*
X230000000Y-125500000D01*
X222500000Y-120000000D02*
X228000000Y-125500000D01*
X231850000Y-123650000D02*
X231850000Y-123100000D01*
X194092102Y-101907898D02*
X196250000Y-101907898D01*
X192500000Y-103500000D02*
X194092102Y-101907898D01*
X192500000Y-109250000D02*
X192500000Y-103500000D01*
X191500000Y-110250000D02*
X192500000Y-109250000D01*
X191500000Y-114250000D02*
X191500000Y-110250000D01*
X192000000Y-114750000D02*
X191500000Y-114250000D01*
X192000000Y-121500000D02*
X192000000Y-114750000D01*
X197500000Y-127000000D02*
X192000000Y-121500000D01*
X199250000Y-127000000D02*
X197500000Y-127000000D01*
X200750000Y-125500000D02*
X199250000Y-127000000D01*
X200750000Y-124750000D02*
X200750000Y-125500000D01*
X222100000Y-132950000D02*
X225650000Y-132950000D01*
X201638154Y-93361846D02*
X201638154Y-96519744D01*
X204600000Y-90400000D02*
X201638154Y-93361846D01*
X208000000Y-90400000D02*
X204600000Y-90400000D01*
X209000000Y-89400000D02*
X208000000Y-90400000D01*
X215800000Y-89400000D02*
X209000000Y-89400000D01*
X216800000Y-90400000D02*
X215800000Y-89400000D01*
X222600000Y-90400000D02*
X216800000Y-90400000D01*
X228200000Y-96000000D02*
X222600000Y-90400000D01*
X228200000Y-97800000D02*
X228200000Y-96000000D01*
X229400000Y-99000000D02*
X228200000Y-97800000D01*
X230600000Y-99000000D02*
X229400000Y-99000000D01*
X237000000Y-105400000D02*
X230600000Y-99000000D01*
X237000000Y-115400000D02*
X237000000Y-105400000D01*
X236800000Y-115600000D02*
X237000000Y-115400000D01*
X236800000Y-121800000D02*
X236800000Y-115600000D01*
X225650000Y-132950000D02*
X236800000Y-121800000D01*
X224300000Y-130750000D02*
X227050000Y-130750000D01*
X203434205Y-92365795D02*
X203434205Y-94723693D01*
X204800000Y-91000000D02*
X203434205Y-92365795D01*
X208800000Y-91000000D02*
X204800000Y-91000000D01*
X209800000Y-90000000D02*
X208800000Y-91000000D01*
X215600000Y-90000000D02*
X209800000Y-90000000D01*
X216600000Y-91000000D02*
X215600000Y-90000000D01*
X222400000Y-91000000D02*
X216600000Y-91000000D01*
X227400000Y-96000000D02*
X222400000Y-91000000D01*
X227400000Y-98000000D02*
X227400000Y-96000000D01*
X229000000Y-99600000D02*
X227400000Y-98000000D01*
X230400000Y-99600000D02*
X229000000Y-99600000D01*
X236400000Y-105600000D02*
X230400000Y-99600000D01*
X236400000Y-114800000D02*
X236400000Y-105600000D01*
X236200000Y-115000000D02*
X236400000Y-114800000D01*
X236200000Y-121600000D02*
X236200000Y-115000000D01*
X227050000Y-130750000D02*
X236200000Y-121600000D01*
X226500000Y-128550000D02*
X224300000Y-130750000D01*
X226500000Y-127000000D02*
X226500000Y-128550000D01*
X221000000Y-121500000D02*
X226500000Y-127000000D01*
X195138154Y-100111846D02*
X198046051Y-100111846D01*
X191800000Y-103450000D02*
X195138154Y-100111846D01*
X191800000Y-106400000D02*
X191800000Y-103450000D01*
X191000000Y-107200000D02*
X191800000Y-106400000D01*
X191000000Y-114750000D02*
X191000000Y-107200000D01*
X191200000Y-114950000D02*
X191000000Y-114750000D01*
X191200000Y-121450000D02*
X191200000Y-114950000D01*
X194000000Y-124250000D02*
X191200000Y-121450000D01*
X194000000Y-125700000D02*
X194000000Y-124250000D01*
X195300000Y-127000000D02*
X194000000Y-125700000D01*
D20*
G36*
X200035850Y-98301653D02*
X200021707Y-98315795D01*
X200875056Y-99169143D01*
X200875057Y-99169143D01*
X201638154Y-99932241D01*
X201652297Y-99918099D01*
X201831902Y-100097704D01*
X201817759Y-100111846D01*
X202671108Y-100965194D01*
X202920834Y-100886787D01*
X203093122Y-100470873D01*
X203119763Y-99886752D01*
X203073658Y-99759308D01*
X203454965Y-99835155D01*
X204028455Y-99721081D01*
X204514635Y-99396225D01*
X204839491Y-98910045D01*
X204945622Y-98376490D01*
X205415000Y-98845868D01*
X205415000Y-100404132D01*
X199409566Y-106409566D01*
X199228561Y-106680459D01*
X199165000Y-107000000D01*
X199165000Y-107273144D01*
X199078034Y-107273144D01*
X198265391Y-108085786D01*
X198279534Y-108099929D01*
X198099929Y-108279534D01*
X198085786Y-108265391D01*
X197273144Y-109078034D01*
X197273144Y-109302540D01*
X197867509Y-109896905D01*
X198100898Y-109993578D01*
X198353516Y-109993578D01*
X198586906Y-109896906D01*
X198765534Y-109718277D01*
X199039850Y-109443961D01*
X199039850Y-109219458D01*
X199152102Y-109331710D01*
X199165000Y-109318812D01*
X199165000Y-110000000D01*
X199220348Y-110278249D01*
X199183613Y-110314984D01*
X199048528Y-110512687D01*
X198994044Y-110763849D01*
X199041568Y-111016420D01*
X199183613Y-111230602D01*
X199636072Y-111683061D01*
X197897440Y-113421692D01*
X197897440Y-112000000D01*
X197853162Y-111764683D01*
X197714090Y-111548559D01*
X197501890Y-111403569D01*
X197250000Y-111352560D01*
X195350000Y-111352560D01*
X195114683Y-111396838D01*
X194898559Y-111535910D01*
X194753569Y-111748110D01*
X194733582Y-111846810D01*
X194696744Y-111883648D01*
X194604208Y-111621981D01*
X194012602Y-111403812D01*
X193382539Y-111428648D01*
X192915792Y-111621981D01*
X192823255Y-111883650D01*
X193760000Y-112820395D01*
X193774143Y-112806253D01*
X193953748Y-112985858D01*
X193939605Y-113000000D01*
X193953748Y-113014143D01*
X193774143Y-113193748D01*
X193760000Y-113179605D01*
X192823255Y-114116350D01*
X192915792Y-114378019D01*
X193507398Y-114596188D01*
X194137461Y-114571352D01*
X194604208Y-114378019D01*
X194696744Y-114116352D01*
X194730875Y-114150483D01*
X194746838Y-114235317D01*
X194885910Y-114451441D01*
X195098110Y-114596431D01*
X195350000Y-114647440D01*
X196671692Y-114647440D01*
X195509566Y-115809566D01*
X195328561Y-116080459D01*
X195265000Y-116400000D01*
X195265000Y-118300000D01*
X195328561Y-118619541D01*
X195425501Y-118764622D01*
X195509566Y-118890434D01*
X196209565Y-119590434D01*
X196313029Y-119659566D01*
X196480459Y-119771439D01*
X196800000Y-119835000D01*
X199729079Y-119835000D01*
X199884311Y-120210689D01*
X200187714Y-120514622D01*
X200584332Y-120679313D01*
X201013784Y-120679687D01*
X201410689Y-120515689D01*
X201714622Y-120212286D01*
X201879313Y-119815668D01*
X201879687Y-119386216D01*
X201796299Y-119184401D01*
X202223694Y-119184774D01*
X202824655Y-118936462D01*
X203284846Y-118477073D01*
X203364602Y-118285000D01*
X205700000Y-118285000D01*
X205981272Y-118229051D01*
X206219723Y-118069723D01*
X209054447Y-115235000D01*
X211750000Y-115235000D01*
X211768725Y-115231275D01*
X211765000Y-115250000D01*
X211765000Y-117695553D01*
X211431932Y-118028622D01*
X211415689Y-117989311D01*
X211112286Y-117685378D01*
X210715668Y-117520687D01*
X210631921Y-117520614D01*
X210515689Y-117239311D01*
X210212286Y-116935378D01*
X209815668Y-116770687D01*
X209386216Y-116770313D01*
X208989311Y-116934311D01*
X208685378Y-117237714D01*
X208520687Y-117634332D01*
X208520464Y-117890089D01*
X207040020Y-119370534D01*
X206786216Y-119370313D01*
X206389311Y-119534311D01*
X206085378Y-119837714D01*
X205920687Y-120234332D01*
X205920313Y-120663784D01*
X206084311Y-121060689D01*
X206387714Y-121364622D01*
X206784332Y-121529313D01*
X207038800Y-121529535D01*
X207134311Y-121760689D01*
X207437714Y-122064622D01*
X207834332Y-122229313D01*
X208263784Y-122229687D01*
X208660689Y-122065689D01*
X208964622Y-121762286D01*
X209129313Y-121365668D01*
X209129623Y-121009823D01*
X210265000Y-119874447D01*
X210265000Y-123345553D01*
X209918889Y-123691664D01*
X209764701Y-123627640D01*
X209114460Y-123627072D01*
X208513499Y-123875384D01*
X208053308Y-124334773D01*
X207803948Y-124935299D01*
X207803380Y-125585540D01*
X208051692Y-126186501D01*
X208511081Y-126646692D01*
X209111607Y-126896052D01*
X209761848Y-126896620D01*
X210173722Y-126726437D01*
X210003948Y-127135299D01*
X210003380Y-127785540D01*
X210251692Y-128386501D01*
X210711081Y-128846692D01*
X211311607Y-129096052D01*
X211961848Y-129096620D01*
X212562809Y-128848308D01*
X213023000Y-128388919D01*
X213232021Y-127885540D01*
X215077072Y-127885540D01*
X215325384Y-128486501D01*
X215784773Y-128946692D01*
X216385299Y-129196052D01*
X217035540Y-129196620D01*
X217636501Y-128948308D01*
X218096692Y-128488919D01*
X218346052Y-127888393D01*
X218346620Y-127238152D01*
X218176437Y-126826278D01*
X218585299Y-126996052D01*
X219235540Y-126996620D01*
X219836501Y-126748308D01*
X220296692Y-126288919D01*
X220546052Y-125688393D01*
X220546620Y-125038152D01*
X220298308Y-124437191D01*
X219838919Y-123977000D01*
X219238393Y-123727640D01*
X218588152Y-123727072D01*
X217987191Y-123975384D01*
X217527000Y-124434773D01*
X217277640Y-125035299D01*
X217277072Y-125685540D01*
X217447255Y-126097414D01*
X217038393Y-125927640D01*
X216388152Y-125927072D01*
X215787191Y-126175384D01*
X215327000Y-126634773D01*
X215077640Y-127235299D01*
X215077072Y-127885540D01*
X213232021Y-127885540D01*
X213272360Y-127788393D01*
X213272928Y-127138152D01*
X213222745Y-127016701D01*
X214519723Y-125719724D01*
X214679051Y-125481272D01*
X214702719Y-125362286D01*
X214735000Y-125200000D01*
X214735000Y-123347440D01*
X215000000Y-123347440D01*
X215235317Y-123303162D01*
X215451441Y-123164090D01*
X215596431Y-122951890D01*
X215647440Y-122700000D01*
X215647440Y-121142006D01*
X218519723Y-118269724D01*
X218679051Y-118031272D01*
X218685271Y-118000000D01*
X218735000Y-117750000D01*
X218735000Y-113610075D01*
X218831981Y-113844208D01*
X219093650Y-113936745D01*
X220030395Y-113000000D01*
X220016253Y-112985858D01*
X220195858Y-112806253D01*
X220210000Y-112820395D01*
X220224143Y-112806253D01*
X220403748Y-112985858D01*
X220389605Y-113000000D01*
X220403748Y-113014143D01*
X220224143Y-113193748D01*
X220210000Y-113179605D01*
X219273255Y-114116350D01*
X219365792Y-114378019D01*
X219957398Y-114596188D01*
X220587461Y-114571352D01*
X221054208Y-114378019D01*
X221146744Y-114116352D01*
X221180875Y-114150483D01*
X221196838Y-114235317D01*
X221335910Y-114451441D01*
X221548110Y-114596431D01*
X221800000Y-114647440D01*
X223700000Y-114647440D01*
X223935317Y-114603162D01*
X224151441Y-114464090D01*
X224296431Y-114251890D01*
X224347440Y-114000000D01*
X224347440Y-113735000D01*
X226400000Y-113735000D01*
X226681272Y-113679051D01*
X226919723Y-113519723D01*
X228167059Y-112272388D01*
X228785540Y-112272928D01*
X229386501Y-112024616D01*
X229411159Y-112000000D01*
X230102560Y-112000000D01*
X230102560Y-114000000D01*
X230146838Y-114235317D01*
X230285910Y-114451441D01*
X230498110Y-114596431D01*
X230750000Y-114647440D01*
X232650000Y-114647440D01*
X232885317Y-114603162D01*
X233101441Y-114464090D01*
X233246431Y-114251890D01*
X233266418Y-114153190D01*
X233303256Y-114116352D01*
X233395792Y-114378019D01*
X233987398Y-114596188D01*
X234617461Y-114571352D01*
X235084208Y-114378019D01*
X235176745Y-114116350D01*
X234240000Y-113179605D01*
X234225858Y-113193748D01*
X234046253Y-113014143D01*
X234060395Y-113000000D01*
X234046253Y-112985858D01*
X234225858Y-112806253D01*
X234240000Y-112820395D01*
X235176745Y-111883650D01*
X235084208Y-111621981D01*
X234492602Y-111403812D01*
X233862539Y-111428648D01*
X233395792Y-111621981D01*
X233303256Y-111883648D01*
X233269125Y-111849517D01*
X233253162Y-111764683D01*
X233114090Y-111548559D01*
X232901890Y-111403569D01*
X232650000Y-111352560D01*
X230750000Y-111352560D01*
X230514683Y-111396838D01*
X230298559Y-111535910D01*
X230153569Y-111748110D01*
X230102560Y-112000000D01*
X229411159Y-112000000D01*
X229846692Y-111565227D01*
X230096052Y-110964701D01*
X230096620Y-110314460D01*
X229848308Y-109713499D01*
X229388919Y-109253308D01*
X228788393Y-109003948D01*
X228138152Y-109003380D01*
X227692854Y-109187373D01*
X227884206Y-108726547D01*
X227884774Y-108076306D01*
X227636462Y-107475345D01*
X227177073Y-107015154D01*
X226576547Y-106765794D01*
X225926306Y-106765226D01*
X225325345Y-107013538D01*
X224865154Y-107472927D01*
X224615794Y-108073453D01*
X224615226Y-108723694D01*
X224709266Y-108951288D01*
X223445554Y-110215000D01*
X220191682Y-110215000D01*
X220062286Y-110085378D01*
X219665668Y-109920687D01*
X219618800Y-109920646D01*
X226805255Y-102734192D01*
X227034332Y-102829313D01*
X227463784Y-102829687D01*
X227860689Y-102665689D01*
X228164622Y-102362286D01*
X228329313Y-101965668D01*
X228329432Y-101829570D01*
X228463784Y-101829687D01*
X228860689Y-101665689D01*
X229164622Y-101362286D01*
X229329313Y-100965668D01*
X229329687Y-100536216D01*
X229246546Y-100335000D01*
X230095554Y-100335000D01*
X231189329Y-101428775D01*
X230713499Y-101625384D01*
X230253308Y-102084773D01*
X230003948Y-102685299D01*
X230003380Y-103335540D01*
X230251692Y-103936501D01*
X230711081Y-104396692D01*
X231311607Y-104646052D01*
X231961848Y-104646620D01*
X232407146Y-104462627D01*
X232215794Y-104923453D01*
X232215226Y-105573694D01*
X232463538Y-106174655D01*
X232922927Y-106634846D01*
X233523453Y-106884206D01*
X234173694Y-106884774D01*
X234774655Y-106636462D01*
X235234846Y-106177073D01*
X235441045Y-105680491D01*
X235665000Y-105904447D01*
X235665000Y-112269214D01*
X235618019Y-112155792D01*
X235356350Y-112063255D01*
X234419605Y-113000000D01*
X235356350Y-113936745D01*
X235618019Y-113844208D01*
X235665000Y-113716810D01*
X235665000Y-114503141D01*
X235520949Y-114718728D01*
X235465000Y-115000000D01*
X235465000Y-120044412D01*
X235436462Y-119975345D01*
X234977073Y-119515154D01*
X234376547Y-119265794D01*
X233726306Y-119265226D01*
X233125345Y-119513538D01*
X232665154Y-119972927D01*
X232415794Y-120573453D01*
X232415226Y-121223694D01*
X232585409Y-121635568D01*
X232176547Y-121465794D01*
X231526306Y-121465226D01*
X230925345Y-121713538D01*
X230465154Y-122172927D01*
X230215794Y-122773453D01*
X230215226Y-123423694D01*
X230455457Y-124005097D01*
X229695554Y-124765000D01*
X228304447Y-124765000D01*
X223579466Y-120040020D01*
X223579687Y-119786216D01*
X223415689Y-119389311D01*
X223112286Y-119085378D01*
X222715668Y-118920687D01*
X222286216Y-118920313D01*
X222085000Y-119003454D01*
X222085000Y-118191769D01*
X222164622Y-118112286D01*
X222196489Y-118035540D01*
X224827072Y-118035540D01*
X225075384Y-118636501D01*
X225534773Y-119096692D01*
X226135299Y-119346052D01*
X226785540Y-119346620D01*
X227386501Y-119098308D01*
X227846692Y-118638919D01*
X228096052Y-118038393D01*
X228096620Y-117388152D01*
X227926437Y-116976278D01*
X228335299Y-117146052D01*
X228985540Y-117146620D01*
X229586501Y-116898308D01*
X230046692Y-116438919D01*
X230296052Y-115838393D01*
X230296620Y-115188152D01*
X230048308Y-114587191D01*
X229588919Y-114127000D01*
X228988393Y-113877640D01*
X228338152Y-113877072D01*
X227737191Y-114125384D01*
X227277000Y-114584773D01*
X227027640Y-115185299D01*
X227027072Y-115835540D01*
X227197255Y-116247414D01*
X226788393Y-116077640D01*
X226138152Y-116077072D01*
X225537191Y-116325384D01*
X225077000Y-116784773D01*
X224827640Y-117385299D01*
X224827072Y-118035540D01*
X222196489Y-118035540D01*
X222329313Y-117715668D01*
X222329687Y-117286216D01*
X222165689Y-116889311D01*
X221862286Y-116585378D01*
X221465668Y-116420687D01*
X221036216Y-116420313D01*
X220639311Y-116584311D01*
X220335378Y-116887714D01*
X220170687Y-117284332D01*
X220170313Y-117713784D01*
X220334311Y-118110689D01*
X220415000Y-118191519D01*
X220415000Y-120250000D01*
X220474498Y-120549113D01*
X220389311Y-120584311D01*
X220085378Y-120887714D01*
X219920687Y-121284332D01*
X219920313Y-121713784D01*
X220084311Y-122110689D01*
X220387714Y-122414622D01*
X220784332Y-122579313D01*
X221040090Y-122579536D01*
X225765000Y-127304447D01*
X225765000Y-128245553D01*
X224816065Y-129194489D01*
X224626547Y-129115794D01*
X223976306Y-129115226D01*
X223375345Y-129363538D01*
X222915154Y-129822927D01*
X222665794Y-130423453D01*
X222665226Y-131073694D01*
X222835409Y-131485568D01*
X222426547Y-131315794D01*
X221776306Y-131315226D01*
X221175345Y-131563538D01*
X220715154Y-132022927D01*
X220465794Y-132623453D01*
X220465226Y-133273694D01*
X220713538Y-133874655D01*
X221172927Y-134334846D01*
X221773453Y-134584206D01*
X222423694Y-134584774D01*
X223024655Y-134336462D01*
X223484846Y-133877073D01*
X223564602Y-133685000D01*
X225650000Y-133685000D01*
X225931272Y-133629051D01*
X226169723Y-133469723D01*
X234638622Y-125000825D01*
X231178806Y-130178806D01*
X223297103Y-135445191D01*
X214000000Y-137294500D01*
X204702897Y-135445191D01*
X198883834Y-131557018D01*
X199266372Y-131398957D01*
X199692377Y-130973694D01*
X202415226Y-130973694D01*
X202663538Y-131574655D01*
X203122927Y-132034846D01*
X203723453Y-132284206D01*
X204373694Y-132284774D01*
X204785568Y-132114591D01*
X204615794Y-132523453D01*
X204615226Y-133173694D01*
X204863538Y-133774655D01*
X205322927Y-134234846D01*
X205923453Y-134484206D01*
X206573694Y-134484774D01*
X206884503Y-134356350D01*
X213063255Y-134356350D01*
X213155792Y-134618019D01*
X213747398Y-134836188D01*
X214377461Y-134811352D01*
X214844208Y-134618019D01*
X214936745Y-134356350D01*
X214000000Y-133419605D01*
X213063255Y-134356350D01*
X206884503Y-134356350D01*
X207174655Y-134236462D01*
X207634846Y-133777073D01*
X207884206Y-133176547D01*
X207884774Y-132526306D01*
X207636462Y-131925345D01*
X207177073Y-131465154D01*
X206576547Y-131215794D01*
X205926306Y-131215226D01*
X205514432Y-131385409D01*
X205684206Y-130976547D01*
X205684774Y-130326306D01*
X205446650Y-129750000D01*
X212352560Y-129750000D01*
X212352560Y-131650000D01*
X212396838Y-131885317D01*
X212535910Y-132101441D01*
X212748110Y-132246431D01*
X212846810Y-132266418D01*
X212883648Y-132303256D01*
X212621981Y-132395792D01*
X212403812Y-132987398D01*
X212428648Y-133617461D01*
X212621981Y-134084208D01*
X212883650Y-134176745D01*
X213820395Y-133240000D01*
X213806253Y-133225858D01*
X213985858Y-133046253D01*
X214000000Y-133060395D01*
X214014143Y-133046253D01*
X214193748Y-133225858D01*
X214179605Y-133240000D01*
X215116350Y-134176745D01*
X215378019Y-134084208D01*
X215596188Y-133492602D01*
X215571352Y-132862539D01*
X215378019Y-132395792D01*
X215116352Y-132303256D01*
X215150483Y-132269125D01*
X215235317Y-132253162D01*
X215451441Y-132114090D01*
X215596431Y-131901890D01*
X215647440Y-131650000D01*
X215647440Y-129750000D01*
X215603162Y-129514683D01*
X215464090Y-129298559D01*
X215251890Y-129153569D01*
X215000000Y-129102560D01*
X213000000Y-129102560D01*
X212764683Y-129146838D01*
X212548559Y-129285910D01*
X212403569Y-129498110D01*
X212352560Y-129750000D01*
X205446650Y-129750000D01*
X205436462Y-129725345D01*
X204977073Y-129265154D01*
X204376547Y-129015794D01*
X203726306Y-129015226D01*
X203125345Y-129263538D01*
X202665154Y-129722927D01*
X202415794Y-130323453D01*
X202415226Y-130973694D01*
X199692377Y-130973694D01*
X199797093Y-130869161D01*
X200084672Y-130176595D01*
X200085326Y-129426695D01*
X199798957Y-128733628D01*
X199269161Y-128202907D01*
X198576595Y-127915328D01*
X197826695Y-127914674D01*
X197133628Y-128201043D01*
X196602907Y-128730839D01*
X196315759Y-129422368D01*
X195418552Y-128079604D01*
X195513784Y-128079687D01*
X195910689Y-127915689D01*
X196214622Y-127612286D01*
X196379313Y-127215668D01*
X196379571Y-126919018D01*
X196980277Y-127519724D01*
X197118807Y-127612286D01*
X197218728Y-127679051D01*
X197500000Y-127735000D01*
X199250000Y-127735000D01*
X199531272Y-127679051D01*
X199769723Y-127519723D01*
X201269723Y-126019724D01*
X201429051Y-125781272D01*
X201467417Y-125588393D01*
X201474676Y-125551901D01*
X201664622Y-125362286D01*
X201829313Y-124965668D01*
X201829687Y-124536216D01*
X201665689Y-124139311D01*
X201362286Y-123835378D01*
X200965668Y-123670687D01*
X200536216Y-123670313D01*
X200139311Y-123834311D01*
X199835378Y-124137714D01*
X199670687Y-124534332D01*
X199670313Y-124963784D01*
X199834311Y-125360689D01*
X199842081Y-125368472D01*
X198945554Y-126265000D01*
X197804447Y-126265000D01*
X196059620Y-124520174D01*
X196185299Y-124572360D01*
X196835540Y-124572928D01*
X197436501Y-124324616D01*
X197896692Y-123865227D01*
X198146052Y-123264701D01*
X198146620Y-122614460D01*
X197898308Y-122013499D01*
X197438919Y-121553308D01*
X196838393Y-121303948D01*
X196188152Y-121303380D01*
X195742854Y-121487373D01*
X195934206Y-121026547D01*
X195934774Y-120376306D01*
X195686462Y-119775345D01*
X195227073Y-119315154D01*
X194626547Y-119065794D01*
X193976306Y-119065226D01*
X193375345Y-119313538D01*
X192915154Y-119772927D01*
X192735000Y-120206786D01*
X192735000Y-114750000D01*
X192679051Y-114468728D01*
X192622954Y-114384773D01*
X192519724Y-114230277D01*
X192235000Y-113945554D01*
X192235000Y-113489365D01*
X192381981Y-113844208D01*
X192643650Y-113936745D01*
X193580395Y-113000000D01*
X192643650Y-112063255D01*
X192381981Y-112155792D01*
X192235000Y-112554358D01*
X192235000Y-110554446D01*
X193019724Y-109769723D01*
X193179051Y-109531272D01*
X193235000Y-109250000D01*
X193235000Y-104535551D01*
X193373519Y-104742859D01*
X193415039Y-104784379D01*
X193901219Y-105109235D01*
X194450424Y-105218478D01*
X194435791Y-105239894D01*
X194381307Y-105491056D01*
X194428831Y-105743627D01*
X194570876Y-105957809D01*
X195792191Y-107179124D01*
X195989894Y-107314209D01*
X196241056Y-107368693D01*
X196493627Y-107321169D01*
X196625862Y-107233471D01*
X196453295Y-107406038D01*
X196274666Y-107584666D01*
X196177994Y-107818056D01*
X196177994Y-108070674D01*
X196274667Y-108304063D01*
X196869032Y-108898428D01*
X197093538Y-108898428D01*
X197906181Y-108085786D01*
X197892039Y-108071644D01*
X198071644Y-107892039D01*
X198085786Y-107906181D01*
X198898428Y-107093538D01*
X198898428Y-106869032D01*
X198304063Y-106274667D01*
X198070674Y-106177994D01*
X197818056Y-106177994D01*
X197631783Y-106255150D01*
X197929124Y-105957809D01*
X198064209Y-105760106D01*
X198118693Y-105508944D01*
X198071169Y-105256373D01*
X198046571Y-105219283D01*
X198066811Y-105223309D01*
X198640301Y-105109235D01*
X199126481Y-104784379D01*
X199451337Y-104298199D01*
X199565411Y-103724709D01*
X199491553Y-103353400D01*
X199862862Y-103427258D01*
X200436352Y-103313184D01*
X200922532Y-102988328D01*
X201247388Y-102502148D01*
X201361462Y-101928658D01*
X201285615Y-101547349D01*
X201413060Y-101593455D01*
X201997181Y-101566814D01*
X202413095Y-101394526D01*
X202491502Y-101144800D01*
X201638154Y-100291451D01*
X201624012Y-100305594D01*
X201444407Y-100125989D01*
X201458549Y-100111846D01*
X200605200Y-99258498D01*
X200605199Y-99258498D01*
X199842102Y-98495400D01*
X199827960Y-98509543D01*
X199648355Y-98329938D01*
X199662497Y-98315795D01*
X199648354Y-98301653D01*
X199827960Y-98122048D01*
X199842102Y-98136190D01*
X199856245Y-98122048D01*
X200035850Y-98301653D01*
X200035850Y-98301653D01*
G37*
X200035850Y-98301653D02*
X200021707Y-98315795D01*
X200875056Y-99169143D01*
X200875057Y-99169143D01*
X201638154Y-99932241D01*
X201652297Y-99918099D01*
X201831902Y-100097704D01*
X201817759Y-100111846D01*
X202671108Y-100965194D01*
X202920834Y-100886787D01*
X203093122Y-100470873D01*
X203119763Y-99886752D01*
X203073658Y-99759308D01*
X203454965Y-99835155D01*
X204028455Y-99721081D01*
X204514635Y-99396225D01*
X204839491Y-98910045D01*
X204945622Y-98376490D01*
X205415000Y-98845868D01*
X205415000Y-100404132D01*
X199409566Y-106409566D01*
X199228561Y-106680459D01*
X199165000Y-107000000D01*
X199165000Y-107273144D01*
X199078034Y-107273144D01*
X198265391Y-108085786D01*
X198279534Y-108099929D01*
X198099929Y-108279534D01*
X198085786Y-108265391D01*
X197273144Y-109078034D01*
X197273144Y-109302540D01*
X197867509Y-109896905D01*
X198100898Y-109993578D01*
X198353516Y-109993578D01*
X198586906Y-109896906D01*
X198765534Y-109718277D01*
X199039850Y-109443961D01*
X199039850Y-109219458D01*
X199152102Y-109331710D01*
X199165000Y-109318812D01*
X199165000Y-110000000D01*
X199220348Y-110278249D01*
X199183613Y-110314984D01*
X199048528Y-110512687D01*
X198994044Y-110763849D01*
X199041568Y-111016420D01*
X199183613Y-111230602D01*
X199636072Y-111683061D01*
X197897440Y-113421692D01*
X197897440Y-112000000D01*
X197853162Y-111764683D01*
X197714090Y-111548559D01*
X197501890Y-111403569D01*
X197250000Y-111352560D01*
X195350000Y-111352560D01*
X195114683Y-111396838D01*
X194898559Y-111535910D01*
X194753569Y-111748110D01*
X194733582Y-111846810D01*
X194696744Y-111883648D01*
X194604208Y-111621981D01*
X194012602Y-111403812D01*
X193382539Y-111428648D01*
X192915792Y-111621981D01*
X192823255Y-111883650D01*
X193760000Y-112820395D01*
X193774143Y-112806253D01*
X193953748Y-112985858D01*
X193939605Y-113000000D01*
X193953748Y-113014143D01*
X193774143Y-113193748D01*
X193760000Y-113179605D01*
X192823255Y-114116350D01*
X192915792Y-114378019D01*
X193507398Y-114596188D01*
X194137461Y-114571352D01*
X194604208Y-114378019D01*
X194696744Y-114116352D01*
X194730875Y-114150483D01*
X194746838Y-114235317D01*
X194885910Y-114451441D01*
X195098110Y-114596431D01*
X195350000Y-114647440D01*
X196671692Y-114647440D01*
X195509566Y-115809566D01*
X195328561Y-116080459D01*
X195265000Y-116400000D01*
X195265000Y-118300000D01*
X195328561Y-118619541D01*
X195425501Y-118764622D01*
X195509566Y-118890434D01*
X196209565Y-119590434D01*
X196313029Y-119659566D01*
X196480459Y-119771439D01*
X196800000Y-119835000D01*
X199729079Y-119835000D01*
X199884311Y-120210689D01*
X200187714Y-120514622D01*
X200584332Y-120679313D01*
X201013784Y-120679687D01*
X201410689Y-120515689D01*
X201714622Y-120212286D01*
X201879313Y-119815668D01*
X201879687Y-119386216D01*
X201796299Y-119184401D01*
X202223694Y-119184774D01*
X202824655Y-118936462D01*
X203284846Y-118477073D01*
X203364602Y-118285000D01*
X205700000Y-118285000D01*
X205981272Y-118229051D01*
X206219723Y-118069723D01*
X209054447Y-115235000D01*
X211750000Y-115235000D01*
X211768725Y-115231275D01*
X211765000Y-115250000D01*
X211765000Y-117695553D01*
X211431932Y-118028622D01*
X211415689Y-117989311D01*
X211112286Y-117685378D01*
X210715668Y-117520687D01*
X210631921Y-117520614D01*
X210515689Y-117239311D01*
X210212286Y-116935378D01*
X209815668Y-116770687D01*
X209386216Y-116770313D01*
X208989311Y-116934311D01*
X208685378Y-117237714D01*
X208520687Y-117634332D01*
X208520464Y-117890089D01*
X207040020Y-119370534D01*
X206786216Y-119370313D01*
X206389311Y-119534311D01*
X206085378Y-119837714D01*
X205920687Y-120234332D01*
X205920313Y-120663784D01*
X206084311Y-121060689D01*
X206387714Y-121364622D01*
X206784332Y-121529313D01*
X207038800Y-121529535D01*
X207134311Y-121760689D01*
X207437714Y-122064622D01*
X207834332Y-122229313D01*
X208263784Y-122229687D01*
X208660689Y-122065689D01*
X208964622Y-121762286D01*
X209129313Y-121365668D01*
X209129623Y-121009823D01*
X210265000Y-119874447D01*
X210265000Y-123345553D01*
X209918889Y-123691664D01*
X209764701Y-123627640D01*
X209114460Y-123627072D01*
X208513499Y-123875384D01*
X208053308Y-124334773D01*
X207803948Y-124935299D01*
X207803380Y-125585540D01*
X208051692Y-126186501D01*
X208511081Y-126646692D01*
X209111607Y-126896052D01*
X209761848Y-126896620D01*
X210173722Y-126726437D01*
X210003948Y-127135299D01*
X210003380Y-127785540D01*
X210251692Y-128386501D01*
X210711081Y-128846692D01*
X211311607Y-129096052D01*
X211961848Y-129096620D01*
X212562809Y-128848308D01*
X213023000Y-128388919D01*
X213232021Y-127885540D01*
X215077072Y-127885540D01*
X215325384Y-128486501D01*
X215784773Y-128946692D01*
X216385299Y-129196052D01*
X217035540Y-129196620D01*
X217636501Y-128948308D01*
X218096692Y-128488919D01*
X218346052Y-127888393D01*
X218346620Y-127238152D01*
X218176437Y-126826278D01*
X218585299Y-126996052D01*
X219235540Y-126996620D01*
X219836501Y-126748308D01*
X220296692Y-126288919D01*
X220546052Y-125688393D01*
X220546620Y-125038152D01*
X220298308Y-124437191D01*
X219838919Y-123977000D01*
X219238393Y-123727640D01*
X218588152Y-123727072D01*
X217987191Y-123975384D01*
X217527000Y-124434773D01*
X217277640Y-125035299D01*
X217277072Y-125685540D01*
X217447255Y-126097414D01*
X217038393Y-125927640D01*
X216388152Y-125927072D01*
X215787191Y-126175384D01*
X215327000Y-126634773D01*
X215077640Y-127235299D01*
X215077072Y-127885540D01*
X213232021Y-127885540D01*
X213272360Y-127788393D01*
X213272928Y-127138152D01*
X213222745Y-127016701D01*
X214519723Y-125719724D01*
X214679051Y-125481272D01*
X214702719Y-125362286D01*
X214735000Y-125200000D01*
X214735000Y-123347440D01*
X215000000Y-123347440D01*
X215235317Y-123303162D01*
X215451441Y-123164090D01*
X215596431Y-122951890D01*
X215647440Y-122700000D01*
X215647440Y-121142006D01*
X218519723Y-118269724D01*
X218679051Y-118031272D01*
X218685271Y-118000000D01*
X218735000Y-117750000D01*
X218735000Y-113610075D01*
X218831981Y-113844208D01*
X219093650Y-113936745D01*
X220030395Y-113000000D01*
X220016253Y-112985858D01*
X220195858Y-112806253D01*
X220210000Y-112820395D01*
X220224143Y-112806253D01*
X220403748Y-112985858D01*
X220389605Y-113000000D01*
X220403748Y-113014143D01*
X220224143Y-113193748D01*
X220210000Y-113179605D01*
X219273255Y-114116350D01*
X219365792Y-114378019D01*
X219957398Y-114596188D01*
X220587461Y-114571352D01*
X221054208Y-114378019D01*
X221146744Y-114116352D01*
X221180875Y-114150483D01*
X221196838Y-114235317D01*
X221335910Y-114451441D01*
X221548110Y-114596431D01*
X221800000Y-114647440D01*
X223700000Y-114647440D01*
X223935317Y-114603162D01*
X224151441Y-114464090D01*
X224296431Y-114251890D01*
X224347440Y-114000000D01*
X224347440Y-113735000D01*
X226400000Y-113735000D01*
X226681272Y-113679051D01*
X226919723Y-113519723D01*
X228167059Y-112272388D01*
X228785540Y-112272928D01*
X229386501Y-112024616D01*
X229411159Y-112000000D01*
X230102560Y-112000000D01*
X230102560Y-114000000D01*
X230146838Y-114235317D01*
X230285910Y-114451441D01*
X230498110Y-114596431D01*
X230750000Y-114647440D01*
X232650000Y-114647440D01*
X232885317Y-114603162D01*
X233101441Y-114464090D01*
X233246431Y-114251890D01*
X233266418Y-114153190D01*
X233303256Y-114116352D01*
X233395792Y-114378019D01*
X233987398Y-114596188D01*
X234617461Y-114571352D01*
X235084208Y-114378019D01*
X235176745Y-114116350D01*
X234240000Y-113179605D01*
X234225858Y-113193748D01*
X234046253Y-113014143D01*
X234060395Y-113000000D01*
X234046253Y-112985858D01*
X234225858Y-112806253D01*
X234240000Y-112820395D01*
X235176745Y-111883650D01*
X235084208Y-111621981D01*
X234492602Y-111403812D01*
X233862539Y-111428648D01*
X233395792Y-111621981D01*
X233303256Y-111883648D01*
X233269125Y-111849517D01*
X233253162Y-111764683D01*
X233114090Y-111548559D01*
X232901890Y-111403569D01*
X232650000Y-111352560D01*
X230750000Y-111352560D01*
X230514683Y-111396838D01*
X230298559Y-111535910D01*
X230153569Y-111748110D01*
X230102560Y-112000000D01*
X229411159Y-112000000D01*
X229846692Y-111565227D01*
X230096052Y-110964701D01*
X230096620Y-110314460D01*
X229848308Y-109713499D01*
X229388919Y-109253308D01*
X228788393Y-109003948D01*
X228138152Y-109003380D01*
X227692854Y-109187373D01*
X227884206Y-108726547D01*
X227884774Y-108076306D01*
X227636462Y-107475345D01*
X227177073Y-107015154D01*
X226576547Y-106765794D01*
X225926306Y-106765226D01*
X225325345Y-107013538D01*
X224865154Y-107472927D01*
X224615794Y-108073453D01*
X224615226Y-108723694D01*
X224709266Y-108951288D01*
X223445554Y-110215000D01*
X220191682Y-110215000D01*
X220062286Y-110085378D01*
X219665668Y-109920687D01*
X219618800Y-109920646D01*
X226805255Y-102734192D01*
X227034332Y-102829313D01*
X227463784Y-102829687D01*
X227860689Y-102665689D01*
X228164622Y-102362286D01*
X228329313Y-101965668D01*
X228329432Y-101829570D01*
X228463784Y-101829687D01*
X228860689Y-101665689D01*
X229164622Y-101362286D01*
X229329313Y-100965668D01*
X229329687Y-100536216D01*
X229246546Y-100335000D01*
X230095554Y-100335000D01*
X231189329Y-101428775D01*
X230713499Y-101625384D01*
X230253308Y-102084773D01*
X230003948Y-102685299D01*
X230003380Y-103335540D01*
X230251692Y-103936501D01*
X230711081Y-104396692D01*
X231311607Y-104646052D01*
X231961848Y-104646620D01*
X232407146Y-104462627D01*
X232215794Y-104923453D01*
X232215226Y-105573694D01*
X232463538Y-106174655D01*
X232922927Y-106634846D01*
X233523453Y-106884206D01*
X234173694Y-106884774D01*
X234774655Y-106636462D01*
X235234846Y-106177073D01*
X235441045Y-105680491D01*
X235665000Y-105904447D01*
X235665000Y-112269214D01*
X235618019Y-112155792D01*
X235356350Y-112063255D01*
X234419605Y-113000000D01*
X235356350Y-113936745D01*
X235618019Y-113844208D01*
X235665000Y-113716810D01*
X235665000Y-114503141D01*
X235520949Y-114718728D01*
X235465000Y-115000000D01*
X235465000Y-120044412D01*
X235436462Y-119975345D01*
X234977073Y-119515154D01*
X234376547Y-119265794D01*
X233726306Y-119265226D01*
X233125345Y-119513538D01*
X232665154Y-119972927D01*
X232415794Y-120573453D01*
X232415226Y-121223694D01*
X232585409Y-121635568D01*
X232176547Y-121465794D01*
X231526306Y-121465226D01*
X230925345Y-121713538D01*
X230465154Y-122172927D01*
X230215794Y-122773453D01*
X230215226Y-123423694D01*
X230455457Y-124005097D01*
X229695554Y-124765000D01*
X228304447Y-124765000D01*
X223579466Y-120040020D01*
X223579687Y-119786216D01*
X223415689Y-119389311D01*
X223112286Y-119085378D01*
X222715668Y-118920687D01*
X222286216Y-118920313D01*
X222085000Y-119003454D01*
X222085000Y-118191769D01*
X222164622Y-118112286D01*
X222196489Y-118035540D01*
X224827072Y-118035540D01*
X225075384Y-118636501D01*
X225534773Y-119096692D01*
X226135299Y-119346052D01*
X226785540Y-119346620D01*
X227386501Y-119098308D01*
X227846692Y-118638919D01*
X228096052Y-118038393D01*
X228096620Y-117388152D01*
X227926437Y-116976278D01*
X228335299Y-117146052D01*
X228985540Y-117146620D01*
X229586501Y-116898308D01*
X230046692Y-116438919D01*
X230296052Y-115838393D01*
X230296620Y-115188152D01*
X230048308Y-114587191D01*
X229588919Y-114127000D01*
X228988393Y-113877640D01*
X228338152Y-113877072D01*
X227737191Y-114125384D01*
X227277000Y-114584773D01*
X227027640Y-115185299D01*
X227027072Y-115835540D01*
X227197255Y-116247414D01*
X226788393Y-116077640D01*
X226138152Y-116077072D01*
X225537191Y-116325384D01*
X225077000Y-116784773D01*
X224827640Y-117385299D01*
X224827072Y-118035540D01*
X222196489Y-118035540D01*
X222329313Y-117715668D01*
X222329687Y-117286216D01*
X222165689Y-116889311D01*
X221862286Y-116585378D01*
X221465668Y-116420687D01*
X221036216Y-116420313D01*
X220639311Y-116584311D01*
X220335378Y-116887714D01*
X220170687Y-117284332D01*
X220170313Y-117713784D01*
X220334311Y-118110689D01*
X220415000Y-118191519D01*
X220415000Y-120250000D01*
X220474498Y-120549113D01*
X220389311Y-120584311D01*
X220085378Y-120887714D01*
X219920687Y-121284332D01*
X219920313Y-121713784D01*
X220084311Y-122110689D01*
X220387714Y-122414622D01*
X220784332Y-122579313D01*
X221040090Y-122579536D01*
X225765000Y-127304447D01*
X225765000Y-128245553D01*
X224816065Y-129194489D01*
X224626547Y-129115794D01*
X223976306Y-129115226D01*
X223375345Y-129363538D01*
X222915154Y-129822927D01*
X222665794Y-130423453D01*
X222665226Y-131073694D01*
X222835409Y-131485568D01*
X222426547Y-131315794D01*
X221776306Y-131315226D01*
X221175345Y-131563538D01*
X220715154Y-132022927D01*
X220465794Y-132623453D01*
X220465226Y-133273694D01*
X220713538Y-133874655D01*
X221172927Y-134334846D01*
X221773453Y-134584206D01*
X222423694Y-134584774D01*
X223024655Y-134336462D01*
X223484846Y-133877073D01*
X223564602Y-133685000D01*
X225650000Y-133685000D01*
X225931272Y-133629051D01*
X226169723Y-133469723D01*
X234638622Y-125000825D01*
X231178806Y-130178806D01*
X223297103Y-135445191D01*
X214000000Y-137294500D01*
X204702897Y-135445191D01*
X198883834Y-131557018D01*
X199266372Y-131398957D01*
X199692377Y-130973694D01*
X202415226Y-130973694D01*
X202663538Y-131574655D01*
X203122927Y-132034846D01*
X203723453Y-132284206D01*
X204373694Y-132284774D01*
X204785568Y-132114591D01*
X204615794Y-132523453D01*
X204615226Y-133173694D01*
X204863538Y-133774655D01*
X205322927Y-134234846D01*
X205923453Y-134484206D01*
X206573694Y-134484774D01*
X206884503Y-134356350D01*
X213063255Y-134356350D01*
X213155792Y-134618019D01*
X213747398Y-134836188D01*
X214377461Y-134811352D01*
X214844208Y-134618019D01*
X214936745Y-134356350D01*
X214000000Y-133419605D01*
X213063255Y-134356350D01*
X206884503Y-134356350D01*
X207174655Y-134236462D01*
X207634846Y-133777073D01*
X207884206Y-133176547D01*
X207884774Y-132526306D01*
X207636462Y-131925345D01*
X207177073Y-131465154D01*
X206576547Y-131215794D01*
X205926306Y-131215226D01*
X205514432Y-131385409D01*
X205684206Y-130976547D01*
X205684774Y-130326306D01*
X205446650Y-129750000D01*
X212352560Y-129750000D01*
X212352560Y-131650000D01*
X212396838Y-131885317D01*
X212535910Y-132101441D01*
X212748110Y-132246431D01*
X212846810Y-132266418D01*
X212883648Y-132303256D01*
X212621981Y-132395792D01*
X212403812Y-132987398D01*
X212428648Y-133617461D01*
X212621981Y-134084208D01*
X212883650Y-134176745D01*
X213820395Y-133240000D01*
X213806253Y-133225858D01*
X213985858Y-133046253D01*
X214000000Y-133060395D01*
X214014143Y-133046253D01*
X214193748Y-133225858D01*
X214179605Y-133240000D01*
X215116350Y-134176745D01*
X215378019Y-134084208D01*
X215596188Y-133492602D01*
X215571352Y-132862539D01*
X215378019Y-132395792D01*
X215116352Y-132303256D01*
X215150483Y-132269125D01*
X215235317Y-132253162D01*
X215451441Y-132114090D01*
X215596431Y-131901890D01*
X215647440Y-131650000D01*
X215647440Y-129750000D01*
X215603162Y-129514683D01*
X215464090Y-129298559D01*
X215251890Y-129153569D01*
X215000000Y-129102560D01*
X213000000Y-129102560D01*
X212764683Y-129146838D01*
X212548559Y-129285910D01*
X212403569Y-129498110D01*
X212352560Y-129750000D01*
X205446650Y-129750000D01*
X205436462Y-129725345D01*
X204977073Y-129265154D01*
X204376547Y-129015794D01*
X203726306Y-129015226D01*
X203125345Y-129263538D01*
X202665154Y-129722927D01*
X202415794Y-130323453D01*
X202415226Y-130973694D01*
X199692377Y-130973694D01*
X199797093Y-130869161D01*
X200084672Y-130176595D01*
X200085326Y-129426695D01*
X199798957Y-128733628D01*
X199269161Y-128202907D01*
X198576595Y-127915328D01*
X197826695Y-127914674D01*
X197133628Y-128201043D01*
X196602907Y-128730839D01*
X196315759Y-129422368D01*
X195418552Y-128079604D01*
X195513784Y-128079687D01*
X195910689Y-127915689D01*
X196214622Y-127612286D01*
X196379313Y-127215668D01*
X196379571Y-126919018D01*
X196980277Y-127519724D01*
X197118807Y-127612286D01*
X197218728Y-127679051D01*
X197500000Y-127735000D01*
X199250000Y-127735000D01*
X199531272Y-127679051D01*
X199769723Y-127519723D01*
X201269723Y-126019724D01*
X201429051Y-125781272D01*
X201467417Y-125588393D01*
X201474676Y-125551901D01*
X201664622Y-125362286D01*
X201829313Y-124965668D01*
X201829687Y-124536216D01*
X201665689Y-124139311D01*
X201362286Y-123835378D01*
X200965668Y-123670687D01*
X200536216Y-123670313D01*
X200139311Y-123834311D01*
X199835378Y-124137714D01*
X199670687Y-124534332D01*
X199670313Y-124963784D01*
X199834311Y-125360689D01*
X199842081Y-125368472D01*
X198945554Y-126265000D01*
X197804447Y-126265000D01*
X196059620Y-124520174D01*
X196185299Y-124572360D01*
X196835540Y-124572928D01*
X197436501Y-124324616D01*
X197896692Y-123865227D01*
X198146052Y-123264701D01*
X198146620Y-122614460D01*
X197898308Y-122013499D01*
X197438919Y-121553308D01*
X196838393Y-121303948D01*
X196188152Y-121303380D01*
X195742854Y-121487373D01*
X195934206Y-121026547D01*
X195934774Y-120376306D01*
X195686462Y-119775345D01*
X195227073Y-119315154D01*
X194626547Y-119065794D01*
X193976306Y-119065226D01*
X193375345Y-119313538D01*
X192915154Y-119772927D01*
X192735000Y-120206786D01*
X192735000Y-114750000D01*
X192679051Y-114468728D01*
X192622954Y-114384773D01*
X192519724Y-114230277D01*
X192235000Y-113945554D01*
X192235000Y-113489365D01*
X192381981Y-113844208D01*
X192643650Y-113936745D01*
X193580395Y-113000000D01*
X192643650Y-112063255D01*
X192381981Y-112155792D01*
X192235000Y-112554358D01*
X192235000Y-110554446D01*
X193019724Y-109769723D01*
X193179051Y-109531272D01*
X193235000Y-109250000D01*
X193235000Y-104535551D01*
X193373519Y-104742859D01*
X193415039Y-104784379D01*
X193901219Y-105109235D01*
X194450424Y-105218478D01*
X194435791Y-105239894D01*
X194381307Y-105491056D01*
X194428831Y-105743627D01*
X194570876Y-105957809D01*
X195792191Y-107179124D01*
X195989894Y-107314209D01*
X196241056Y-107368693D01*
X196493627Y-107321169D01*
X196625862Y-107233471D01*
X196453295Y-107406038D01*
X196274666Y-107584666D01*
X196177994Y-107818056D01*
X196177994Y-108070674D01*
X196274667Y-108304063D01*
X196869032Y-108898428D01*
X197093538Y-108898428D01*
X197906181Y-108085786D01*
X197892039Y-108071644D01*
X198071644Y-107892039D01*
X198085786Y-107906181D01*
X198898428Y-107093538D01*
X198898428Y-106869032D01*
X198304063Y-106274667D01*
X198070674Y-106177994D01*
X197818056Y-106177994D01*
X197631783Y-106255150D01*
X197929124Y-105957809D01*
X198064209Y-105760106D01*
X198118693Y-105508944D01*
X198071169Y-105256373D01*
X198046571Y-105219283D01*
X198066811Y-105223309D01*
X198640301Y-105109235D01*
X199126481Y-104784379D01*
X199451337Y-104298199D01*
X199565411Y-103724709D01*
X199491553Y-103353400D01*
X199862862Y-103427258D01*
X200436352Y-103313184D01*
X200922532Y-102988328D01*
X201247388Y-102502148D01*
X201361462Y-101928658D01*
X201285615Y-101547349D01*
X201413060Y-101593455D01*
X201997181Y-101566814D01*
X202413095Y-101394526D01*
X202491502Y-101144800D01*
X201638154Y-100291451D01*
X201624012Y-100305594D01*
X201444407Y-100125989D01*
X201458549Y-100111846D01*
X200605200Y-99258498D01*
X200605199Y-99258498D01*
X199842102Y-98495400D01*
X199827960Y-98509543D01*
X199648355Y-98329938D01*
X199662497Y-98315795D01*
X199648354Y-98301653D01*
X199827960Y-98122048D01*
X199842102Y-98136190D01*
X199856245Y-98122048D01*
X200035850Y-98301653D01*
G36*
X217265000Y-117445553D02*
X215582982Y-119127572D01*
X215571352Y-118832539D01*
X215378019Y-118365792D01*
X215116350Y-118273255D01*
X214179605Y-119210000D01*
X214193748Y-119224143D01*
X214014143Y-119403748D01*
X214000000Y-119389605D01*
X213985858Y-119403748D01*
X213806253Y-119224143D01*
X213820395Y-119210000D01*
X213806253Y-119195858D01*
X213985858Y-119016253D01*
X214000000Y-119030395D01*
X214936745Y-118093650D01*
X214844208Y-117831981D01*
X214252602Y-117613812D01*
X213622539Y-117638648D01*
X213235000Y-117799172D01*
X213235000Y-115554446D01*
X217265000Y-111524446D01*
X217265000Y-117445553D01*
X217265000Y-117445553D01*
G37*
X217265000Y-117445553D02*
X215582982Y-119127572D01*
X215571352Y-118832539D01*
X215378019Y-118365792D01*
X215116350Y-118273255D01*
X214179605Y-119210000D01*
X214193748Y-119224143D01*
X214014143Y-119403748D01*
X214000000Y-119389605D01*
X213985858Y-119403748D01*
X213806253Y-119224143D01*
X213820395Y-119210000D01*
X213806253Y-119195858D01*
X213985858Y-119016253D01*
X214000000Y-119030395D01*
X214936745Y-118093650D01*
X214844208Y-117831981D01*
X214252602Y-117613812D01*
X213622539Y-117638648D01*
X213235000Y-117799172D01*
X213235000Y-115554446D01*
X217265000Y-111524446D01*
X217265000Y-117445553D01*
G36*
X208920313Y-110713784D02*
X209084311Y-111110689D01*
X209387714Y-111414622D01*
X209784332Y-111579313D01*
X210213784Y-111579687D01*
X210610689Y-111415689D01*
X210691519Y-111335000D01*
X213423697Y-111335000D01*
X213434311Y-111360689D01*
X213641907Y-111568647D01*
X211445554Y-113765000D01*
X209197229Y-113765000D01*
X209386188Y-113252602D01*
X209361352Y-112622539D01*
X209168019Y-112155792D01*
X208906350Y-112063255D01*
X207969605Y-113000000D01*
X207983748Y-113014143D01*
X207804143Y-113193748D01*
X207790000Y-113179605D01*
X207775858Y-113193748D01*
X207596253Y-113014143D01*
X207610395Y-113000000D01*
X207596253Y-112985858D01*
X207775858Y-112806253D01*
X207790000Y-112820395D01*
X208726745Y-111883650D01*
X208634208Y-111621981D01*
X208042602Y-111403812D01*
X207879193Y-111410253D01*
X208920613Y-110368833D01*
X208920313Y-110713784D01*
X208920313Y-110713784D01*
G37*
X208920313Y-110713784D02*
X209084311Y-111110689D01*
X209387714Y-111414622D01*
X209784332Y-111579313D01*
X210213784Y-111579687D01*
X210610689Y-111415689D01*
X210691519Y-111335000D01*
X213423697Y-111335000D01*
X213434311Y-111360689D01*
X213641907Y-111568647D01*
X211445554Y-113765000D01*
X209197229Y-113765000D01*
X209386188Y-113252602D01*
X209361352Y-112622539D01*
X209168019Y-112155792D01*
X208906350Y-112063255D01*
X207969605Y-113000000D01*
X207983748Y-113014143D01*
X207804143Y-113193748D01*
X207790000Y-113179605D01*
X207775858Y-113193748D01*
X207596253Y-113014143D01*
X207610395Y-113000000D01*
X207596253Y-112985858D01*
X207775858Y-112806253D01*
X207790000Y-112820395D01*
X208726745Y-111883650D01*
X208634208Y-111621981D01*
X208042602Y-111403812D01*
X207879193Y-111410253D01*
X208920613Y-110368833D01*
X208920313Y-110713784D01*
G36*
X214677640Y-98261607D02*
X214677072Y-98911848D01*
X214873445Y-99387108D01*
X213480277Y-100780277D01*
X213320949Y-101018728D01*
X213265000Y-101300000D01*
X213265000Y-102652560D01*
X213000000Y-102652560D01*
X212764683Y-102696838D01*
X212548559Y-102835910D01*
X212403569Y-103048110D01*
X212352560Y-103300000D01*
X212352560Y-105200000D01*
X212396838Y-105435317D01*
X212535910Y-105651441D01*
X212748110Y-105796431D01*
X212846810Y-105816418D01*
X212883648Y-105853256D01*
X212621981Y-105945792D01*
X212403812Y-106537398D01*
X212428648Y-107167461D01*
X212621981Y-107634208D01*
X212883650Y-107726745D01*
X213820395Y-106790000D01*
X213806253Y-106775858D01*
X213985858Y-106596253D01*
X214000000Y-106610395D01*
X214014143Y-106596253D01*
X214193748Y-106775858D01*
X214179605Y-106790000D01*
X215116350Y-107726745D01*
X215378019Y-107634208D01*
X215596188Y-107042602D01*
X215571352Y-106412539D01*
X215378019Y-105945792D01*
X215116352Y-105853256D01*
X215150483Y-105819125D01*
X215235317Y-105803162D01*
X215451441Y-105664090D01*
X215596431Y-105451890D01*
X215647440Y-105200000D01*
X215647440Y-103300000D01*
X215603162Y-103064683D01*
X215464090Y-102848559D01*
X215251890Y-102703569D01*
X215000000Y-102652560D01*
X214735000Y-102652560D01*
X214735000Y-101604446D01*
X216116972Y-100222475D01*
X216635540Y-100222928D01*
X217097538Y-100032035D01*
X216877640Y-100561607D01*
X216877072Y-101211848D01*
X217125384Y-101812809D01*
X217584773Y-102273000D01*
X217776846Y-102352756D01*
X217776846Y-105483707D01*
X216890020Y-106370534D01*
X216636216Y-106370313D01*
X216239311Y-106534311D01*
X215935378Y-106837714D01*
X215770687Y-107234332D01*
X215770313Y-107663784D01*
X215934311Y-108060689D01*
X216138266Y-108265000D01*
X214610075Y-108265000D01*
X214844208Y-108168019D01*
X214936745Y-107906350D01*
X214000000Y-106969605D01*
X213063255Y-107906350D01*
X213155792Y-108168019D01*
X213418774Y-108265000D01*
X209250000Y-108265000D01*
X208968728Y-108320949D01*
X208730276Y-108480277D01*
X205857994Y-111352560D01*
X204300000Y-111352560D01*
X204064683Y-111396838D01*
X203848559Y-111535910D01*
X203703569Y-111748110D01*
X203652560Y-112000000D01*
X203652560Y-112265000D01*
X202000000Y-112265000D01*
X201866755Y-112291504D01*
X202644815Y-111513444D01*
X202779900Y-111315741D01*
X202834384Y-111064579D01*
X202786860Y-110812008D01*
X202644815Y-110597826D01*
X201230602Y-109183613D01*
X201032899Y-109048528D01*
X200835000Y-109005598D01*
X200835000Y-108606871D01*
X200963113Y-108800046D01*
X202399954Y-110236887D01*
X202597657Y-110371972D01*
X202848819Y-110426456D01*
X203101390Y-110378932D01*
X203315572Y-110236887D01*
X204536887Y-109015572D01*
X204671972Y-108817869D01*
X204726456Y-108566707D01*
X204678932Y-108314136D01*
X204655626Y-108278994D01*
X204676685Y-108283183D01*
X205250175Y-108169109D01*
X205736355Y-107844253D01*
X206061211Y-107358073D01*
X206175285Y-106784583D01*
X206102670Y-106419522D01*
X206659378Y-106450846D01*
X207211785Y-106257616D01*
X207224806Y-106248341D01*
X207303214Y-105998615D01*
X206342102Y-105037503D01*
X206327960Y-105051646D01*
X206148355Y-104872041D01*
X206162497Y-104857898D01*
X205201385Y-103896786D01*
X204951659Y-103975194D01*
X204942384Y-103988215D01*
X204749154Y-104540622D01*
X204780478Y-105097330D01*
X204415417Y-105024715D01*
X203841927Y-105138789D01*
X203355747Y-105463645D01*
X203030891Y-105949825D01*
X202916817Y-106523315D01*
X202920179Y-106540215D01*
X202902343Y-106528028D01*
X202651181Y-106473544D01*
X202398610Y-106521068D01*
X202184428Y-106663113D01*
X200963113Y-107884428D01*
X200835000Y-108071927D01*
X200835000Y-107345868D01*
X206840434Y-101340434D01*
X207021440Y-101069540D01*
X207085000Y-100750000D01*
X207085000Y-99015868D01*
X207159566Y-99090434D01*
X207430459Y-99271439D01*
X207750000Y-99335000D01*
X210587050Y-99335000D01*
X210683613Y-99480602D01*
X211579214Y-100376203D01*
X211579214Y-101239918D01*
X211540089Y-101279043D01*
X211449365Y-100822939D01*
X211124509Y-100336759D01*
X210863241Y-100075491D01*
X210377061Y-99750635D01*
X209803571Y-99636561D01*
X209230081Y-99750635D01*
X208743901Y-100075491D01*
X208419045Y-100561671D01*
X208304971Y-101135161D01*
X208378829Y-101506470D01*
X208007520Y-101432612D01*
X207434030Y-101546686D01*
X206947850Y-101871542D01*
X206622994Y-102357722D01*
X206508920Y-102931212D01*
X206581535Y-103296274D01*
X206024826Y-103264950D01*
X205472419Y-103458180D01*
X205459398Y-103467455D01*
X205380990Y-103717181D01*
X206342102Y-104678293D01*
X206356245Y-104664151D01*
X206535850Y-104843756D01*
X206521707Y-104857898D01*
X207450394Y-105786585D01*
X207584311Y-106110689D01*
X207887714Y-106414622D01*
X208284332Y-106579313D01*
X208713784Y-106579687D01*
X209110689Y-106415689D01*
X209414622Y-106112286D01*
X209579313Y-105715668D01*
X209579412Y-105601456D01*
X213004648Y-102176220D01*
X213185654Y-101905326D01*
X213249214Y-101585786D01*
X213249214Y-100659045D01*
X214144815Y-99763444D01*
X214279900Y-99565741D01*
X214334384Y-99314579D01*
X214286860Y-99062008D01*
X214144815Y-98847826D01*
X214028143Y-98731154D01*
X214805422Y-97953874D01*
X214677640Y-98261607D01*
X214677640Y-98261607D01*
G37*
X214677640Y-98261607D02*
X214677072Y-98911848D01*
X214873445Y-99387108D01*
X213480277Y-100780277D01*
X213320949Y-101018728D01*
X213265000Y-101300000D01*
X213265000Y-102652560D01*
X213000000Y-102652560D01*
X212764683Y-102696838D01*
X212548559Y-102835910D01*
X212403569Y-103048110D01*
X212352560Y-103300000D01*
X212352560Y-105200000D01*
X212396838Y-105435317D01*
X212535910Y-105651441D01*
X212748110Y-105796431D01*
X212846810Y-105816418D01*
X212883648Y-105853256D01*
X212621981Y-105945792D01*
X212403812Y-106537398D01*
X212428648Y-107167461D01*
X212621981Y-107634208D01*
X212883650Y-107726745D01*
X213820395Y-106790000D01*
X213806253Y-106775858D01*
X213985858Y-106596253D01*
X214000000Y-106610395D01*
X214014143Y-106596253D01*
X214193748Y-106775858D01*
X214179605Y-106790000D01*
X215116350Y-107726745D01*
X215378019Y-107634208D01*
X215596188Y-107042602D01*
X215571352Y-106412539D01*
X215378019Y-105945792D01*
X215116352Y-105853256D01*
X215150483Y-105819125D01*
X215235317Y-105803162D01*
X215451441Y-105664090D01*
X215596431Y-105451890D01*
X215647440Y-105200000D01*
X215647440Y-103300000D01*
X215603162Y-103064683D01*
X215464090Y-102848559D01*
X215251890Y-102703569D01*
X215000000Y-102652560D01*
X214735000Y-102652560D01*
X214735000Y-101604446D01*
X216116972Y-100222475D01*
X216635540Y-100222928D01*
X217097538Y-100032035D01*
X216877640Y-100561607D01*
X216877072Y-101211848D01*
X217125384Y-101812809D01*
X217584773Y-102273000D01*
X217776846Y-102352756D01*
X217776846Y-105483707D01*
X216890020Y-106370534D01*
X216636216Y-106370313D01*
X216239311Y-106534311D01*
X215935378Y-106837714D01*
X215770687Y-107234332D01*
X215770313Y-107663784D01*
X215934311Y-108060689D01*
X216138266Y-108265000D01*
X214610075Y-108265000D01*
X214844208Y-108168019D01*
X214936745Y-107906350D01*
X214000000Y-106969605D01*
X213063255Y-107906350D01*
X213155792Y-108168019D01*
X213418774Y-108265000D01*
X209250000Y-108265000D01*
X208968728Y-108320949D01*
X208730276Y-108480277D01*
X205857994Y-111352560D01*
X204300000Y-111352560D01*
X204064683Y-111396838D01*
X203848559Y-111535910D01*
X203703569Y-111748110D01*
X203652560Y-112000000D01*
X203652560Y-112265000D01*
X202000000Y-112265000D01*
X201866755Y-112291504D01*
X202644815Y-111513444D01*
X202779900Y-111315741D01*
X202834384Y-111064579D01*
X202786860Y-110812008D01*
X202644815Y-110597826D01*
X201230602Y-109183613D01*
X201032899Y-109048528D01*
X200835000Y-109005598D01*
X200835000Y-108606871D01*
X200963113Y-108800046D01*
X202399954Y-110236887D01*
X202597657Y-110371972D01*
X202848819Y-110426456D01*
X203101390Y-110378932D01*
X203315572Y-110236887D01*
X204536887Y-109015572D01*
X204671972Y-108817869D01*
X204726456Y-108566707D01*
X204678932Y-108314136D01*
X204655626Y-108278994D01*
X204676685Y-108283183D01*
X205250175Y-108169109D01*
X205736355Y-107844253D01*
X206061211Y-107358073D01*
X206175285Y-106784583D01*
X206102670Y-106419522D01*
X206659378Y-106450846D01*
X207211785Y-106257616D01*
X207224806Y-106248341D01*
X207303214Y-105998615D01*
X206342102Y-105037503D01*
X206327960Y-105051646D01*
X206148355Y-104872041D01*
X206162497Y-104857898D01*
X205201385Y-103896786D01*
X204951659Y-103975194D01*
X204942384Y-103988215D01*
X204749154Y-104540622D01*
X204780478Y-105097330D01*
X204415417Y-105024715D01*
X203841927Y-105138789D01*
X203355747Y-105463645D01*
X203030891Y-105949825D01*
X202916817Y-106523315D01*
X202920179Y-106540215D01*
X202902343Y-106528028D01*
X202651181Y-106473544D01*
X202398610Y-106521068D01*
X202184428Y-106663113D01*
X200963113Y-107884428D01*
X200835000Y-108071927D01*
X200835000Y-107345868D01*
X206840434Y-101340434D01*
X207021440Y-101069540D01*
X207085000Y-100750000D01*
X207085000Y-99015868D01*
X207159566Y-99090434D01*
X207430459Y-99271439D01*
X207750000Y-99335000D01*
X210587050Y-99335000D01*
X210683613Y-99480602D01*
X211579214Y-100376203D01*
X211579214Y-101239918D01*
X211540089Y-101279043D01*
X211449365Y-100822939D01*
X211124509Y-100336759D01*
X210863241Y-100075491D01*
X210377061Y-99750635D01*
X209803571Y-99636561D01*
X209230081Y-99750635D01*
X208743901Y-100075491D01*
X208419045Y-100561671D01*
X208304971Y-101135161D01*
X208378829Y-101506470D01*
X208007520Y-101432612D01*
X207434030Y-101546686D01*
X206947850Y-101871542D01*
X206622994Y-102357722D01*
X206508920Y-102931212D01*
X206581535Y-103296274D01*
X206024826Y-103264950D01*
X205472419Y-103458180D01*
X205459398Y-103467455D01*
X205380990Y-103717181D01*
X206342102Y-104678293D01*
X206356245Y-104664151D01*
X206535850Y-104843756D01*
X206521707Y-104857898D01*
X207450394Y-105786585D01*
X207584311Y-106110689D01*
X207887714Y-106414622D01*
X208284332Y-106579313D01*
X208713784Y-106579687D01*
X209110689Y-106415689D01*
X209414622Y-106112286D01*
X209579313Y-105715668D01*
X209579412Y-105601456D01*
X213004648Y-102176220D01*
X213185654Y-101905326D01*
X213249214Y-101585786D01*
X213249214Y-100659045D01*
X214144815Y-99763444D01*
X214279900Y-99565741D01*
X214334384Y-99314579D01*
X214286860Y-99062008D01*
X214144815Y-98847826D01*
X214028143Y-98731154D01*
X214805422Y-97953874D01*
X214677640Y-98261607D01*
G36*
X216080277Y-91519724D02*
X216318728Y-91679051D01*
X216600000Y-91735000D01*
X220965421Y-91735000D01*
X220775345Y-91813538D01*
X220315154Y-92272927D01*
X220065794Y-92873453D01*
X220065226Y-93523694D01*
X220313538Y-94124655D01*
X220772927Y-94584846D01*
X221373453Y-94834206D01*
X222023694Y-94834774D01*
X222485692Y-94643881D01*
X222265794Y-95173453D01*
X222265226Y-95823694D01*
X222513538Y-96424655D01*
X222972927Y-96884846D01*
X223573453Y-97134206D01*
X224223694Y-97134774D01*
X224824655Y-96886462D01*
X225284846Y-96427073D01*
X225534206Y-95826547D01*
X225534774Y-95176306D01*
X225533306Y-95172752D01*
X226665000Y-96304447D01*
X226665000Y-97753457D01*
X226465668Y-97670687D01*
X226036216Y-97670313D01*
X225639311Y-97834311D01*
X225335378Y-98137714D01*
X225170687Y-98534332D01*
X225170568Y-98670430D01*
X225036216Y-98670313D01*
X224639311Y-98834311D01*
X224335378Y-99137714D01*
X224170687Y-99534332D01*
X224170313Y-99963784D01*
X224265763Y-100194790D01*
X219246846Y-105213708D01*
X219246846Y-102352980D01*
X219436501Y-102274616D01*
X219896692Y-101815227D01*
X220146052Y-101214701D01*
X220146389Y-100829411D01*
X220463784Y-100829687D01*
X220860689Y-100665689D01*
X221164622Y-100362286D01*
X221329313Y-99965668D01*
X221329687Y-99536216D01*
X221165689Y-99139311D01*
X220862286Y-98835378D01*
X220585000Y-98720238D01*
X220585000Y-95500000D01*
X220521439Y-95180459D01*
X220340434Y-94909566D01*
X219590434Y-94159566D01*
X219521548Y-94113538D01*
X219319541Y-93978561D01*
X219000000Y-93915000D01*
X217750000Y-93915000D01*
X217430460Y-93978560D01*
X217159566Y-94159565D01*
X215647440Y-95671692D01*
X215647440Y-94350000D01*
X215603162Y-94114683D01*
X215464090Y-93898559D01*
X215251890Y-93753569D01*
X215153190Y-93733582D01*
X215116352Y-93696744D01*
X215378019Y-93604208D01*
X215596188Y-93012602D01*
X215571352Y-92382539D01*
X215378019Y-91915792D01*
X215116350Y-91823255D01*
X214179605Y-92760000D01*
X214193748Y-92774143D01*
X214014143Y-92953748D01*
X214000000Y-92939605D01*
X213985858Y-92953748D01*
X213806253Y-92774143D01*
X213820395Y-92760000D01*
X212883650Y-91823255D01*
X212621981Y-91915792D01*
X212403812Y-92507398D01*
X212428648Y-93137461D01*
X212621981Y-93604208D01*
X212883648Y-93696744D01*
X212849517Y-93730875D01*
X212764683Y-93746838D01*
X212548559Y-93885910D01*
X212403569Y-94098110D01*
X212352560Y-94350000D01*
X212352560Y-96250000D01*
X212396838Y-96485317D01*
X212535910Y-96701441D01*
X212748110Y-96846431D01*
X213000000Y-96897440D01*
X213500120Y-96897440D01*
X212847275Y-97550286D01*
X212730602Y-97433613D01*
X212532899Y-97298528D01*
X212281737Y-97244044D01*
X212029166Y-97291568D01*
X211814984Y-97433613D01*
X211583597Y-97665000D01*
X210539850Y-97665000D01*
X210539850Y-97469455D01*
X209585786Y-96515391D01*
X208773144Y-97328034D01*
X208773144Y-97552540D01*
X208885604Y-97665000D01*
X208095868Y-97665000D01*
X206694553Y-96263685D01*
X206675758Y-96169195D01*
X207047067Y-96243053D01*
X207620557Y-96128979D01*
X207677994Y-96090601D01*
X207677994Y-96320674D01*
X207774667Y-96554063D01*
X208369032Y-97148428D01*
X208593538Y-97148428D01*
X209406181Y-96335786D01*
X209765391Y-96335786D01*
X210719455Y-97289850D01*
X210943961Y-97289850D01*
X211218277Y-97015534D01*
X211396906Y-96836906D01*
X211493578Y-96603516D01*
X211493578Y-96350898D01*
X211396905Y-96117509D01*
X210802540Y-95523144D01*
X210578034Y-95523144D01*
X209765391Y-96335786D01*
X209406181Y-96335786D01*
X209392039Y-96321644D01*
X209571644Y-96142039D01*
X209585786Y-96156181D01*
X210398428Y-95343538D01*
X210398428Y-95119032D01*
X209804063Y-94524667D01*
X209570674Y-94427994D01*
X209318056Y-94427994D01*
X209084666Y-94524666D01*
X208906038Y-94703295D01*
X208631722Y-94977611D01*
X208631722Y-95202114D01*
X208519470Y-95089862D01*
X208466406Y-95142926D01*
X208545667Y-94744453D01*
X208431593Y-94170963D01*
X208106737Y-93684783D01*
X208065217Y-93643263D01*
X207579037Y-93318407D01*
X207005547Y-93204333D01*
X206686068Y-93267881D01*
X206749616Y-92948401D01*
X206635542Y-92374911D01*
X206310686Y-91888731D01*
X206269166Y-91847211D01*
X206101231Y-91735000D01*
X208800000Y-91735000D01*
X209081272Y-91679051D01*
X209134253Y-91643650D01*
X213063255Y-91643650D01*
X214000000Y-92580395D01*
X214936745Y-91643650D01*
X214844208Y-91381981D01*
X214252602Y-91163812D01*
X213622539Y-91188648D01*
X213155792Y-91381981D01*
X213063255Y-91643650D01*
X209134253Y-91643650D01*
X209319723Y-91519723D01*
X210104447Y-90735000D01*
X215295554Y-90735000D01*
X216080277Y-91519724D01*
X216080277Y-91519724D01*
G37*
X216080277Y-91519724D02*
X216318728Y-91679051D01*
X216600000Y-91735000D01*
X220965421Y-91735000D01*
X220775345Y-91813538D01*
X220315154Y-92272927D01*
X220065794Y-92873453D01*
X220065226Y-93523694D01*
X220313538Y-94124655D01*
X220772927Y-94584846D01*
X221373453Y-94834206D01*
X222023694Y-94834774D01*
X222485692Y-94643881D01*
X222265794Y-95173453D01*
X222265226Y-95823694D01*
X222513538Y-96424655D01*
X222972927Y-96884846D01*
X223573453Y-97134206D01*
X224223694Y-97134774D01*
X224824655Y-96886462D01*
X225284846Y-96427073D01*
X225534206Y-95826547D01*
X225534774Y-95176306D01*
X225533306Y-95172752D01*
X226665000Y-96304447D01*
X226665000Y-97753457D01*
X226465668Y-97670687D01*
X226036216Y-97670313D01*
X225639311Y-97834311D01*
X225335378Y-98137714D01*
X225170687Y-98534332D01*
X225170568Y-98670430D01*
X225036216Y-98670313D01*
X224639311Y-98834311D01*
X224335378Y-99137714D01*
X224170687Y-99534332D01*
X224170313Y-99963784D01*
X224265763Y-100194790D01*
X219246846Y-105213708D01*
X219246846Y-102352980D01*
X219436501Y-102274616D01*
X219896692Y-101815227D01*
X220146052Y-101214701D01*
X220146389Y-100829411D01*
X220463784Y-100829687D01*
X220860689Y-100665689D01*
X221164622Y-100362286D01*
X221329313Y-99965668D01*
X221329687Y-99536216D01*
X221165689Y-99139311D01*
X220862286Y-98835378D01*
X220585000Y-98720238D01*
X220585000Y-95500000D01*
X220521439Y-95180459D01*
X220340434Y-94909566D01*
X219590434Y-94159566D01*
X219521548Y-94113538D01*
X219319541Y-93978561D01*
X219000000Y-93915000D01*
X217750000Y-93915000D01*
X217430460Y-93978560D01*
X217159566Y-94159565D01*
X215647440Y-95671692D01*
X215647440Y-94350000D01*
X215603162Y-94114683D01*
X215464090Y-93898559D01*
X215251890Y-93753569D01*
X215153190Y-93733582D01*
X215116352Y-93696744D01*
X215378019Y-93604208D01*
X215596188Y-93012602D01*
X215571352Y-92382539D01*
X215378019Y-91915792D01*
X215116350Y-91823255D01*
X214179605Y-92760000D01*
X214193748Y-92774143D01*
X214014143Y-92953748D01*
X214000000Y-92939605D01*
X213985858Y-92953748D01*
X213806253Y-92774143D01*
X213820395Y-92760000D01*
X212883650Y-91823255D01*
X212621981Y-91915792D01*
X212403812Y-92507398D01*
X212428648Y-93137461D01*
X212621981Y-93604208D01*
X212883648Y-93696744D01*
X212849517Y-93730875D01*
X212764683Y-93746838D01*
X212548559Y-93885910D01*
X212403569Y-94098110D01*
X212352560Y-94350000D01*
X212352560Y-96250000D01*
X212396838Y-96485317D01*
X212535910Y-96701441D01*
X212748110Y-96846431D01*
X213000000Y-96897440D01*
X213500120Y-96897440D01*
X212847275Y-97550286D01*
X212730602Y-97433613D01*
X212532899Y-97298528D01*
X212281737Y-97244044D01*
X212029166Y-97291568D01*
X211814984Y-97433613D01*
X211583597Y-97665000D01*
X210539850Y-97665000D01*
X210539850Y-97469455D01*
X209585786Y-96515391D01*
X208773144Y-97328034D01*
X208773144Y-97552540D01*
X208885604Y-97665000D01*
X208095868Y-97665000D01*
X206694553Y-96263685D01*
X206675758Y-96169195D01*
X207047067Y-96243053D01*
X207620557Y-96128979D01*
X207677994Y-96090601D01*
X207677994Y-96320674D01*
X207774667Y-96554063D01*
X208369032Y-97148428D01*
X208593538Y-97148428D01*
X209406181Y-96335786D01*
X209765391Y-96335786D01*
X210719455Y-97289850D01*
X210943961Y-97289850D01*
X211218277Y-97015534D01*
X211396906Y-96836906D01*
X211493578Y-96603516D01*
X211493578Y-96350898D01*
X211396905Y-96117509D01*
X210802540Y-95523144D01*
X210578034Y-95523144D01*
X209765391Y-96335786D01*
X209406181Y-96335786D01*
X209392039Y-96321644D01*
X209571644Y-96142039D01*
X209585786Y-96156181D01*
X210398428Y-95343538D01*
X210398428Y-95119032D01*
X209804063Y-94524667D01*
X209570674Y-94427994D01*
X209318056Y-94427994D01*
X209084666Y-94524666D01*
X208906038Y-94703295D01*
X208631722Y-94977611D01*
X208631722Y-95202114D01*
X208519470Y-95089862D01*
X208466406Y-95142926D01*
X208545667Y-94744453D01*
X208431593Y-94170963D01*
X208106737Y-93684783D01*
X208065217Y-93643263D01*
X207579037Y-93318407D01*
X207005547Y-93204333D01*
X206686068Y-93267881D01*
X206749616Y-92948401D01*
X206635542Y-92374911D01*
X206310686Y-91888731D01*
X206269166Y-91847211D01*
X206101231Y-91735000D01*
X208800000Y-91735000D01*
X209081272Y-91679051D01*
X209134253Y-91643650D01*
X213063255Y-91643650D01*
X214000000Y-92580395D01*
X214936745Y-91643650D01*
X214844208Y-91381981D01*
X214252602Y-91163812D01*
X213622539Y-91188648D01*
X213155792Y-91381981D01*
X213063255Y-91643650D01*
X209134253Y-91643650D01*
X209319723Y-91519723D01*
X210104447Y-90735000D01*
X215295554Y-90735000D01*
X216080277Y-91519724D01*
M02*
