G04 #@! TF.FileFunction,Copper,L2,Bot,Signal*
%FSLAX46Y46*%
G04 Gerber Fmt 4.6, Leading zero omitted, Abs format (unit mm)*
G04 Created by KiCad (PCBNEW 4.0.5) date 01/04/17 16:28:53*
%MOMM*%
%LPD*%
G01*
G04 APERTURE LIST*
%ADD10C,0.100000*%
%ADD11C,1.998980*%
%ADD12C,2.500000*%
%ADD13C,1.727200*%
%ADD14R,2.000000X1.900000*%
%ADD15C,1.900000*%
%ADD16R,1.900000X2.000000*%
%ADD17C,0.889000*%
%ADD18C,0.200000*%
%ADD19C,0.500000*%
%ADD20C,0.250000*%
%ADD21C,0.400000*%
%ADD22C,0.254000*%
G04 APERTURE END LIST*
D10*
D11*
X201900000Y-117550000D03*
X196511846Y-122938154D03*
D12*
X197800000Y-96200000D03*
X230600000Y-96600000D03*
X198200000Y-129800000D03*
D10*
G36*
X223287006Y-97405635D02*
X222155635Y-98537006D01*
X220741422Y-97122793D01*
X221872793Y-95991422D01*
X223287006Y-97405635D01*
X223287006Y-97405635D01*
G37*
G36*
X220458578Y-94577207D02*
X219327207Y-95708578D01*
X217912994Y-94294365D01*
X219044365Y-93162994D01*
X220458578Y-94577207D01*
X220458578Y-94577207D01*
G37*
D11*
X221700000Y-93200000D03*
X216311846Y-98588154D03*
D10*
G36*
X199737006Y-121055635D02*
X198605635Y-122187006D01*
X197191422Y-120772793D01*
X198322793Y-119641422D01*
X199737006Y-121055635D01*
X199737006Y-121055635D01*
G37*
G36*
X196908578Y-118227207D02*
X195777207Y-119358578D01*
X194362994Y-117944365D01*
X195494365Y-116812994D01*
X196908578Y-118227207D01*
X196908578Y-118227207D01*
G37*
G36*
X201420922Y-108342237D02*
X202642237Y-107120922D01*
X204079078Y-108557763D01*
X202857763Y-109779078D01*
X201420922Y-108342237D01*
X201420922Y-108342237D01*
G37*
D13*
X204438288Y-106546186D02*
X204653814Y-106761712D01*
X206234339Y-104750135D02*
X206449865Y-104965661D01*
X208030391Y-102954083D02*
X208245917Y-103169609D01*
X209826442Y-101158032D02*
X210041968Y-101373558D01*
D10*
G36*
X207645727Y-124233309D02*
X207221463Y-124657573D01*
X206160803Y-123596913D01*
X206585067Y-123172649D01*
X207645727Y-124233309D01*
X207645727Y-124233309D01*
G37*
G36*
X206747702Y-125131335D02*
X206323438Y-125555599D01*
X205262778Y-124494939D01*
X205687042Y-124070675D01*
X206747702Y-125131335D01*
X206747702Y-125131335D01*
G37*
G36*
X205849676Y-126029361D02*
X205425412Y-126453625D01*
X204364752Y-125392965D01*
X204789016Y-124968701D01*
X205849676Y-126029361D01*
X205849676Y-126029361D01*
G37*
G36*
X204951650Y-126927386D02*
X204527386Y-127351650D01*
X203466726Y-126290990D01*
X203890990Y-125866726D01*
X204951650Y-126927386D01*
X204951650Y-126927386D01*
G37*
G36*
X204053625Y-127825412D02*
X203629361Y-128249676D01*
X202568701Y-127189016D01*
X202992965Y-126764752D01*
X204053625Y-127825412D01*
X204053625Y-127825412D01*
G37*
G36*
X203155599Y-128723438D02*
X202731335Y-129147702D01*
X201670675Y-128087042D01*
X202094939Y-127662778D01*
X203155599Y-128723438D01*
X203155599Y-128723438D01*
G37*
G36*
X202257573Y-129621463D02*
X201833309Y-130045727D01*
X200772649Y-128985067D01*
X201196913Y-128560803D01*
X202257573Y-129621463D01*
X202257573Y-129621463D01*
G37*
G36*
X198439197Y-125803087D02*
X198014933Y-126227351D01*
X196954273Y-125166691D01*
X197378537Y-124742427D01*
X198439197Y-125803087D01*
X198439197Y-125803087D01*
G37*
G36*
X199337222Y-124905061D02*
X198912958Y-125329325D01*
X197852298Y-124268665D01*
X198276562Y-123844401D01*
X199337222Y-124905061D01*
X199337222Y-124905061D01*
G37*
G36*
X200235248Y-124007035D02*
X199810984Y-124431299D01*
X198750324Y-123370639D01*
X199174588Y-122946375D01*
X200235248Y-124007035D01*
X200235248Y-124007035D01*
G37*
G36*
X201133274Y-123109010D02*
X200709010Y-123533274D01*
X199648350Y-122472614D01*
X200072614Y-122048350D01*
X201133274Y-123109010D01*
X201133274Y-123109010D01*
G37*
G36*
X202031299Y-122210984D02*
X201607035Y-122635248D01*
X200546375Y-121574588D01*
X200970639Y-121150324D01*
X202031299Y-122210984D01*
X202031299Y-122210984D01*
G37*
G36*
X202929325Y-121312958D02*
X202505061Y-121737222D01*
X201444401Y-120676562D01*
X201868665Y-120252298D01*
X202929325Y-121312958D01*
X202929325Y-121312958D01*
G37*
G36*
X203827351Y-120414933D02*
X203403087Y-120839197D01*
X202342427Y-119778537D01*
X202766691Y-119354273D01*
X203827351Y-120414933D01*
X203827351Y-120414933D01*
G37*
D11*
X233850000Y-105250000D03*
X228461846Y-110638154D03*
X194300000Y-120700000D03*
X199688154Y-115311846D03*
D10*
G36*
X197471315Y-105500000D02*
X196250000Y-106721315D01*
X195028685Y-105500000D01*
X196250000Y-104278685D01*
X197471315Y-105500000D01*
X197471315Y-105500000D01*
G37*
D13*
X194453949Y-103703949D02*
X194453949Y-103703949D01*
X198046051Y-103703949D02*
X198046051Y-103703949D01*
X196250000Y-101907898D02*
X196250000Y-101907898D01*
X199842102Y-101907898D02*
X199842102Y-101907898D01*
X198046051Y-100111846D02*
X198046051Y-100111846D01*
X201638154Y-100111846D02*
X201638154Y-100111846D01*
X199842102Y-98315795D02*
X199842102Y-98315795D01*
X203434205Y-98315795D02*
X203434205Y-98315795D01*
X201638154Y-96519744D02*
X201638154Y-96519744D01*
X205230256Y-96519744D02*
X205230256Y-96519744D01*
X203434205Y-94723693D02*
X203434205Y-94723693D01*
X207026307Y-94723693D02*
X207026307Y-94723693D01*
X205230256Y-92927641D02*
X205230256Y-92927641D01*
D11*
X231850000Y-123100000D03*
X226461846Y-117711846D03*
D10*
G36*
X223933309Y-117904273D02*
X224357573Y-118328537D01*
X223296913Y-119389197D01*
X222872649Y-118964933D01*
X223933309Y-117904273D01*
X223933309Y-117904273D01*
G37*
G36*
X224831335Y-118802298D02*
X225255599Y-119226562D01*
X224194939Y-120287222D01*
X223770675Y-119862958D01*
X224831335Y-118802298D01*
X224831335Y-118802298D01*
G37*
G36*
X225729361Y-119700324D02*
X226153625Y-120124588D01*
X225092965Y-121185248D01*
X224668701Y-120760984D01*
X225729361Y-119700324D01*
X225729361Y-119700324D01*
G37*
G36*
X226627386Y-120598350D02*
X227051650Y-121022614D01*
X225990990Y-122083274D01*
X225566726Y-121659010D01*
X226627386Y-120598350D01*
X226627386Y-120598350D01*
G37*
G36*
X227525412Y-121496375D02*
X227949676Y-121920639D01*
X226889016Y-122981299D01*
X226464752Y-122557035D01*
X227525412Y-121496375D01*
X227525412Y-121496375D01*
G37*
G36*
X228423438Y-122394401D02*
X228847702Y-122818665D01*
X227787042Y-123879325D01*
X227362778Y-123455061D01*
X228423438Y-122394401D01*
X228423438Y-122394401D01*
G37*
G36*
X229321463Y-123292427D02*
X229745727Y-123716691D01*
X228685067Y-124777351D01*
X228260803Y-124353087D01*
X229321463Y-123292427D01*
X229321463Y-123292427D01*
G37*
G36*
X225503087Y-127110803D02*
X225927351Y-127535067D01*
X224866691Y-128595727D01*
X224442427Y-128171463D01*
X225503087Y-127110803D01*
X225503087Y-127110803D01*
G37*
G36*
X224605061Y-126212778D02*
X225029325Y-126637042D01*
X223968665Y-127697702D01*
X223544401Y-127273438D01*
X224605061Y-126212778D01*
X224605061Y-126212778D01*
G37*
G36*
X223707035Y-125314752D02*
X224131299Y-125739016D01*
X223070639Y-126799676D01*
X222646375Y-126375412D01*
X223707035Y-125314752D01*
X223707035Y-125314752D01*
G37*
G36*
X222809010Y-124416726D02*
X223233274Y-124840990D01*
X222172614Y-125901650D01*
X221748350Y-125477386D01*
X222809010Y-124416726D01*
X222809010Y-124416726D01*
G37*
G36*
X221910984Y-123518701D02*
X222335248Y-123942965D01*
X221274588Y-125003625D01*
X220850324Y-124579361D01*
X221910984Y-123518701D01*
X221910984Y-123518701D01*
G37*
G36*
X221012958Y-122620675D02*
X221437222Y-123044939D01*
X220376562Y-124105599D01*
X219952298Y-123681335D01*
X221012958Y-122620675D01*
X221012958Y-122620675D01*
G37*
G36*
X220114933Y-121722649D02*
X220539197Y-122146913D01*
X219478537Y-123207573D01*
X219054273Y-122783309D01*
X220114933Y-121722649D01*
X220114933Y-121722649D01*
G37*
G36*
X204812994Y-128544365D02*
X205944365Y-127412994D01*
X207358578Y-128827207D01*
X206227207Y-129958578D01*
X204812994Y-128544365D01*
X204812994Y-128544365D01*
G37*
G36*
X207641422Y-131372793D02*
X208772793Y-130241422D01*
X210187006Y-131655635D01*
X209055635Y-132787006D01*
X207641422Y-131372793D01*
X207641422Y-131372793D01*
G37*
G36*
X228562994Y-104894365D02*
X229694365Y-103762994D01*
X231108578Y-105177207D01*
X229977207Y-106308578D01*
X228562994Y-104894365D01*
X228562994Y-104894365D01*
G37*
G36*
X231391422Y-107722793D02*
X232522793Y-106591422D01*
X233937006Y-108005635D01*
X232805635Y-109137006D01*
X231391422Y-107722793D01*
X231391422Y-107722793D01*
G37*
D14*
X214000000Y-104250000D03*
D15*
X214000000Y-106790000D03*
D16*
X205250000Y-113000000D03*
D15*
X207790000Y-113000000D03*
D16*
X222750000Y-113000000D03*
D15*
X220210000Y-113000000D03*
D14*
X214000000Y-121750000D03*
D15*
X214000000Y-119210000D03*
D14*
X214000000Y-95300000D03*
D15*
X214000000Y-92760000D03*
D16*
X231700000Y-113000000D03*
D15*
X234240000Y-113000000D03*
D16*
X196300000Y-113000000D03*
D15*
X193760000Y-113000000D03*
D14*
X214000000Y-130700000D03*
D15*
X214000000Y-133240000D03*
D11*
X223900000Y-95500000D03*
X218511846Y-100888154D03*
X226250000Y-108400000D03*
X231638154Y-103011846D03*
X204050000Y-130650000D03*
X209438154Y-125261846D03*
X206250000Y-132850000D03*
X211638154Y-127461846D03*
X234050000Y-120900000D03*
X228661846Y-115511846D03*
X224300000Y-130750000D03*
X218911846Y-125361846D03*
X222100000Y-132950000D03*
X216711846Y-127561846D03*
D10*
G36*
X219154273Y-102966691D02*
X219578537Y-102542427D01*
X220639197Y-103603087D01*
X220214933Y-104027351D01*
X219154273Y-102966691D01*
X219154273Y-102966691D01*
G37*
G36*
X220052298Y-102068665D02*
X220476562Y-101644401D01*
X221537222Y-102705061D01*
X221112958Y-103129325D01*
X220052298Y-102068665D01*
X220052298Y-102068665D01*
G37*
G36*
X220950324Y-101170639D02*
X221374588Y-100746375D01*
X222435248Y-101807035D01*
X222010984Y-102231299D01*
X220950324Y-101170639D01*
X220950324Y-101170639D01*
G37*
G36*
X221848350Y-100272614D02*
X222272614Y-99848350D01*
X223333274Y-100909010D01*
X222909010Y-101333274D01*
X221848350Y-100272614D01*
X221848350Y-100272614D01*
G37*
G36*
X222746375Y-99374588D02*
X223170639Y-98950324D01*
X224231299Y-100010984D01*
X223807035Y-100435248D01*
X222746375Y-99374588D01*
X222746375Y-99374588D01*
G37*
G36*
X223644401Y-98476562D02*
X224068665Y-98052298D01*
X225129325Y-99112958D01*
X224705061Y-99537222D01*
X223644401Y-98476562D01*
X223644401Y-98476562D01*
G37*
G36*
X224542427Y-97578537D02*
X224966691Y-97154273D01*
X226027351Y-98214933D01*
X225603087Y-98639197D01*
X224542427Y-97578537D01*
X224542427Y-97578537D01*
G37*
G36*
X228360803Y-101396913D02*
X228785067Y-100972649D01*
X229845727Y-102033309D01*
X229421463Y-102457573D01*
X228360803Y-101396913D01*
X228360803Y-101396913D01*
G37*
G36*
X227462778Y-102294939D02*
X227887042Y-101870675D01*
X228947702Y-102931335D01*
X228523438Y-103355599D01*
X227462778Y-102294939D01*
X227462778Y-102294939D01*
G37*
G36*
X226564752Y-103192965D02*
X226989016Y-102768701D01*
X228049676Y-103829361D01*
X227625412Y-104253625D01*
X226564752Y-103192965D01*
X226564752Y-103192965D01*
G37*
G36*
X225666726Y-104090990D02*
X226090990Y-103666726D01*
X227151650Y-104727386D01*
X226727386Y-105151650D01*
X225666726Y-104090990D01*
X225666726Y-104090990D01*
G37*
G36*
X224768701Y-104989016D02*
X225192965Y-104564752D01*
X226253625Y-105625412D01*
X225829361Y-106049676D01*
X224768701Y-104989016D01*
X224768701Y-104989016D01*
G37*
G36*
X223870675Y-105887042D02*
X224294939Y-105462778D01*
X225355599Y-106523438D01*
X224931335Y-106947702D01*
X223870675Y-105887042D01*
X223870675Y-105887042D01*
G37*
G36*
X222972649Y-106785067D02*
X223396913Y-106360803D01*
X224457573Y-107421463D01*
X224033309Y-107845727D01*
X222972649Y-106785067D01*
X222972649Y-106785067D01*
G37*
D17*
X208050000Y-121150000D03*
X210500000Y-118600000D03*
X219450000Y-111000000D03*
X216850000Y-107450000D03*
X209600000Y-117850000D03*
X207000000Y-120450000D03*
X225250000Y-99750000D03*
X226250000Y-98750000D03*
X228250000Y-100750000D03*
X227250000Y-101750000D03*
X200800000Y-119600000D03*
X220250000Y-99750000D03*
X208500000Y-105500000D03*
X210000000Y-110500000D03*
X214350000Y-110750000D03*
X221250000Y-117500000D03*
X223500000Y-122500000D03*
X222500000Y-120000000D03*
X200750000Y-124750000D03*
X221000000Y-121500000D03*
X195300000Y-127000000D03*
D18*
X206903265Y-122296735D02*
X206903265Y-123915111D01*
X208050000Y-121150000D02*
X206903265Y-122296735D01*
X210500000Y-118550000D02*
X210500000Y-118600000D01*
X211400000Y-117650000D02*
X210500000Y-118550000D01*
X211400000Y-111800000D02*
X211400000Y-117650000D01*
X213250000Y-109950000D02*
X211400000Y-111800000D01*
X218400000Y-109950000D02*
X213250000Y-109950000D01*
X219450000Y-111000000D02*
X218400000Y-109950000D01*
X226250000Y-108400000D02*
X225011846Y-108400000D01*
X225011846Y-108400000D02*
X223715111Y-107103265D01*
X226250000Y-108400000D02*
X226471572Y-108400000D01*
X226471572Y-108400000D02*
X229835786Y-105035786D01*
X206903265Y-123915111D02*
X206903265Y-123596735D01*
X229835786Y-105035786D02*
X229835786Y-105164214D01*
X229835786Y-105035786D02*
X229835786Y-104764214D01*
X216311846Y-98588154D02*
X216311846Y-101011846D01*
X221400000Y-102992103D02*
X220794760Y-102386863D01*
X221400000Y-104200000D02*
X221400000Y-102992103D01*
X220800000Y-104800000D02*
X221400000Y-104200000D01*
X219500000Y-104800000D02*
X220800000Y-104800000D01*
X218000000Y-103300000D02*
X219500000Y-104800000D01*
X218000000Y-102700000D02*
X218000000Y-103300000D01*
X216311846Y-101011846D02*
X218000000Y-102700000D01*
X216311846Y-98588154D02*
X216311846Y-97309726D01*
X216311846Y-97309726D02*
X219185786Y-94435786D01*
X219185786Y-94435786D02*
X219185786Y-95064214D01*
X206005240Y-124813137D02*
X206005240Y-124755240D01*
X206005240Y-124755240D02*
X205350000Y-124100000D01*
X215300000Y-109000000D02*
X216850000Y-107450000D01*
X213000000Y-109000000D02*
X215300000Y-109000000D01*
X210650000Y-111350000D02*
X213000000Y-109000000D01*
X210650000Y-116800000D02*
X210650000Y-111350000D01*
X209600000Y-117850000D02*
X210650000Y-116800000D01*
X205350000Y-122100000D02*
X207000000Y-120450000D01*
X205350000Y-124100000D02*
X205350000Y-122100000D01*
X218511846Y-100888154D02*
X218511846Y-99788154D01*
X218511846Y-99788154D02*
X221035786Y-97264214D01*
X221035786Y-97264214D02*
X222014214Y-97264214D01*
X218511846Y-100888154D02*
X218511846Y-101900000D01*
X218511846Y-101900000D02*
X219896735Y-103284889D01*
X222014214Y-97264214D02*
X221985786Y-97264214D01*
X206005240Y-124755240D02*
X205750000Y-124500000D01*
X205500000Y-124307897D02*
X206005240Y-124813137D01*
D19*
X222014214Y-97264214D02*
X222035786Y-97264214D01*
D18*
X199688154Y-115311846D02*
X198409726Y-115311846D01*
X198409726Y-115311846D02*
X195635786Y-118085786D01*
X224386863Y-98794760D02*
X224386863Y-98886863D01*
X224386863Y-98886863D02*
X225250000Y-99750000D01*
X195635786Y-118085786D02*
X195914214Y-118085786D01*
X201900000Y-117550000D02*
X201900000Y-117700000D01*
X201900000Y-117700000D02*
X204895998Y-120695998D01*
X203550000Y-125950000D02*
X204209188Y-126609188D01*
X203550000Y-125600000D02*
X203550000Y-125950000D01*
X204895998Y-124254002D02*
X203550000Y-125600000D01*
X204895998Y-120695998D02*
X204895998Y-124254002D01*
X204209188Y-126609188D02*
X204209188Y-126559188D01*
X201900000Y-117550000D02*
X200950000Y-117550000D01*
X200950000Y-117550000D02*
X198464214Y-120035786D01*
X198464214Y-120035786D02*
X198464214Y-120914214D01*
X198464214Y-120914214D02*
X198464214Y-120785786D01*
X198464214Y-120914214D02*
X198585786Y-120914214D01*
X225284889Y-97896735D02*
X225396735Y-97896735D01*
X225396735Y-97896735D02*
X226250000Y-98750000D01*
X204209188Y-126609188D02*
X204109188Y-126609188D01*
X224613137Y-106205240D02*
X224613137Y-106113137D01*
X224613137Y-106113137D02*
X224000000Y-105500000D01*
X224000000Y-105500000D02*
X223050000Y-105500000D01*
X223050000Y-105500000D02*
X222200000Y-106350000D01*
X222200000Y-106350000D02*
X222200000Y-107200000D01*
X222200000Y-107200000D02*
X223700000Y-108700000D01*
X223700000Y-108700000D02*
X224400000Y-108700000D01*
X224400000Y-108700000D02*
X226000000Y-110300000D01*
X226000000Y-110300000D02*
X228123692Y-110300000D01*
X228123692Y-110300000D02*
X228461846Y-110638154D01*
X228461846Y-110638154D02*
X228461846Y-110888154D01*
X228461846Y-110638154D02*
X229890274Y-110638154D01*
X229890274Y-110638154D02*
X232664214Y-107864214D01*
X206085786Y-128685786D02*
X206085786Y-126689735D01*
X206085786Y-126689735D02*
X205107214Y-125711163D01*
X209438154Y-125261846D02*
X209438154Y-125333418D01*
X209438154Y-125333418D02*
X206085786Y-128685786D01*
X229103265Y-101603265D02*
X228250000Y-100750000D01*
X229103265Y-101715111D02*
X229103265Y-101603265D01*
X206035786Y-128835786D02*
X206164214Y-128835786D01*
X208914214Y-131514214D02*
X208914214Y-130185786D01*
X208914214Y-130185786D02*
X211638154Y-127461846D01*
X228205240Y-102613137D02*
X228113137Y-102613137D01*
X228113137Y-102613137D02*
X227250000Y-101750000D01*
D20*
X206342102Y-104857898D02*
X206134206Y-104857898D01*
D21*
X202186863Y-120994760D02*
X202186863Y-120986863D01*
X202186863Y-120986863D02*
X200800000Y-119600000D01*
X203084889Y-120096735D02*
X203084888Y-120096735D01*
X203084888Y-120096735D02*
X202186863Y-120994760D01*
X222390812Y-100440812D02*
X221800000Y-99850000D01*
X221800000Y-99850000D02*
X220250000Y-99750000D01*
D18*
X226309188Y-121340812D02*
X226309188Y-121440812D01*
D21*
X226309188Y-121440812D02*
X225250000Y-122500000D01*
D18*
X208500000Y-105250000D02*
X208500000Y-105500000D01*
D21*
X208500000Y-109000000D02*
X208500000Y-105250000D01*
X210000000Y-110500000D02*
X208500000Y-109000000D01*
X217000000Y-114750000D02*
X214350000Y-110750000D01*
X220250000Y-114750000D02*
X217000000Y-114750000D01*
X221250000Y-115750000D02*
X220250000Y-114750000D01*
X221250000Y-117500000D02*
X221250000Y-115750000D01*
X225250000Y-122500000D02*
X223500000Y-122500000D01*
D18*
X222590812Y-100590812D02*
X222390812Y-100440812D01*
X226309188Y-121340812D02*
X226159188Y-121340812D01*
X226461846Y-117711846D02*
X226461846Y-117361846D01*
X226461846Y-117361846D02*
X224700000Y-115600000D01*
X214000000Y-100950000D02*
X214000000Y-95300000D01*
X217100000Y-104050000D02*
X214000000Y-100950000D01*
X217100000Y-105700000D02*
X217100000Y-104050000D01*
X222250000Y-110850000D02*
X217100000Y-105700000D01*
X223200000Y-110850000D02*
X222250000Y-110850000D01*
X224700000Y-112350000D02*
X223200000Y-110850000D01*
X224700000Y-115600000D02*
X224700000Y-112350000D01*
X226461846Y-117711846D02*
X226346051Y-117711846D01*
X226346051Y-117711846D02*
X224513137Y-119544760D01*
X231700000Y-113000000D02*
X231173692Y-113000000D01*
X231173692Y-113000000D02*
X228661846Y-115511846D01*
X228661846Y-115511846D02*
X228661846Y-122580257D01*
X228661846Y-122580257D02*
X228105240Y-123136863D01*
X218911846Y-125361846D02*
X213861846Y-125361846D01*
X201500000Y-113000000D02*
X196300000Y-113000000D01*
X213861846Y-125361846D02*
X201500000Y-113000000D01*
X218911846Y-125361846D02*
X218911846Y-125146051D01*
X218911846Y-125146051D02*
X220694760Y-123363137D01*
X214000000Y-130700000D02*
X214000000Y-130273692D01*
X214000000Y-130273692D02*
X216711846Y-127561846D01*
X216711846Y-127561846D02*
X223680257Y-127561846D01*
X223680257Y-127561846D02*
X224286863Y-126955240D01*
X231850000Y-123100000D02*
X234700000Y-123100000D01*
X206757897Y-91400000D02*
X205230256Y-92927641D01*
X207800000Y-91400000D02*
X206757897Y-91400000D01*
X209800000Y-89400000D02*
X207800000Y-91400000D01*
X215800000Y-89400000D02*
X209800000Y-89400000D01*
X216800000Y-90400000D02*
X215800000Y-89400000D01*
X222600000Y-90400000D02*
X216800000Y-90400000D01*
X228200000Y-96000000D02*
X222600000Y-90400000D01*
X228200000Y-97800000D02*
X228200000Y-96000000D01*
X229400000Y-99000000D02*
X228200000Y-97800000D01*
X230600000Y-99000000D02*
X229400000Y-99000000D01*
X237000000Y-105400000D02*
X230600000Y-99000000D01*
X237000000Y-115400000D02*
X237000000Y-105400000D01*
X236200000Y-116200000D02*
X237000000Y-115400000D01*
X236200000Y-121600000D02*
X236200000Y-116200000D01*
X234700000Y-123100000D02*
X236200000Y-121600000D01*
X223615111Y-118646735D02*
X223353265Y-118646735D01*
X223353265Y-118646735D02*
X222500000Y-119500000D01*
X222500000Y-119500000D02*
X222500000Y-120000000D01*
X231850000Y-123100000D02*
X231850000Y-123650000D01*
X223000000Y-119000000D02*
X223615111Y-118646735D01*
D20*
X223615111Y-118646735D02*
X223553265Y-118646735D01*
X223615111Y-118646735D02*
X223603265Y-118646735D01*
D18*
X234050000Y-120900000D02*
X234050000Y-117150000D01*
X211750000Y-90000000D02*
X207026307Y-94723693D01*
X215600000Y-90000000D02*
X211750000Y-90000000D01*
X216600000Y-91000000D02*
X215600000Y-90000000D01*
X222400000Y-91000000D02*
X216600000Y-91000000D01*
X227400000Y-96000000D02*
X222400000Y-91000000D01*
X227400000Y-98000000D02*
X227400000Y-96000000D01*
X229000000Y-99600000D02*
X227400000Y-98000000D01*
X230400000Y-99600000D02*
X229000000Y-99600000D01*
X236400000Y-105600000D02*
X230400000Y-99600000D01*
X236400000Y-114800000D02*
X236400000Y-105600000D01*
X234050000Y-117150000D02*
X236400000Y-114800000D01*
X207526307Y-94723693D02*
X207026307Y-94723693D01*
X234050000Y-120900000D02*
X231100000Y-120900000D01*
X229500000Y-122500000D02*
X229500000Y-123538154D01*
X231100000Y-120900000D02*
X229500000Y-122500000D01*
X229500000Y-123538154D02*
X229003265Y-124034889D01*
D20*
X229003265Y-124034889D02*
X229003265Y-123696735D01*
D18*
X206830256Y-94669744D02*
X206830256Y-94777641D01*
X199492786Y-123688837D02*
X199688837Y-123688837D01*
X199688837Y-123688837D02*
X200750000Y-124750000D01*
X222100000Y-132950000D02*
X222100000Y-130400000D01*
X224538154Y-128500000D02*
X225184889Y-127853265D01*
X224000000Y-128500000D02*
X224538154Y-128500000D01*
X222100000Y-130400000D02*
X224000000Y-128500000D01*
X198594760Y-124586863D02*
X198594760Y-124594760D01*
X198594760Y-124594760D02*
X199500000Y-125500000D01*
X191000000Y-107157898D02*
X194453949Y-103703949D01*
X191000000Y-114750000D02*
X191000000Y-107157898D01*
X191250000Y-115000000D02*
X191000000Y-114750000D01*
X191250000Y-121500000D02*
X191250000Y-115000000D01*
X196750000Y-127000000D02*
X191250000Y-121500000D01*
X198750000Y-127000000D02*
X196750000Y-127000000D01*
X199500000Y-126250000D02*
X198750000Y-127000000D01*
X199500000Y-125500000D02*
X199500000Y-126250000D01*
X219796735Y-122465111D02*
X219796735Y-122203265D01*
X219796735Y-122203265D02*
X220500000Y-121500000D01*
X220500000Y-121500000D02*
X221000000Y-121500000D01*
D20*
X219796735Y-122465111D02*
X219834889Y-122465111D01*
D18*
X200390812Y-122790812D02*
X200390812Y-122840812D01*
X200390812Y-122840812D02*
X201650000Y-124100000D01*
X196100000Y-127800000D02*
X195300000Y-127000000D01*
X199150000Y-127800000D02*
X196100000Y-127800000D01*
X201650000Y-125300000D02*
X199150000Y-127800000D01*
X201650000Y-124100000D02*
X201650000Y-125300000D01*
X200390812Y-122790812D02*
X200390812Y-122890812D01*
X200390812Y-122790812D02*
X200790812Y-122790812D01*
X198046051Y-103703949D02*
X198046051Y-103746051D01*
X198046051Y-103746051D02*
X202750000Y-108450000D01*
X202750000Y-108450000D02*
X202542102Y-108450000D01*
X197696735Y-125484889D02*
X196234889Y-125484889D01*
X191500000Y-110250000D02*
X196250000Y-105500000D01*
X191500000Y-114250000D02*
X191500000Y-110250000D01*
X192000000Y-114750000D02*
X191500000Y-114250000D01*
X192000000Y-121250000D02*
X192000000Y-114750000D01*
X196234889Y-125484889D02*
X192000000Y-121250000D01*
X199842102Y-101907898D02*
X199842102Y-101950000D01*
X199842102Y-101950000D02*
X204546051Y-106653949D01*
X204546051Y-106653949D02*
X204338153Y-106653949D01*
X203434205Y-98315795D02*
X203434205Y-98357897D01*
X203434205Y-98357897D02*
X208138154Y-103061846D01*
X208138154Y-103061846D02*
X207930256Y-103061846D01*
X221700000Y-93200000D02*
X221700000Y-93300000D01*
X221700000Y-93300000D02*
X223900000Y-95500000D01*
X196511846Y-122938154D02*
X196511846Y-122911846D01*
X196511846Y-122911846D02*
X194300000Y-120700000D01*
X196511846Y-122938154D02*
X196511846Y-122866582D01*
X231638154Y-103011846D02*
X231638154Y-103038154D01*
X231638154Y-103038154D02*
X233850000Y-105250000D01*
X204050000Y-130650000D02*
X206250000Y-132850000D01*
X204011846Y-130638154D02*
X204233418Y-130638154D01*
D22*
G36*
X227926846Y-120999783D02*
X227885110Y-120958047D01*
X227668298Y-120868241D01*
X227651504Y-120778987D01*
X227509459Y-120564805D01*
X227085195Y-120140541D01*
X226887492Y-120005456D01*
X226782131Y-119982600D01*
X226691953Y-119764890D01*
X226592562Y-119665499D01*
X226368055Y-119665499D01*
X225590768Y-120442786D01*
X225604911Y-120456929D01*
X225425306Y-120636534D01*
X225411163Y-120622391D01*
X224633876Y-121399678D01*
X224633876Y-121624185D01*
X224674691Y-121665000D01*
X224191769Y-121665000D01*
X224112286Y-121585378D01*
X223715668Y-121420687D01*
X223286216Y-121420313D01*
X222889311Y-121584311D01*
X222585378Y-121887714D01*
X222420687Y-122284332D01*
X222420313Y-122713784D01*
X222584311Y-123110689D01*
X222887714Y-123414622D01*
X223284332Y-123579313D01*
X223713784Y-123579687D01*
X224110689Y-123415689D01*
X224191519Y-123335000D01*
X225250000Y-123335000D01*
X225569541Y-123271439D01*
X225840434Y-123090434D01*
X225970280Y-122960589D01*
X226025815Y-123016124D01*
X226250322Y-123016124D01*
X227027609Y-122238837D01*
X227013467Y-122224695D01*
X227193072Y-122045090D01*
X227207214Y-122059232D01*
X227221357Y-122045090D01*
X227400962Y-122224695D01*
X227386819Y-122238837D01*
X227400962Y-122252980D01*
X227221357Y-122432585D01*
X227207214Y-122418442D01*
X226429927Y-123195729D01*
X226429927Y-123420236D01*
X226529318Y-123519627D01*
X226746130Y-123609432D01*
X226762924Y-123698688D01*
X226904969Y-123912870D01*
X227329233Y-124337134D01*
X227526936Y-124472219D01*
X227642230Y-124497229D01*
X227660949Y-124596714D01*
X227802994Y-124810896D01*
X228227258Y-125235160D01*
X228424961Y-125370245D01*
X228676123Y-125424729D01*
X228928694Y-125377205D01*
X229142876Y-125235160D01*
X230203536Y-124174500D01*
X230338621Y-123976797D01*
X230374818Y-123809936D01*
X230463538Y-124024655D01*
X230922927Y-124484846D01*
X231523453Y-124734206D01*
X232173694Y-124734774D01*
X232774655Y-124486462D01*
X233234846Y-124027073D01*
X233314602Y-123835000D01*
X234700000Y-123835000D01*
X234981272Y-123779051D01*
X235219723Y-123619723D01*
X236249558Y-122589889D01*
X231178806Y-130178806D01*
X223297103Y-135445191D01*
X214000000Y-137294500D01*
X204702897Y-135445191D01*
X198883834Y-131557018D01*
X199266372Y-131398957D01*
X199797093Y-130869161D01*
X200084672Y-130176595D01*
X200085326Y-129426695D01*
X199850660Y-128858758D01*
X200137649Y-128858758D01*
X200137649Y-129111377D01*
X200234322Y-129344766D01*
X200651910Y-129762354D01*
X200876417Y-129762354D01*
X201335506Y-129303265D01*
X200558219Y-128525978D01*
X200333712Y-128525978D01*
X200234321Y-128625369D01*
X200137649Y-128858758D01*
X199850660Y-128858758D01*
X199798957Y-128733628D01*
X199499389Y-128433537D01*
X199669723Y-128319723D01*
X202169724Y-125819723D01*
X202329051Y-125581272D01*
X202346771Y-125492188D01*
X202385000Y-125300000D01*
X202385000Y-124100000D01*
X202329051Y-123818728D01*
X202316849Y-123800467D01*
X202169724Y-123580277D01*
X201822688Y-123233241D01*
X201966733Y-123173576D01*
X202066124Y-123074185D01*
X202066124Y-122849678D01*
X201288837Y-122072391D01*
X201274695Y-122086534D01*
X201095090Y-121906929D01*
X201109232Y-121892786D01*
X201095090Y-121878644D01*
X201274695Y-121699039D01*
X201288837Y-121713181D01*
X201302980Y-121699039D01*
X201482585Y-121878644D01*
X201468442Y-121892786D01*
X202245729Y-122670073D01*
X202470236Y-122670073D01*
X202569627Y-122570682D01*
X202659432Y-122353870D01*
X202748688Y-122337076D01*
X202962870Y-122195031D01*
X203387134Y-121770767D01*
X203522219Y-121573064D01*
X203547229Y-121457770D01*
X203646714Y-121439051D01*
X203860896Y-121297006D01*
X204159228Y-120998674D01*
X204160998Y-121000444D01*
X204160998Y-123949555D01*
X203030277Y-125080277D01*
X202870949Y-125318728D01*
X202815000Y-125600000D01*
X202815000Y-125950000D01*
X202851535Y-126133671D01*
X202848821Y-126146179D01*
X202749338Y-126164898D01*
X202535156Y-126306943D01*
X202110892Y-126731207D01*
X201975807Y-126928910D01*
X201950796Y-127044205D01*
X201851312Y-127062924D01*
X201637130Y-127204969D01*
X201212866Y-127629233D01*
X201077781Y-127826936D01*
X201054925Y-127932297D01*
X200837215Y-128022475D01*
X200737824Y-128121866D01*
X200737824Y-128346373D01*
X201515111Y-129123660D01*
X201529254Y-129109518D01*
X201708859Y-129289123D01*
X201694716Y-129303265D01*
X201708859Y-129317408D01*
X201529254Y-129497013D01*
X201515111Y-129482870D01*
X201056022Y-129941959D01*
X201056022Y-130166466D01*
X201473610Y-130584054D01*
X201706999Y-130680727D01*
X201959618Y-130680727D01*
X202193007Y-130584055D01*
X202292398Y-130484664D01*
X202292398Y-130260160D01*
X202404650Y-130372412D01*
X202415761Y-130361301D01*
X202415226Y-130973694D01*
X202663538Y-131574655D01*
X203122927Y-132034846D01*
X203723453Y-132284206D01*
X204373694Y-132284774D01*
X204565907Y-132205353D01*
X204694489Y-132333935D01*
X204615794Y-132523453D01*
X204615226Y-133173694D01*
X204863538Y-133774655D01*
X205322927Y-134234846D01*
X205923453Y-134484206D01*
X206573694Y-134484774D01*
X206884503Y-134356350D01*
X213063255Y-134356350D01*
X213155792Y-134618019D01*
X213747398Y-134836188D01*
X214377461Y-134811352D01*
X214844208Y-134618019D01*
X214936745Y-134356350D01*
X214000000Y-133419605D01*
X213063255Y-134356350D01*
X206884503Y-134356350D01*
X207174655Y-134236462D01*
X207634846Y-133777073D01*
X207884206Y-133176547D01*
X207884769Y-132531758D01*
X208597826Y-133244815D01*
X208795529Y-133379900D01*
X209046691Y-133434384D01*
X209299262Y-133386860D01*
X209513444Y-133244815D01*
X210644815Y-132113444D01*
X210779900Y-131915741D01*
X210834384Y-131664579D01*
X210786860Y-131412008D01*
X210644815Y-131197826D01*
X209793218Y-130346229D01*
X211122089Y-129017357D01*
X211311607Y-129096052D01*
X211961848Y-129096620D01*
X212562809Y-128848308D01*
X213023000Y-128388919D01*
X213272360Y-127788393D01*
X213272928Y-127138152D01*
X213024616Y-126537191D01*
X212565227Y-126077000D01*
X211964701Y-125827640D01*
X211314460Y-125827072D01*
X210902586Y-125997255D01*
X211072360Y-125588393D01*
X211072928Y-124938152D01*
X210824616Y-124337191D01*
X210365227Y-123877000D01*
X209764701Y-123627640D01*
X209114460Y-123627072D01*
X208513499Y-123875384D01*
X208269842Y-124118617D01*
X208245581Y-123989682D01*
X208103536Y-123775500D01*
X207638265Y-123310229D01*
X207638265Y-122601181D01*
X208009981Y-122229466D01*
X208263784Y-122229687D01*
X208660689Y-122065689D01*
X208964622Y-121762286D01*
X209040384Y-121579831D01*
X213342122Y-125881569D01*
X213576695Y-126038305D01*
X213580574Y-126040897D01*
X213861846Y-126096846D01*
X215977267Y-126096846D01*
X215787191Y-126175384D01*
X215327000Y-126634773D01*
X215077640Y-127235299D01*
X215077072Y-127885540D01*
X215156493Y-128077753D01*
X214131686Y-129102560D01*
X213000000Y-129102560D01*
X212764683Y-129146838D01*
X212548559Y-129285910D01*
X212403569Y-129498110D01*
X212352560Y-129750000D01*
X212352560Y-131650000D01*
X212396838Y-131885317D01*
X212535910Y-132101441D01*
X212748110Y-132246431D01*
X212846810Y-132266418D01*
X212883648Y-132303256D01*
X212621981Y-132395792D01*
X212403812Y-132987398D01*
X212428648Y-133617461D01*
X212621981Y-134084208D01*
X212883650Y-134176745D01*
X213820395Y-133240000D01*
X213806253Y-133225858D01*
X213985858Y-133046253D01*
X214000000Y-133060395D01*
X214014143Y-133046253D01*
X214193748Y-133225858D01*
X214179605Y-133240000D01*
X215116350Y-134176745D01*
X215378019Y-134084208D01*
X215596188Y-133492602D01*
X215571352Y-132862539D01*
X215378019Y-132395792D01*
X215116352Y-132303256D01*
X215150483Y-132269125D01*
X215235317Y-132253162D01*
X215451441Y-132114090D01*
X215596431Y-131901890D01*
X215647440Y-131650000D01*
X215647440Y-129750000D01*
X215634090Y-129679049D01*
X216195781Y-129117357D01*
X216385299Y-129196052D01*
X217035540Y-129196620D01*
X217636501Y-128948308D01*
X218096692Y-128488919D01*
X218176448Y-128296846D01*
X223163707Y-128296846D01*
X221580277Y-129880277D01*
X221420949Y-130118728D01*
X221365000Y-130400000D01*
X221365000Y-131485174D01*
X221175345Y-131563538D01*
X220715154Y-132022927D01*
X220465794Y-132623453D01*
X220465226Y-133273694D01*
X220713538Y-133874655D01*
X221172927Y-134334846D01*
X221773453Y-134584206D01*
X222423694Y-134584774D01*
X223024655Y-134336462D01*
X223484846Y-133877073D01*
X223734206Y-133276547D01*
X223734774Y-132626306D01*
X223564591Y-132214432D01*
X223973453Y-132384206D01*
X224623694Y-132384774D01*
X225224655Y-132136462D01*
X225684846Y-131677073D01*
X225934206Y-131076547D01*
X225934774Y-130426306D01*
X225686462Y-129825345D01*
X225227073Y-129365154D01*
X224909634Y-129233342D01*
X225110318Y-129195581D01*
X225324500Y-129053536D01*
X226385160Y-127992876D01*
X226520245Y-127795173D01*
X226574729Y-127544011D01*
X226527205Y-127291440D01*
X226385160Y-127077258D01*
X225960896Y-126652994D01*
X225763193Y-126517909D01*
X225647898Y-126492898D01*
X225629179Y-126393415D01*
X225487134Y-126179233D01*
X225062870Y-125754969D01*
X224865167Y-125619884D01*
X224759805Y-125597028D01*
X224669627Y-125379318D01*
X224570236Y-125279927D01*
X224345729Y-125279927D01*
X223568442Y-126057214D01*
X223582585Y-126071357D01*
X223402980Y-126250962D01*
X223388837Y-126236819D01*
X223374695Y-126250962D01*
X223195090Y-126071357D01*
X223209232Y-126057214D01*
X222949901Y-125797883D01*
X222949901Y-125797882D01*
X222490812Y-125338793D01*
X221713525Y-126116080D01*
X221713525Y-126340587D01*
X221812916Y-126439978D01*
X222021605Y-126526419D01*
X222108047Y-126735110D01*
X222199783Y-126826846D01*
X219646425Y-126826846D01*
X219836501Y-126748308D01*
X220296692Y-126288919D01*
X220546052Y-125688393D01*
X220546463Y-125218055D01*
X220815499Y-125218055D01*
X220815499Y-125442562D01*
X220914890Y-125541953D01*
X221123581Y-125628395D01*
X221210022Y-125837084D01*
X221309413Y-125936475D01*
X221533920Y-125936475D01*
X222311207Y-125159188D01*
X222670417Y-125159188D01*
X222929748Y-125418519D01*
X222929748Y-125418520D01*
X223388837Y-125877609D01*
X224166124Y-125100322D01*
X224166124Y-124875815D01*
X224066733Y-124776424D01*
X223858044Y-124689983D01*
X223771602Y-124481292D01*
X223672211Y-124381901D01*
X223447704Y-124381901D01*
X222670417Y-125159188D01*
X222311207Y-125159188D01*
X221852118Y-124700099D01*
X221852117Y-124700099D01*
X221592786Y-124440768D01*
X220815499Y-125218055D01*
X220546463Y-125218055D01*
X220546620Y-125038450D01*
X220635894Y-125038450D01*
X221413181Y-124261163D01*
X221772391Y-124261163D01*
X222231480Y-124720252D01*
X222231481Y-124720252D01*
X222490812Y-124979583D01*
X223268099Y-124202296D01*
X223268099Y-123977789D01*
X223168708Y-123878398D01*
X222960017Y-123791956D01*
X222873576Y-123583267D01*
X222774185Y-123483876D01*
X222549678Y-123483876D01*
X221772391Y-124261163D01*
X221413181Y-124261163D01*
X221399039Y-124247021D01*
X221578644Y-124067416D01*
X221592786Y-124081558D01*
X222370073Y-123304271D01*
X222370073Y-123079764D01*
X222270682Y-122980373D01*
X222053870Y-122890568D01*
X222037076Y-122801312D01*
X221895031Y-122587130D01*
X221667189Y-122359288D01*
X221914622Y-122112286D01*
X222079313Y-121715668D01*
X222079687Y-121286216D01*
X221934107Y-120933886D01*
X222284332Y-121079313D01*
X222713784Y-121079687D01*
X223110689Y-120915689D01*
X223414622Y-120612286D01*
X223470299Y-120478200D01*
X223737130Y-120745031D01*
X223934833Y-120880116D01*
X224040195Y-120902972D01*
X224130373Y-121120682D01*
X224229764Y-121220073D01*
X224454271Y-121220073D01*
X225231558Y-120442786D01*
X225217416Y-120428644D01*
X225397021Y-120249039D01*
X225411163Y-120263181D01*
X226188450Y-119485894D01*
X226188450Y-119346098D01*
X226785540Y-119346620D01*
X227386501Y-119098308D01*
X227846692Y-118638919D01*
X227926846Y-118445887D01*
X227926846Y-120999783D01*
X227926846Y-120999783D01*
G37*
X227926846Y-120999783D02*
X227885110Y-120958047D01*
X227668298Y-120868241D01*
X227651504Y-120778987D01*
X227509459Y-120564805D01*
X227085195Y-120140541D01*
X226887492Y-120005456D01*
X226782131Y-119982600D01*
X226691953Y-119764890D01*
X226592562Y-119665499D01*
X226368055Y-119665499D01*
X225590768Y-120442786D01*
X225604911Y-120456929D01*
X225425306Y-120636534D01*
X225411163Y-120622391D01*
X224633876Y-121399678D01*
X224633876Y-121624185D01*
X224674691Y-121665000D01*
X224191769Y-121665000D01*
X224112286Y-121585378D01*
X223715668Y-121420687D01*
X223286216Y-121420313D01*
X222889311Y-121584311D01*
X222585378Y-121887714D01*
X222420687Y-122284332D01*
X222420313Y-122713784D01*
X222584311Y-123110689D01*
X222887714Y-123414622D01*
X223284332Y-123579313D01*
X223713784Y-123579687D01*
X224110689Y-123415689D01*
X224191519Y-123335000D01*
X225250000Y-123335000D01*
X225569541Y-123271439D01*
X225840434Y-123090434D01*
X225970280Y-122960589D01*
X226025815Y-123016124D01*
X226250322Y-123016124D01*
X227027609Y-122238837D01*
X227013467Y-122224695D01*
X227193072Y-122045090D01*
X227207214Y-122059232D01*
X227221357Y-122045090D01*
X227400962Y-122224695D01*
X227386819Y-122238837D01*
X227400962Y-122252980D01*
X227221357Y-122432585D01*
X227207214Y-122418442D01*
X226429927Y-123195729D01*
X226429927Y-123420236D01*
X226529318Y-123519627D01*
X226746130Y-123609432D01*
X226762924Y-123698688D01*
X226904969Y-123912870D01*
X227329233Y-124337134D01*
X227526936Y-124472219D01*
X227642230Y-124497229D01*
X227660949Y-124596714D01*
X227802994Y-124810896D01*
X228227258Y-125235160D01*
X228424961Y-125370245D01*
X228676123Y-125424729D01*
X228928694Y-125377205D01*
X229142876Y-125235160D01*
X230203536Y-124174500D01*
X230338621Y-123976797D01*
X230374818Y-123809936D01*
X230463538Y-124024655D01*
X230922927Y-124484846D01*
X231523453Y-124734206D01*
X232173694Y-124734774D01*
X232774655Y-124486462D01*
X233234846Y-124027073D01*
X233314602Y-123835000D01*
X234700000Y-123835000D01*
X234981272Y-123779051D01*
X235219723Y-123619723D01*
X236249558Y-122589889D01*
X231178806Y-130178806D01*
X223297103Y-135445191D01*
X214000000Y-137294500D01*
X204702897Y-135445191D01*
X198883834Y-131557018D01*
X199266372Y-131398957D01*
X199797093Y-130869161D01*
X200084672Y-130176595D01*
X200085326Y-129426695D01*
X199850660Y-128858758D01*
X200137649Y-128858758D01*
X200137649Y-129111377D01*
X200234322Y-129344766D01*
X200651910Y-129762354D01*
X200876417Y-129762354D01*
X201335506Y-129303265D01*
X200558219Y-128525978D01*
X200333712Y-128525978D01*
X200234321Y-128625369D01*
X200137649Y-128858758D01*
X199850660Y-128858758D01*
X199798957Y-128733628D01*
X199499389Y-128433537D01*
X199669723Y-128319723D01*
X202169724Y-125819723D01*
X202329051Y-125581272D01*
X202346771Y-125492188D01*
X202385000Y-125300000D01*
X202385000Y-124100000D01*
X202329051Y-123818728D01*
X202316849Y-123800467D01*
X202169724Y-123580277D01*
X201822688Y-123233241D01*
X201966733Y-123173576D01*
X202066124Y-123074185D01*
X202066124Y-122849678D01*
X201288837Y-122072391D01*
X201274695Y-122086534D01*
X201095090Y-121906929D01*
X201109232Y-121892786D01*
X201095090Y-121878644D01*
X201274695Y-121699039D01*
X201288837Y-121713181D01*
X201302980Y-121699039D01*
X201482585Y-121878644D01*
X201468442Y-121892786D01*
X202245729Y-122670073D01*
X202470236Y-122670073D01*
X202569627Y-122570682D01*
X202659432Y-122353870D01*
X202748688Y-122337076D01*
X202962870Y-122195031D01*
X203387134Y-121770767D01*
X203522219Y-121573064D01*
X203547229Y-121457770D01*
X203646714Y-121439051D01*
X203860896Y-121297006D01*
X204159228Y-120998674D01*
X204160998Y-121000444D01*
X204160998Y-123949555D01*
X203030277Y-125080277D01*
X202870949Y-125318728D01*
X202815000Y-125600000D01*
X202815000Y-125950000D01*
X202851535Y-126133671D01*
X202848821Y-126146179D01*
X202749338Y-126164898D01*
X202535156Y-126306943D01*
X202110892Y-126731207D01*
X201975807Y-126928910D01*
X201950796Y-127044205D01*
X201851312Y-127062924D01*
X201637130Y-127204969D01*
X201212866Y-127629233D01*
X201077781Y-127826936D01*
X201054925Y-127932297D01*
X200837215Y-128022475D01*
X200737824Y-128121866D01*
X200737824Y-128346373D01*
X201515111Y-129123660D01*
X201529254Y-129109518D01*
X201708859Y-129289123D01*
X201694716Y-129303265D01*
X201708859Y-129317408D01*
X201529254Y-129497013D01*
X201515111Y-129482870D01*
X201056022Y-129941959D01*
X201056022Y-130166466D01*
X201473610Y-130584054D01*
X201706999Y-130680727D01*
X201959618Y-130680727D01*
X202193007Y-130584055D01*
X202292398Y-130484664D01*
X202292398Y-130260160D01*
X202404650Y-130372412D01*
X202415761Y-130361301D01*
X202415226Y-130973694D01*
X202663538Y-131574655D01*
X203122927Y-132034846D01*
X203723453Y-132284206D01*
X204373694Y-132284774D01*
X204565907Y-132205353D01*
X204694489Y-132333935D01*
X204615794Y-132523453D01*
X204615226Y-133173694D01*
X204863538Y-133774655D01*
X205322927Y-134234846D01*
X205923453Y-134484206D01*
X206573694Y-134484774D01*
X206884503Y-134356350D01*
X213063255Y-134356350D01*
X213155792Y-134618019D01*
X213747398Y-134836188D01*
X214377461Y-134811352D01*
X214844208Y-134618019D01*
X214936745Y-134356350D01*
X214000000Y-133419605D01*
X213063255Y-134356350D01*
X206884503Y-134356350D01*
X207174655Y-134236462D01*
X207634846Y-133777073D01*
X207884206Y-133176547D01*
X207884769Y-132531758D01*
X208597826Y-133244815D01*
X208795529Y-133379900D01*
X209046691Y-133434384D01*
X209299262Y-133386860D01*
X209513444Y-133244815D01*
X210644815Y-132113444D01*
X210779900Y-131915741D01*
X210834384Y-131664579D01*
X210786860Y-131412008D01*
X210644815Y-131197826D01*
X209793218Y-130346229D01*
X211122089Y-129017357D01*
X211311607Y-129096052D01*
X211961848Y-129096620D01*
X212562809Y-128848308D01*
X213023000Y-128388919D01*
X213272360Y-127788393D01*
X213272928Y-127138152D01*
X213024616Y-126537191D01*
X212565227Y-126077000D01*
X211964701Y-125827640D01*
X211314460Y-125827072D01*
X210902586Y-125997255D01*
X211072360Y-125588393D01*
X211072928Y-124938152D01*
X210824616Y-124337191D01*
X210365227Y-123877000D01*
X209764701Y-123627640D01*
X209114460Y-123627072D01*
X208513499Y-123875384D01*
X208269842Y-124118617D01*
X208245581Y-123989682D01*
X208103536Y-123775500D01*
X207638265Y-123310229D01*
X207638265Y-122601181D01*
X208009981Y-122229466D01*
X208263784Y-122229687D01*
X208660689Y-122065689D01*
X208964622Y-121762286D01*
X209040384Y-121579831D01*
X213342122Y-125881569D01*
X213576695Y-126038305D01*
X213580574Y-126040897D01*
X213861846Y-126096846D01*
X215977267Y-126096846D01*
X215787191Y-126175384D01*
X215327000Y-126634773D01*
X215077640Y-127235299D01*
X215077072Y-127885540D01*
X215156493Y-128077753D01*
X214131686Y-129102560D01*
X213000000Y-129102560D01*
X212764683Y-129146838D01*
X212548559Y-129285910D01*
X212403569Y-129498110D01*
X212352560Y-129750000D01*
X212352560Y-131650000D01*
X212396838Y-131885317D01*
X212535910Y-132101441D01*
X212748110Y-132246431D01*
X212846810Y-132266418D01*
X212883648Y-132303256D01*
X212621981Y-132395792D01*
X212403812Y-132987398D01*
X212428648Y-133617461D01*
X212621981Y-134084208D01*
X212883650Y-134176745D01*
X213820395Y-133240000D01*
X213806253Y-133225858D01*
X213985858Y-133046253D01*
X214000000Y-133060395D01*
X214014143Y-133046253D01*
X214193748Y-133225858D01*
X214179605Y-133240000D01*
X215116350Y-134176745D01*
X215378019Y-134084208D01*
X215596188Y-133492602D01*
X215571352Y-132862539D01*
X215378019Y-132395792D01*
X215116352Y-132303256D01*
X215150483Y-132269125D01*
X215235317Y-132253162D01*
X215451441Y-132114090D01*
X215596431Y-131901890D01*
X215647440Y-131650000D01*
X215647440Y-129750000D01*
X215634090Y-129679049D01*
X216195781Y-129117357D01*
X216385299Y-129196052D01*
X217035540Y-129196620D01*
X217636501Y-128948308D01*
X218096692Y-128488919D01*
X218176448Y-128296846D01*
X223163707Y-128296846D01*
X221580277Y-129880277D01*
X221420949Y-130118728D01*
X221365000Y-130400000D01*
X221365000Y-131485174D01*
X221175345Y-131563538D01*
X220715154Y-132022927D01*
X220465794Y-132623453D01*
X220465226Y-133273694D01*
X220713538Y-133874655D01*
X221172927Y-134334846D01*
X221773453Y-134584206D01*
X222423694Y-134584774D01*
X223024655Y-134336462D01*
X223484846Y-133877073D01*
X223734206Y-133276547D01*
X223734774Y-132626306D01*
X223564591Y-132214432D01*
X223973453Y-132384206D01*
X224623694Y-132384774D01*
X225224655Y-132136462D01*
X225684846Y-131677073D01*
X225934206Y-131076547D01*
X225934774Y-130426306D01*
X225686462Y-129825345D01*
X225227073Y-129365154D01*
X224909634Y-129233342D01*
X225110318Y-129195581D01*
X225324500Y-129053536D01*
X226385160Y-127992876D01*
X226520245Y-127795173D01*
X226574729Y-127544011D01*
X226527205Y-127291440D01*
X226385160Y-127077258D01*
X225960896Y-126652994D01*
X225763193Y-126517909D01*
X225647898Y-126492898D01*
X225629179Y-126393415D01*
X225487134Y-126179233D01*
X225062870Y-125754969D01*
X224865167Y-125619884D01*
X224759805Y-125597028D01*
X224669627Y-125379318D01*
X224570236Y-125279927D01*
X224345729Y-125279927D01*
X223568442Y-126057214D01*
X223582585Y-126071357D01*
X223402980Y-126250962D01*
X223388837Y-126236819D01*
X223374695Y-126250962D01*
X223195090Y-126071357D01*
X223209232Y-126057214D01*
X222949901Y-125797883D01*
X222949901Y-125797882D01*
X222490812Y-125338793D01*
X221713525Y-126116080D01*
X221713525Y-126340587D01*
X221812916Y-126439978D01*
X222021605Y-126526419D01*
X222108047Y-126735110D01*
X222199783Y-126826846D01*
X219646425Y-126826846D01*
X219836501Y-126748308D01*
X220296692Y-126288919D01*
X220546052Y-125688393D01*
X220546463Y-125218055D01*
X220815499Y-125218055D01*
X220815499Y-125442562D01*
X220914890Y-125541953D01*
X221123581Y-125628395D01*
X221210022Y-125837084D01*
X221309413Y-125936475D01*
X221533920Y-125936475D01*
X222311207Y-125159188D01*
X222670417Y-125159188D01*
X222929748Y-125418519D01*
X222929748Y-125418520D01*
X223388837Y-125877609D01*
X224166124Y-125100322D01*
X224166124Y-124875815D01*
X224066733Y-124776424D01*
X223858044Y-124689983D01*
X223771602Y-124481292D01*
X223672211Y-124381901D01*
X223447704Y-124381901D01*
X222670417Y-125159188D01*
X222311207Y-125159188D01*
X221852118Y-124700099D01*
X221852117Y-124700099D01*
X221592786Y-124440768D01*
X220815499Y-125218055D01*
X220546463Y-125218055D01*
X220546620Y-125038450D01*
X220635894Y-125038450D01*
X221413181Y-124261163D01*
X221772391Y-124261163D01*
X222231480Y-124720252D01*
X222231481Y-124720252D01*
X222490812Y-124979583D01*
X223268099Y-124202296D01*
X223268099Y-123977789D01*
X223168708Y-123878398D01*
X222960017Y-123791956D01*
X222873576Y-123583267D01*
X222774185Y-123483876D01*
X222549678Y-123483876D01*
X221772391Y-124261163D01*
X221413181Y-124261163D01*
X221399039Y-124247021D01*
X221578644Y-124067416D01*
X221592786Y-124081558D01*
X222370073Y-123304271D01*
X222370073Y-123079764D01*
X222270682Y-122980373D01*
X222053870Y-122890568D01*
X222037076Y-122801312D01*
X221895031Y-122587130D01*
X221667189Y-122359288D01*
X221914622Y-122112286D01*
X222079313Y-121715668D01*
X222079687Y-121286216D01*
X221934107Y-120933886D01*
X222284332Y-121079313D01*
X222713784Y-121079687D01*
X223110689Y-120915689D01*
X223414622Y-120612286D01*
X223470299Y-120478200D01*
X223737130Y-120745031D01*
X223934833Y-120880116D01*
X224040195Y-120902972D01*
X224130373Y-121120682D01*
X224229764Y-121220073D01*
X224454271Y-121220073D01*
X225231558Y-120442786D01*
X225217416Y-120428644D01*
X225397021Y-120249039D01*
X225411163Y-120263181D01*
X226188450Y-119485894D01*
X226188450Y-119346098D01*
X226785540Y-119346620D01*
X227386501Y-119098308D01*
X227846692Y-118638919D01*
X227926846Y-118445887D01*
X227926846Y-120999783D01*
G36*
X200035850Y-98301653D02*
X200021707Y-98315795D01*
X200875056Y-99169143D01*
X200875057Y-99169143D01*
X201638154Y-99932241D01*
X201652297Y-99918099D01*
X201831902Y-100097704D01*
X201817759Y-100111846D01*
X202671108Y-100965194D01*
X202920834Y-100886787D01*
X203093122Y-100470873D01*
X203119763Y-99886752D01*
X203073658Y-99759308D01*
X203454965Y-99835155D01*
X203802824Y-99765962D01*
X206585098Y-102548237D01*
X206508920Y-102931212D01*
X206581535Y-103296274D01*
X206024826Y-103264950D01*
X205472419Y-103458180D01*
X205459398Y-103467455D01*
X205380990Y-103717181D01*
X206342102Y-104678293D01*
X206356245Y-104664151D01*
X206535850Y-104843756D01*
X206521707Y-104857898D01*
X207450394Y-105786585D01*
X207584311Y-106110689D01*
X207665000Y-106191519D01*
X207665000Y-109000000D01*
X207728561Y-109319541D01*
X207892572Y-109565000D01*
X207909566Y-109590434D01*
X208920411Y-110601279D01*
X208920313Y-110713784D01*
X209084311Y-111110689D01*
X209387714Y-111414622D01*
X209784332Y-111579313D01*
X209915000Y-111579427D01*
X209915000Y-116495553D01*
X209640019Y-116770534D01*
X209386216Y-116770313D01*
X208989311Y-116934311D01*
X208685378Y-117237714D01*
X208520687Y-117634332D01*
X208520313Y-118063784D01*
X208684311Y-118460689D01*
X208987714Y-118764622D01*
X209384332Y-118929313D01*
X209468079Y-118929386D01*
X209584311Y-119210689D01*
X209887714Y-119514622D01*
X210284332Y-119679313D01*
X210713784Y-119679687D01*
X211110689Y-119515689D01*
X211414622Y-119212286D01*
X211579313Y-118815668D01*
X211579579Y-118509867D01*
X211919723Y-118169724D01*
X211970553Y-118093650D01*
X213063255Y-118093650D01*
X214000000Y-119030395D01*
X214936745Y-118093650D01*
X214844208Y-117831981D01*
X214252602Y-117613812D01*
X213622539Y-117638648D01*
X213155792Y-117831981D01*
X213063255Y-118093650D01*
X211970553Y-118093650D01*
X212079051Y-117931272D01*
X212088937Y-117881570D01*
X212135000Y-117650000D01*
X212135000Y-112104446D01*
X213271877Y-110967570D01*
X213434311Y-111360689D01*
X213737714Y-111664622D01*
X214036516Y-111788696D01*
X216303902Y-115211165D01*
X216362973Y-115270703D01*
X216409566Y-115340434D01*
X216476592Y-115385219D01*
X216533370Y-115442446D01*
X216610727Y-115474846D01*
X216680459Y-115521439D01*
X216759522Y-115537166D01*
X216833877Y-115568308D01*
X216917744Y-115568638D01*
X217000000Y-115585000D01*
X219904132Y-115585000D01*
X220415000Y-116095868D01*
X220415000Y-116808231D01*
X220335378Y-116887714D01*
X220170687Y-117284332D01*
X220170313Y-117713784D01*
X220334311Y-118110689D01*
X220637714Y-118414622D01*
X221034332Y-118579313D01*
X221463784Y-118579687D01*
X221860689Y-118415689D01*
X222164622Y-118112286D01*
X222329313Y-117715668D01*
X222329687Y-117286216D01*
X222165689Y-116889311D01*
X222085000Y-116808481D01*
X222085000Y-115750000D01*
X222062800Y-115638393D01*
X222021440Y-115430460D01*
X221840434Y-115159566D01*
X221055430Y-114374562D01*
X221146744Y-114116352D01*
X221180875Y-114150483D01*
X221196838Y-114235317D01*
X221335910Y-114451441D01*
X221548110Y-114596431D01*
X221800000Y-114647440D01*
X223700000Y-114647440D01*
X223935317Y-114603162D01*
X223965000Y-114584062D01*
X223965000Y-115600000D01*
X224011852Y-115835540D01*
X224020949Y-115881272D01*
X224180277Y-116119723D01*
X225009026Y-116948473D01*
X224827640Y-117385299D01*
X224827200Y-117888548D01*
X224815382Y-117870728D01*
X224391118Y-117446464D01*
X224193415Y-117311379D01*
X223942253Y-117256895D01*
X223689682Y-117304419D01*
X223475500Y-117446464D01*
X222414840Y-118507124D01*
X222331591Y-118628962D01*
X221980277Y-118980277D01*
X221918945Y-119072066D01*
X221889311Y-119084311D01*
X221585378Y-119387714D01*
X221420687Y-119784332D01*
X221420313Y-120213784D01*
X221565893Y-120566114D01*
X221215668Y-120420687D01*
X220786216Y-120420313D01*
X220389311Y-120584311D01*
X220085378Y-120887714D01*
X220072542Y-120918627D01*
X219980277Y-120980276D01*
X219771699Y-121188854D01*
X219657124Y-121264840D01*
X218596464Y-122325500D01*
X218461379Y-122523203D01*
X218406895Y-122774365D01*
X218454419Y-123026936D01*
X218596464Y-123241118D01*
X219020728Y-123665382D01*
X219111683Y-123727529D01*
X218588152Y-123727072D01*
X217987191Y-123975384D01*
X217527000Y-124434773D01*
X217447244Y-124626846D01*
X214166293Y-124626846D01*
X212858164Y-123318718D01*
X213000000Y-123347440D01*
X215000000Y-123347440D01*
X215235317Y-123303162D01*
X215451441Y-123164090D01*
X215596431Y-122951890D01*
X215647440Y-122700000D01*
X215647440Y-120800000D01*
X215603162Y-120564683D01*
X215464090Y-120348559D01*
X215251890Y-120203569D01*
X215153190Y-120183582D01*
X215116352Y-120146744D01*
X215378019Y-120054208D01*
X215596188Y-119462602D01*
X215571352Y-118832539D01*
X215378019Y-118365792D01*
X215116350Y-118273255D01*
X214179605Y-119210000D01*
X214193748Y-119224143D01*
X214014143Y-119403748D01*
X214000000Y-119389605D01*
X213985858Y-119403748D01*
X213806253Y-119224143D01*
X213820395Y-119210000D01*
X212883650Y-118273255D01*
X212621981Y-118365792D01*
X212403812Y-118957398D01*
X212428648Y-119587461D01*
X212621981Y-120054208D01*
X212883648Y-120146744D01*
X212849517Y-120180875D01*
X212764683Y-120196838D01*
X212548559Y-120335910D01*
X212403569Y-120548110D01*
X212352560Y-120800000D01*
X212352560Y-122700000D01*
X212378777Y-122839330D01*
X204158164Y-114618717D01*
X204300000Y-114647440D01*
X206200000Y-114647440D01*
X206435317Y-114603162D01*
X206651441Y-114464090D01*
X206796431Y-114251890D01*
X206816418Y-114153190D01*
X206853256Y-114116352D01*
X206945792Y-114378019D01*
X207537398Y-114596188D01*
X208167461Y-114571352D01*
X208634208Y-114378019D01*
X208726745Y-114116350D01*
X207790000Y-113179605D01*
X207775858Y-113193748D01*
X207596253Y-113014143D01*
X207610395Y-113000000D01*
X207969605Y-113000000D01*
X208906350Y-113936745D01*
X209168019Y-113844208D01*
X209386188Y-113252602D01*
X209361352Y-112622539D01*
X209168019Y-112155792D01*
X208906350Y-112063255D01*
X207969605Y-113000000D01*
X207610395Y-113000000D01*
X207596253Y-112985858D01*
X207775858Y-112806253D01*
X207790000Y-112820395D01*
X208726745Y-111883650D01*
X208634208Y-111621981D01*
X208042602Y-111403812D01*
X207412539Y-111428648D01*
X206945792Y-111621981D01*
X206853256Y-111883648D01*
X206819125Y-111849517D01*
X206803162Y-111764683D01*
X206664090Y-111548559D01*
X206451890Y-111403569D01*
X206200000Y-111352560D01*
X204300000Y-111352560D01*
X204064683Y-111396838D01*
X203848559Y-111535910D01*
X203703569Y-111748110D01*
X203652560Y-112000000D01*
X203652560Y-114000000D01*
X203678777Y-114139331D01*
X202019723Y-112480277D01*
X201781272Y-112320949D01*
X201500000Y-112265000D01*
X197897440Y-112265000D01*
X197897440Y-112000000D01*
X197853162Y-111764683D01*
X197714090Y-111548559D01*
X197501890Y-111403569D01*
X197250000Y-111352560D01*
X195350000Y-111352560D01*
X195114683Y-111396838D01*
X194898559Y-111535910D01*
X194753569Y-111748110D01*
X194733582Y-111846810D01*
X194696744Y-111883648D01*
X194604208Y-111621981D01*
X194012602Y-111403812D01*
X193382539Y-111428648D01*
X192915792Y-111621981D01*
X192823255Y-111883650D01*
X193760000Y-112820395D01*
X193774143Y-112806253D01*
X193953748Y-112985858D01*
X193939605Y-113000000D01*
X193953748Y-113014143D01*
X193774143Y-113193748D01*
X193760000Y-113179605D01*
X192823255Y-114116350D01*
X192915792Y-114378019D01*
X193507398Y-114596188D01*
X194137461Y-114571352D01*
X194604208Y-114378019D01*
X194696744Y-114116352D01*
X194730875Y-114150483D01*
X194746838Y-114235317D01*
X194885910Y-114451441D01*
X195098110Y-114596431D01*
X195350000Y-114647440D01*
X197250000Y-114647440D01*
X197485317Y-114603162D01*
X197701441Y-114464090D01*
X197846431Y-114251890D01*
X197897440Y-114000000D01*
X197897440Y-113735000D01*
X199224264Y-113735000D01*
X198763499Y-113925384D01*
X198303308Y-114384773D01*
X198206791Y-114617213D01*
X198128454Y-114632795D01*
X197890003Y-114792122D01*
X196139557Y-116542568D01*
X195952174Y-116355185D01*
X195754471Y-116220100D01*
X195503309Y-116165616D01*
X195250738Y-116213140D01*
X195036556Y-116355185D01*
X193905185Y-117486556D01*
X193770100Y-117684259D01*
X193715616Y-117935421D01*
X193763140Y-118187992D01*
X193905185Y-118402174D01*
X194568755Y-119065744D01*
X193976306Y-119065226D01*
X193375345Y-119313538D01*
X192915154Y-119772927D01*
X192735000Y-120206786D01*
X192735000Y-114750000D01*
X192679051Y-114468728D01*
X192653481Y-114430460D01*
X192519724Y-114230277D01*
X192235000Y-113945554D01*
X192235000Y-113489365D01*
X192381981Y-113844208D01*
X192643650Y-113936745D01*
X193580395Y-113000000D01*
X192643650Y-112063255D01*
X192381981Y-112155792D01*
X192235000Y-112554358D01*
X192235000Y-110554446D01*
X195701257Y-107088190D01*
X195792191Y-107179124D01*
X195989894Y-107314209D01*
X196241056Y-107368693D01*
X196493627Y-107321169D01*
X196707809Y-107179124D01*
X197929124Y-105957809D01*
X198064209Y-105760106D01*
X198118693Y-105508944D01*
X198071169Y-105256373D01*
X198046571Y-105219283D01*
X198066811Y-105223309D01*
X198414670Y-105154116D01*
X201054047Y-107793494D01*
X200963113Y-107884428D01*
X200828028Y-108082131D01*
X200773544Y-108333293D01*
X200821068Y-108585864D01*
X200963113Y-108800046D01*
X202399954Y-110236887D01*
X202597657Y-110371972D01*
X202848819Y-110426456D01*
X203101390Y-110378932D01*
X203315572Y-110236887D01*
X204536887Y-109015572D01*
X204671972Y-108817869D01*
X204726456Y-108566707D01*
X204678932Y-108314136D01*
X204655626Y-108278994D01*
X204676685Y-108283183D01*
X205250175Y-108169109D01*
X205736355Y-107844253D01*
X206061211Y-107358073D01*
X206175285Y-106784583D01*
X206102670Y-106419522D01*
X206659378Y-106450846D01*
X207211785Y-106257616D01*
X207224806Y-106248341D01*
X207303214Y-105998615D01*
X206342102Y-105037503D01*
X206327960Y-105051646D01*
X206148355Y-104872041D01*
X206162497Y-104857898D01*
X205201385Y-103896786D01*
X204951659Y-103975194D01*
X204942384Y-103988215D01*
X204749154Y-104540622D01*
X204780478Y-105097330D01*
X204415417Y-105024715D01*
X204032442Y-105100893D01*
X201278298Y-102346750D01*
X201361462Y-101928658D01*
X201285615Y-101547349D01*
X201413060Y-101593455D01*
X201997181Y-101566814D01*
X202413095Y-101394526D01*
X202491502Y-101144800D01*
X201638154Y-100291451D01*
X201624012Y-100305594D01*
X201444407Y-100125989D01*
X201458549Y-100111846D01*
X200605200Y-99258498D01*
X200605199Y-99258498D01*
X199842102Y-98495400D01*
X199827960Y-98509543D01*
X199648355Y-98329938D01*
X199662497Y-98315795D01*
X199648354Y-98301653D01*
X199827960Y-98122048D01*
X199842102Y-98136190D01*
X199856245Y-98122048D01*
X200035850Y-98301653D01*
X200035850Y-98301653D01*
G37*
X200035850Y-98301653D02*
X200021707Y-98315795D01*
X200875056Y-99169143D01*
X200875057Y-99169143D01*
X201638154Y-99932241D01*
X201652297Y-99918099D01*
X201831902Y-100097704D01*
X201817759Y-100111846D01*
X202671108Y-100965194D01*
X202920834Y-100886787D01*
X203093122Y-100470873D01*
X203119763Y-99886752D01*
X203073658Y-99759308D01*
X203454965Y-99835155D01*
X203802824Y-99765962D01*
X206585098Y-102548237D01*
X206508920Y-102931212D01*
X206581535Y-103296274D01*
X206024826Y-103264950D01*
X205472419Y-103458180D01*
X205459398Y-103467455D01*
X205380990Y-103717181D01*
X206342102Y-104678293D01*
X206356245Y-104664151D01*
X206535850Y-104843756D01*
X206521707Y-104857898D01*
X207450394Y-105786585D01*
X207584311Y-106110689D01*
X207665000Y-106191519D01*
X207665000Y-109000000D01*
X207728561Y-109319541D01*
X207892572Y-109565000D01*
X207909566Y-109590434D01*
X208920411Y-110601279D01*
X208920313Y-110713784D01*
X209084311Y-111110689D01*
X209387714Y-111414622D01*
X209784332Y-111579313D01*
X209915000Y-111579427D01*
X209915000Y-116495553D01*
X209640019Y-116770534D01*
X209386216Y-116770313D01*
X208989311Y-116934311D01*
X208685378Y-117237714D01*
X208520687Y-117634332D01*
X208520313Y-118063784D01*
X208684311Y-118460689D01*
X208987714Y-118764622D01*
X209384332Y-118929313D01*
X209468079Y-118929386D01*
X209584311Y-119210689D01*
X209887714Y-119514622D01*
X210284332Y-119679313D01*
X210713784Y-119679687D01*
X211110689Y-119515689D01*
X211414622Y-119212286D01*
X211579313Y-118815668D01*
X211579579Y-118509867D01*
X211919723Y-118169724D01*
X211970553Y-118093650D01*
X213063255Y-118093650D01*
X214000000Y-119030395D01*
X214936745Y-118093650D01*
X214844208Y-117831981D01*
X214252602Y-117613812D01*
X213622539Y-117638648D01*
X213155792Y-117831981D01*
X213063255Y-118093650D01*
X211970553Y-118093650D01*
X212079051Y-117931272D01*
X212088937Y-117881570D01*
X212135000Y-117650000D01*
X212135000Y-112104446D01*
X213271877Y-110967570D01*
X213434311Y-111360689D01*
X213737714Y-111664622D01*
X214036516Y-111788696D01*
X216303902Y-115211165D01*
X216362973Y-115270703D01*
X216409566Y-115340434D01*
X216476592Y-115385219D01*
X216533370Y-115442446D01*
X216610727Y-115474846D01*
X216680459Y-115521439D01*
X216759522Y-115537166D01*
X216833877Y-115568308D01*
X216917744Y-115568638D01*
X217000000Y-115585000D01*
X219904132Y-115585000D01*
X220415000Y-116095868D01*
X220415000Y-116808231D01*
X220335378Y-116887714D01*
X220170687Y-117284332D01*
X220170313Y-117713784D01*
X220334311Y-118110689D01*
X220637714Y-118414622D01*
X221034332Y-118579313D01*
X221463784Y-118579687D01*
X221860689Y-118415689D01*
X222164622Y-118112286D01*
X222329313Y-117715668D01*
X222329687Y-117286216D01*
X222165689Y-116889311D01*
X222085000Y-116808481D01*
X222085000Y-115750000D01*
X222062800Y-115638393D01*
X222021440Y-115430460D01*
X221840434Y-115159566D01*
X221055430Y-114374562D01*
X221146744Y-114116352D01*
X221180875Y-114150483D01*
X221196838Y-114235317D01*
X221335910Y-114451441D01*
X221548110Y-114596431D01*
X221800000Y-114647440D01*
X223700000Y-114647440D01*
X223935317Y-114603162D01*
X223965000Y-114584062D01*
X223965000Y-115600000D01*
X224011852Y-115835540D01*
X224020949Y-115881272D01*
X224180277Y-116119723D01*
X225009026Y-116948473D01*
X224827640Y-117385299D01*
X224827200Y-117888548D01*
X224815382Y-117870728D01*
X224391118Y-117446464D01*
X224193415Y-117311379D01*
X223942253Y-117256895D01*
X223689682Y-117304419D01*
X223475500Y-117446464D01*
X222414840Y-118507124D01*
X222331591Y-118628962D01*
X221980277Y-118980277D01*
X221918945Y-119072066D01*
X221889311Y-119084311D01*
X221585378Y-119387714D01*
X221420687Y-119784332D01*
X221420313Y-120213784D01*
X221565893Y-120566114D01*
X221215668Y-120420687D01*
X220786216Y-120420313D01*
X220389311Y-120584311D01*
X220085378Y-120887714D01*
X220072542Y-120918627D01*
X219980277Y-120980276D01*
X219771699Y-121188854D01*
X219657124Y-121264840D01*
X218596464Y-122325500D01*
X218461379Y-122523203D01*
X218406895Y-122774365D01*
X218454419Y-123026936D01*
X218596464Y-123241118D01*
X219020728Y-123665382D01*
X219111683Y-123727529D01*
X218588152Y-123727072D01*
X217987191Y-123975384D01*
X217527000Y-124434773D01*
X217447244Y-124626846D01*
X214166293Y-124626846D01*
X212858164Y-123318718D01*
X213000000Y-123347440D01*
X215000000Y-123347440D01*
X215235317Y-123303162D01*
X215451441Y-123164090D01*
X215596431Y-122951890D01*
X215647440Y-122700000D01*
X215647440Y-120800000D01*
X215603162Y-120564683D01*
X215464090Y-120348559D01*
X215251890Y-120203569D01*
X215153190Y-120183582D01*
X215116352Y-120146744D01*
X215378019Y-120054208D01*
X215596188Y-119462602D01*
X215571352Y-118832539D01*
X215378019Y-118365792D01*
X215116350Y-118273255D01*
X214179605Y-119210000D01*
X214193748Y-119224143D01*
X214014143Y-119403748D01*
X214000000Y-119389605D01*
X213985858Y-119403748D01*
X213806253Y-119224143D01*
X213820395Y-119210000D01*
X212883650Y-118273255D01*
X212621981Y-118365792D01*
X212403812Y-118957398D01*
X212428648Y-119587461D01*
X212621981Y-120054208D01*
X212883648Y-120146744D01*
X212849517Y-120180875D01*
X212764683Y-120196838D01*
X212548559Y-120335910D01*
X212403569Y-120548110D01*
X212352560Y-120800000D01*
X212352560Y-122700000D01*
X212378777Y-122839330D01*
X204158164Y-114618717D01*
X204300000Y-114647440D01*
X206200000Y-114647440D01*
X206435317Y-114603162D01*
X206651441Y-114464090D01*
X206796431Y-114251890D01*
X206816418Y-114153190D01*
X206853256Y-114116352D01*
X206945792Y-114378019D01*
X207537398Y-114596188D01*
X208167461Y-114571352D01*
X208634208Y-114378019D01*
X208726745Y-114116350D01*
X207790000Y-113179605D01*
X207775858Y-113193748D01*
X207596253Y-113014143D01*
X207610395Y-113000000D01*
X207969605Y-113000000D01*
X208906350Y-113936745D01*
X209168019Y-113844208D01*
X209386188Y-113252602D01*
X209361352Y-112622539D01*
X209168019Y-112155792D01*
X208906350Y-112063255D01*
X207969605Y-113000000D01*
X207610395Y-113000000D01*
X207596253Y-112985858D01*
X207775858Y-112806253D01*
X207790000Y-112820395D01*
X208726745Y-111883650D01*
X208634208Y-111621981D01*
X208042602Y-111403812D01*
X207412539Y-111428648D01*
X206945792Y-111621981D01*
X206853256Y-111883648D01*
X206819125Y-111849517D01*
X206803162Y-111764683D01*
X206664090Y-111548559D01*
X206451890Y-111403569D01*
X206200000Y-111352560D01*
X204300000Y-111352560D01*
X204064683Y-111396838D01*
X203848559Y-111535910D01*
X203703569Y-111748110D01*
X203652560Y-112000000D01*
X203652560Y-114000000D01*
X203678777Y-114139331D01*
X202019723Y-112480277D01*
X201781272Y-112320949D01*
X201500000Y-112265000D01*
X197897440Y-112265000D01*
X197897440Y-112000000D01*
X197853162Y-111764683D01*
X197714090Y-111548559D01*
X197501890Y-111403569D01*
X197250000Y-111352560D01*
X195350000Y-111352560D01*
X195114683Y-111396838D01*
X194898559Y-111535910D01*
X194753569Y-111748110D01*
X194733582Y-111846810D01*
X194696744Y-111883648D01*
X194604208Y-111621981D01*
X194012602Y-111403812D01*
X193382539Y-111428648D01*
X192915792Y-111621981D01*
X192823255Y-111883650D01*
X193760000Y-112820395D01*
X193774143Y-112806253D01*
X193953748Y-112985858D01*
X193939605Y-113000000D01*
X193953748Y-113014143D01*
X193774143Y-113193748D01*
X193760000Y-113179605D01*
X192823255Y-114116350D01*
X192915792Y-114378019D01*
X193507398Y-114596188D01*
X194137461Y-114571352D01*
X194604208Y-114378019D01*
X194696744Y-114116352D01*
X194730875Y-114150483D01*
X194746838Y-114235317D01*
X194885910Y-114451441D01*
X195098110Y-114596431D01*
X195350000Y-114647440D01*
X197250000Y-114647440D01*
X197485317Y-114603162D01*
X197701441Y-114464090D01*
X197846431Y-114251890D01*
X197897440Y-114000000D01*
X197897440Y-113735000D01*
X199224264Y-113735000D01*
X198763499Y-113925384D01*
X198303308Y-114384773D01*
X198206791Y-114617213D01*
X198128454Y-114632795D01*
X197890003Y-114792122D01*
X196139557Y-116542568D01*
X195952174Y-116355185D01*
X195754471Y-116220100D01*
X195503309Y-116165616D01*
X195250738Y-116213140D01*
X195036556Y-116355185D01*
X193905185Y-117486556D01*
X193770100Y-117684259D01*
X193715616Y-117935421D01*
X193763140Y-118187992D01*
X193905185Y-118402174D01*
X194568755Y-119065744D01*
X193976306Y-119065226D01*
X193375345Y-119313538D01*
X192915154Y-119772927D01*
X192735000Y-120206786D01*
X192735000Y-114750000D01*
X192679051Y-114468728D01*
X192653481Y-114430460D01*
X192519724Y-114230277D01*
X192235000Y-113945554D01*
X192235000Y-113489365D01*
X192381981Y-113844208D01*
X192643650Y-113936745D01*
X193580395Y-113000000D01*
X192643650Y-112063255D01*
X192381981Y-112155792D01*
X192235000Y-112554358D01*
X192235000Y-110554446D01*
X195701257Y-107088190D01*
X195792191Y-107179124D01*
X195989894Y-107314209D01*
X196241056Y-107368693D01*
X196493627Y-107321169D01*
X196707809Y-107179124D01*
X197929124Y-105957809D01*
X198064209Y-105760106D01*
X198118693Y-105508944D01*
X198071169Y-105256373D01*
X198046571Y-105219283D01*
X198066811Y-105223309D01*
X198414670Y-105154116D01*
X201054047Y-107793494D01*
X200963113Y-107884428D01*
X200828028Y-108082131D01*
X200773544Y-108333293D01*
X200821068Y-108585864D01*
X200963113Y-108800046D01*
X202399954Y-110236887D01*
X202597657Y-110371972D01*
X202848819Y-110426456D01*
X203101390Y-110378932D01*
X203315572Y-110236887D01*
X204536887Y-109015572D01*
X204671972Y-108817869D01*
X204726456Y-108566707D01*
X204678932Y-108314136D01*
X204655626Y-108278994D01*
X204676685Y-108283183D01*
X205250175Y-108169109D01*
X205736355Y-107844253D01*
X206061211Y-107358073D01*
X206175285Y-106784583D01*
X206102670Y-106419522D01*
X206659378Y-106450846D01*
X207211785Y-106257616D01*
X207224806Y-106248341D01*
X207303214Y-105998615D01*
X206342102Y-105037503D01*
X206327960Y-105051646D01*
X206148355Y-104872041D01*
X206162497Y-104857898D01*
X205201385Y-103896786D01*
X204951659Y-103975194D01*
X204942384Y-103988215D01*
X204749154Y-104540622D01*
X204780478Y-105097330D01*
X204415417Y-105024715D01*
X204032442Y-105100893D01*
X201278298Y-102346750D01*
X201361462Y-101928658D01*
X201285615Y-101547349D01*
X201413060Y-101593455D01*
X201997181Y-101566814D01*
X202413095Y-101394526D01*
X202491502Y-101144800D01*
X201638154Y-100291451D01*
X201624012Y-100305594D01*
X201444407Y-100125989D01*
X201458549Y-100111846D01*
X200605200Y-99258498D01*
X200605199Y-99258498D01*
X199842102Y-98495400D01*
X199827960Y-98509543D01*
X199648355Y-98329938D01*
X199662497Y-98315795D01*
X199648354Y-98301653D01*
X199827960Y-98122048D01*
X199842102Y-98136190D01*
X199856245Y-98122048D01*
X200035850Y-98301653D01*
G36*
X228032430Y-99671877D02*
X227639311Y-99834311D01*
X227335378Y-100137714D01*
X227170687Y-100534332D01*
X227170568Y-100670430D01*
X227036216Y-100670313D01*
X226639311Y-100834311D01*
X226335378Y-101137714D01*
X226170687Y-101534332D01*
X226170313Y-101963784D01*
X226334311Y-102360689D01*
X226637714Y-102664622D01*
X226642099Y-102666443D01*
X227307214Y-103331558D01*
X227321357Y-103317416D01*
X227500962Y-103497021D01*
X227486819Y-103511163D01*
X227500962Y-103525306D01*
X227321357Y-103704911D01*
X227307214Y-103690768D01*
X227047883Y-103950099D01*
X227047882Y-103950099D01*
X226588793Y-104409188D01*
X227366080Y-105186475D01*
X227590587Y-105186475D01*
X227689978Y-105087084D01*
X227776419Y-104878395D01*
X227931033Y-104814352D01*
X227915616Y-104885421D01*
X227963140Y-105137992D01*
X228105185Y-105352174D01*
X228292568Y-105539557D01*
X226922627Y-106909499D01*
X226576547Y-106765794D01*
X225952462Y-106765249D01*
X225971349Y-106678182D01*
X226189059Y-106588004D01*
X226288450Y-106488613D01*
X226288450Y-106264106D01*
X225511163Y-105486819D01*
X225497021Y-105500962D01*
X225317416Y-105321357D01*
X225331558Y-105307214D01*
X225690768Y-105307214D01*
X226468055Y-106084501D01*
X226692562Y-106084501D01*
X226791953Y-105985110D01*
X226878395Y-105776419D01*
X227087084Y-105689978D01*
X227186475Y-105590587D01*
X227186475Y-105366080D01*
X226409188Y-104588793D01*
X225950099Y-105047882D01*
X225950099Y-105047883D01*
X225690768Y-105307214D01*
X225331558Y-105307214D01*
X224554271Y-104529927D01*
X224329764Y-104529927D01*
X224230373Y-104629318D01*
X224160914Y-104797008D01*
X224000000Y-104765000D01*
X223050000Y-104765000D01*
X222768728Y-104820949D01*
X222530277Y-104980276D01*
X221680277Y-105830277D01*
X221520949Y-106068728D01*
X221465000Y-106350000D01*
X221465000Y-107200000D01*
X221502585Y-107388949D01*
X221520949Y-107481272D01*
X221680277Y-107719723D01*
X223180276Y-109219723D01*
X223340937Y-109327073D01*
X223418728Y-109379051D01*
X223700000Y-109435000D01*
X224095554Y-109435000D01*
X225480277Y-110819724D01*
X225692982Y-110961848D01*
X225718728Y-110979051D01*
X226000000Y-111035000D01*
X226857298Y-111035000D01*
X227075384Y-111562809D01*
X227534773Y-112023000D01*
X228135299Y-112272360D01*
X228785540Y-112272928D01*
X229386501Y-112024616D01*
X229846692Y-111565227D01*
X229929704Y-111365311D01*
X230171546Y-111317205D01*
X230409997Y-111157877D01*
X232160443Y-109407432D01*
X232347826Y-109594815D01*
X232545529Y-109729900D01*
X232796691Y-109784384D01*
X233049262Y-109736860D01*
X233263444Y-109594815D01*
X234394815Y-108463444D01*
X234529900Y-108265741D01*
X234584384Y-108014579D01*
X234536860Y-107762008D01*
X234394815Y-107547826D01*
X233731377Y-106884388D01*
X234173694Y-106884774D01*
X234774655Y-106636462D01*
X235234846Y-106177073D01*
X235441045Y-105680491D01*
X235665000Y-105904447D01*
X235665000Y-112269214D01*
X235618019Y-112155792D01*
X235356350Y-112063255D01*
X234419605Y-113000000D01*
X235356350Y-113936745D01*
X235618019Y-113844208D01*
X235665000Y-113716810D01*
X235665000Y-114495553D01*
X233530277Y-116630277D01*
X233370949Y-116868728D01*
X233315000Y-117150000D01*
X233315000Y-119435174D01*
X233125345Y-119513538D01*
X232665154Y-119972927D01*
X232585398Y-120165000D01*
X231100000Y-120165000D01*
X230818728Y-120220949D01*
X230580277Y-120380276D01*
X229396846Y-121563708D01*
X229396846Y-116976672D01*
X229586501Y-116898308D01*
X230046692Y-116438919D01*
X230296052Y-115838393D01*
X230296620Y-115188152D01*
X230217199Y-114995939D01*
X230596735Y-114616403D01*
X230750000Y-114647440D01*
X232650000Y-114647440D01*
X232885317Y-114603162D01*
X233101441Y-114464090D01*
X233246431Y-114251890D01*
X233266418Y-114153190D01*
X233303256Y-114116352D01*
X233395792Y-114378019D01*
X233987398Y-114596188D01*
X234617461Y-114571352D01*
X235084208Y-114378019D01*
X235176745Y-114116350D01*
X234240000Y-113179605D01*
X234225858Y-113193748D01*
X234046253Y-113014143D01*
X234060395Y-113000000D01*
X234046253Y-112985858D01*
X234225858Y-112806253D01*
X234240000Y-112820395D01*
X235176745Y-111883650D01*
X235084208Y-111621981D01*
X234492602Y-111403812D01*
X233862539Y-111428648D01*
X233395792Y-111621981D01*
X233303256Y-111883648D01*
X233269125Y-111849517D01*
X233253162Y-111764683D01*
X233114090Y-111548559D01*
X232901890Y-111403569D01*
X232650000Y-111352560D01*
X230750000Y-111352560D01*
X230514683Y-111396838D01*
X230298559Y-111535910D01*
X230153569Y-111748110D01*
X230102560Y-112000000D01*
X230102560Y-113031685D01*
X229177911Y-113956335D01*
X228988393Y-113877640D01*
X228338152Y-113877072D01*
X227737191Y-114125384D01*
X227277000Y-114584773D01*
X227027640Y-115185299D01*
X227027072Y-115835540D01*
X227197255Y-116247414D01*
X226788393Y-116077640D01*
X226216587Y-116077141D01*
X225435000Y-115295554D01*
X225435000Y-112350000D01*
X225379051Y-112068728D01*
X225348497Y-112023000D01*
X225219723Y-111830276D01*
X223719723Y-110330277D01*
X223481272Y-110170949D01*
X223200000Y-110115000D01*
X222554447Y-110115000D01*
X217835000Y-105395554D01*
X217835000Y-104174446D01*
X218980276Y-105319723D01*
X219168494Y-105445486D01*
X219218728Y-105479051D01*
X219500000Y-105535000D01*
X220800000Y-105535000D01*
X221081272Y-105479051D01*
X221319723Y-105319723D01*
X221919723Y-104719724D01*
X222079051Y-104481272D01*
X222086462Y-104444013D01*
X222135000Y-104200000D01*
X222135000Y-104125815D01*
X224733876Y-104125815D01*
X224733876Y-104350322D01*
X225511163Y-105127609D01*
X225970252Y-104668520D01*
X225970252Y-104668519D01*
X226229583Y-104409188D01*
X225452296Y-103631901D01*
X225227789Y-103631901D01*
X225128398Y-103731292D01*
X225041956Y-103939983D01*
X224833267Y-104026424D01*
X224733876Y-104125815D01*
X222135000Y-104125815D01*
X222135000Y-103227789D01*
X225631901Y-103227789D01*
X225631901Y-103452296D01*
X226409188Y-104229583D01*
X226668519Y-103970252D01*
X226668520Y-103970252D01*
X227127609Y-103511163D01*
X226350322Y-102733876D01*
X226125815Y-102733876D01*
X226026424Y-102833267D01*
X225939983Y-103041956D01*
X225731292Y-103128398D01*
X225631901Y-103227789D01*
X222135000Y-103227789D01*
X222135000Y-102992103D01*
X222129749Y-102965704D01*
X222130116Y-102965167D01*
X222152972Y-102859805D01*
X222370682Y-102769627D01*
X222470073Y-102670236D01*
X222470073Y-102445729D01*
X221692786Y-101668442D01*
X221678644Y-101682585D01*
X221499039Y-101502980D01*
X221513181Y-101488837D01*
X221499039Y-101474695D01*
X221678644Y-101295090D01*
X221692786Y-101309232D01*
X221706929Y-101295090D01*
X221886534Y-101474695D01*
X221872391Y-101488837D01*
X222649678Y-102266124D01*
X222874185Y-102266124D01*
X222973576Y-102166733D01*
X223063381Y-101949922D01*
X223152637Y-101933128D01*
X223366819Y-101791083D01*
X223791083Y-101366819D01*
X223926168Y-101169116D01*
X223949024Y-101063753D01*
X224166733Y-100973576D01*
X224266124Y-100874185D01*
X224266124Y-100649678D01*
X223488837Y-99872391D01*
X223474695Y-99886534D01*
X223295090Y-99706929D01*
X223309232Y-99692786D01*
X223295090Y-99678644D01*
X223474695Y-99499039D01*
X223488837Y-99513181D01*
X223502980Y-99499039D01*
X223682585Y-99678644D01*
X223668442Y-99692786D01*
X224332879Y-100357223D01*
X224334311Y-100360689D01*
X224637714Y-100664622D01*
X225034332Y-100829313D01*
X225463784Y-100829687D01*
X225860689Y-100665689D01*
X226164622Y-100362286D01*
X226329313Y-99965668D01*
X226329432Y-99829570D01*
X226463784Y-99829687D01*
X226860689Y-99665689D01*
X227164622Y-99362286D01*
X227328406Y-98967852D01*
X228032430Y-99671877D01*
X228032430Y-99671877D01*
G37*
X228032430Y-99671877D02*
X227639311Y-99834311D01*
X227335378Y-100137714D01*
X227170687Y-100534332D01*
X227170568Y-100670430D01*
X227036216Y-100670313D01*
X226639311Y-100834311D01*
X226335378Y-101137714D01*
X226170687Y-101534332D01*
X226170313Y-101963784D01*
X226334311Y-102360689D01*
X226637714Y-102664622D01*
X226642099Y-102666443D01*
X227307214Y-103331558D01*
X227321357Y-103317416D01*
X227500962Y-103497021D01*
X227486819Y-103511163D01*
X227500962Y-103525306D01*
X227321357Y-103704911D01*
X227307214Y-103690768D01*
X227047883Y-103950099D01*
X227047882Y-103950099D01*
X226588793Y-104409188D01*
X227366080Y-105186475D01*
X227590587Y-105186475D01*
X227689978Y-105087084D01*
X227776419Y-104878395D01*
X227931033Y-104814352D01*
X227915616Y-104885421D01*
X227963140Y-105137992D01*
X228105185Y-105352174D01*
X228292568Y-105539557D01*
X226922627Y-106909499D01*
X226576547Y-106765794D01*
X225952462Y-106765249D01*
X225971349Y-106678182D01*
X226189059Y-106588004D01*
X226288450Y-106488613D01*
X226288450Y-106264106D01*
X225511163Y-105486819D01*
X225497021Y-105500962D01*
X225317416Y-105321357D01*
X225331558Y-105307214D01*
X225690768Y-105307214D01*
X226468055Y-106084501D01*
X226692562Y-106084501D01*
X226791953Y-105985110D01*
X226878395Y-105776419D01*
X227087084Y-105689978D01*
X227186475Y-105590587D01*
X227186475Y-105366080D01*
X226409188Y-104588793D01*
X225950099Y-105047882D01*
X225950099Y-105047883D01*
X225690768Y-105307214D01*
X225331558Y-105307214D01*
X224554271Y-104529927D01*
X224329764Y-104529927D01*
X224230373Y-104629318D01*
X224160914Y-104797008D01*
X224000000Y-104765000D01*
X223050000Y-104765000D01*
X222768728Y-104820949D01*
X222530277Y-104980276D01*
X221680277Y-105830277D01*
X221520949Y-106068728D01*
X221465000Y-106350000D01*
X221465000Y-107200000D01*
X221502585Y-107388949D01*
X221520949Y-107481272D01*
X221680277Y-107719723D01*
X223180276Y-109219723D01*
X223340937Y-109327073D01*
X223418728Y-109379051D01*
X223700000Y-109435000D01*
X224095554Y-109435000D01*
X225480277Y-110819724D01*
X225692982Y-110961848D01*
X225718728Y-110979051D01*
X226000000Y-111035000D01*
X226857298Y-111035000D01*
X227075384Y-111562809D01*
X227534773Y-112023000D01*
X228135299Y-112272360D01*
X228785540Y-112272928D01*
X229386501Y-112024616D01*
X229846692Y-111565227D01*
X229929704Y-111365311D01*
X230171546Y-111317205D01*
X230409997Y-111157877D01*
X232160443Y-109407432D01*
X232347826Y-109594815D01*
X232545529Y-109729900D01*
X232796691Y-109784384D01*
X233049262Y-109736860D01*
X233263444Y-109594815D01*
X234394815Y-108463444D01*
X234529900Y-108265741D01*
X234584384Y-108014579D01*
X234536860Y-107762008D01*
X234394815Y-107547826D01*
X233731377Y-106884388D01*
X234173694Y-106884774D01*
X234774655Y-106636462D01*
X235234846Y-106177073D01*
X235441045Y-105680491D01*
X235665000Y-105904447D01*
X235665000Y-112269214D01*
X235618019Y-112155792D01*
X235356350Y-112063255D01*
X234419605Y-113000000D01*
X235356350Y-113936745D01*
X235618019Y-113844208D01*
X235665000Y-113716810D01*
X235665000Y-114495553D01*
X233530277Y-116630277D01*
X233370949Y-116868728D01*
X233315000Y-117150000D01*
X233315000Y-119435174D01*
X233125345Y-119513538D01*
X232665154Y-119972927D01*
X232585398Y-120165000D01*
X231100000Y-120165000D01*
X230818728Y-120220949D01*
X230580277Y-120380276D01*
X229396846Y-121563708D01*
X229396846Y-116976672D01*
X229586501Y-116898308D01*
X230046692Y-116438919D01*
X230296052Y-115838393D01*
X230296620Y-115188152D01*
X230217199Y-114995939D01*
X230596735Y-114616403D01*
X230750000Y-114647440D01*
X232650000Y-114647440D01*
X232885317Y-114603162D01*
X233101441Y-114464090D01*
X233246431Y-114251890D01*
X233266418Y-114153190D01*
X233303256Y-114116352D01*
X233395792Y-114378019D01*
X233987398Y-114596188D01*
X234617461Y-114571352D01*
X235084208Y-114378019D01*
X235176745Y-114116350D01*
X234240000Y-113179605D01*
X234225858Y-113193748D01*
X234046253Y-113014143D01*
X234060395Y-113000000D01*
X234046253Y-112985858D01*
X234225858Y-112806253D01*
X234240000Y-112820395D01*
X235176745Y-111883650D01*
X235084208Y-111621981D01*
X234492602Y-111403812D01*
X233862539Y-111428648D01*
X233395792Y-111621981D01*
X233303256Y-111883648D01*
X233269125Y-111849517D01*
X233253162Y-111764683D01*
X233114090Y-111548559D01*
X232901890Y-111403569D01*
X232650000Y-111352560D01*
X230750000Y-111352560D01*
X230514683Y-111396838D01*
X230298559Y-111535910D01*
X230153569Y-111748110D01*
X230102560Y-112000000D01*
X230102560Y-113031685D01*
X229177911Y-113956335D01*
X228988393Y-113877640D01*
X228338152Y-113877072D01*
X227737191Y-114125384D01*
X227277000Y-114584773D01*
X227027640Y-115185299D01*
X227027072Y-115835540D01*
X227197255Y-116247414D01*
X226788393Y-116077640D01*
X226216587Y-116077141D01*
X225435000Y-115295554D01*
X225435000Y-112350000D01*
X225379051Y-112068728D01*
X225348497Y-112023000D01*
X225219723Y-111830276D01*
X223719723Y-110330277D01*
X223481272Y-110170949D01*
X223200000Y-110115000D01*
X222554447Y-110115000D01*
X217835000Y-105395554D01*
X217835000Y-104174446D01*
X218980276Y-105319723D01*
X219168494Y-105445486D01*
X219218728Y-105479051D01*
X219500000Y-105535000D01*
X220800000Y-105535000D01*
X221081272Y-105479051D01*
X221319723Y-105319723D01*
X221919723Y-104719724D01*
X222079051Y-104481272D01*
X222086462Y-104444013D01*
X222135000Y-104200000D01*
X222135000Y-104125815D01*
X224733876Y-104125815D01*
X224733876Y-104350322D01*
X225511163Y-105127609D01*
X225970252Y-104668520D01*
X225970252Y-104668519D01*
X226229583Y-104409188D01*
X225452296Y-103631901D01*
X225227789Y-103631901D01*
X225128398Y-103731292D01*
X225041956Y-103939983D01*
X224833267Y-104026424D01*
X224733876Y-104125815D01*
X222135000Y-104125815D01*
X222135000Y-103227789D01*
X225631901Y-103227789D01*
X225631901Y-103452296D01*
X226409188Y-104229583D01*
X226668519Y-103970252D01*
X226668520Y-103970252D01*
X227127609Y-103511163D01*
X226350322Y-102733876D01*
X226125815Y-102733876D01*
X226026424Y-102833267D01*
X225939983Y-103041956D01*
X225731292Y-103128398D01*
X225631901Y-103227789D01*
X222135000Y-103227789D01*
X222135000Y-102992103D01*
X222129749Y-102965704D01*
X222130116Y-102965167D01*
X222152972Y-102859805D01*
X222370682Y-102769627D01*
X222470073Y-102670236D01*
X222470073Y-102445729D01*
X221692786Y-101668442D01*
X221678644Y-101682585D01*
X221499039Y-101502980D01*
X221513181Y-101488837D01*
X221499039Y-101474695D01*
X221678644Y-101295090D01*
X221692786Y-101309232D01*
X221706929Y-101295090D01*
X221886534Y-101474695D01*
X221872391Y-101488837D01*
X222649678Y-102266124D01*
X222874185Y-102266124D01*
X222973576Y-102166733D01*
X223063381Y-101949922D01*
X223152637Y-101933128D01*
X223366819Y-101791083D01*
X223791083Y-101366819D01*
X223926168Y-101169116D01*
X223949024Y-101063753D01*
X224166733Y-100973576D01*
X224266124Y-100874185D01*
X224266124Y-100649678D01*
X223488837Y-99872391D01*
X223474695Y-99886534D01*
X223295090Y-99706929D01*
X223309232Y-99692786D01*
X223295090Y-99678644D01*
X223474695Y-99499039D01*
X223488837Y-99513181D01*
X223502980Y-99499039D01*
X223682585Y-99678644D01*
X223668442Y-99692786D01*
X224332879Y-100357223D01*
X224334311Y-100360689D01*
X224637714Y-100664622D01*
X225034332Y-100829313D01*
X225463784Y-100829687D01*
X225860689Y-100665689D01*
X226164622Y-100362286D01*
X226329313Y-99965668D01*
X226329432Y-99829570D01*
X226463784Y-99829687D01*
X226860689Y-99665689D01*
X227164622Y-99362286D01*
X227328406Y-98967852D01*
X228032430Y-99671877D01*
G36*
X220403748Y-112985858D02*
X220389605Y-113000000D01*
X220403748Y-113014143D01*
X220224143Y-113193748D01*
X220210000Y-113179605D01*
X220195858Y-113193748D01*
X220016253Y-113014143D01*
X220030395Y-113000000D01*
X220016253Y-112985858D01*
X220195858Y-112806253D01*
X220210000Y-112820395D01*
X220224143Y-112806253D01*
X220403748Y-112985858D01*
X220403748Y-112985858D01*
G37*
X220403748Y-112985858D02*
X220389605Y-113000000D01*
X220403748Y-113014143D01*
X220224143Y-113193748D01*
X220210000Y-113179605D01*
X220195858Y-113193748D01*
X220016253Y-113014143D01*
X220030395Y-113000000D01*
X220016253Y-112985858D01*
X220195858Y-112806253D01*
X220210000Y-112820395D01*
X220224143Y-112806253D01*
X220403748Y-112985858D01*
G36*
X216080277Y-91519724D02*
X216318728Y-91679051D01*
X216600000Y-91735000D01*
X220965421Y-91735000D01*
X220775345Y-91813538D01*
X220315154Y-92272927D01*
X220065794Y-92873453D01*
X220065449Y-93268460D01*
X219502174Y-92705185D01*
X219304471Y-92570100D01*
X219053309Y-92515616D01*
X218800738Y-92563140D01*
X218586556Y-92705185D01*
X217455185Y-93836556D01*
X217320100Y-94034259D01*
X217265616Y-94285421D01*
X217313140Y-94537992D01*
X217455185Y-94752174D01*
X217642568Y-94939557D01*
X215792123Y-96790003D01*
X215632795Y-97028454D01*
X215617243Y-97106636D01*
X215387191Y-97201692D01*
X214927000Y-97661081D01*
X214735000Y-98123469D01*
X214735000Y-96897440D01*
X215000000Y-96897440D01*
X215235317Y-96853162D01*
X215451441Y-96714090D01*
X215596431Y-96501890D01*
X215647440Y-96250000D01*
X215647440Y-94350000D01*
X215603162Y-94114683D01*
X215464090Y-93898559D01*
X215251890Y-93753569D01*
X215153190Y-93733582D01*
X215116352Y-93696744D01*
X215378019Y-93604208D01*
X215596188Y-93012602D01*
X215571352Y-92382539D01*
X215378019Y-91915792D01*
X215116350Y-91823255D01*
X214179605Y-92760000D01*
X214193748Y-92774143D01*
X214014143Y-92953748D01*
X214000000Y-92939605D01*
X213985858Y-92953748D01*
X213806253Y-92774143D01*
X213820395Y-92760000D01*
X212883650Y-91823255D01*
X212621981Y-91915792D01*
X212403812Y-92507398D01*
X212428648Y-93137461D01*
X212621981Y-93604208D01*
X212883648Y-93696744D01*
X212849517Y-93730875D01*
X212764683Y-93746838D01*
X212548559Y-93885910D01*
X212403569Y-94098110D01*
X212352560Y-94350000D01*
X212352560Y-96250000D01*
X212396838Y-96485317D01*
X212535910Y-96701441D01*
X212748110Y-96846431D01*
X213000000Y-96897440D01*
X213265000Y-96897440D01*
X213265000Y-100950000D01*
X213318896Y-101220949D01*
X213320949Y-101231272D01*
X213480277Y-101469723D01*
X214663114Y-102652560D01*
X213000000Y-102652560D01*
X212764683Y-102696838D01*
X212548559Y-102835910D01*
X212403569Y-103048110D01*
X212352560Y-103300000D01*
X212352560Y-105200000D01*
X212396838Y-105435317D01*
X212535910Y-105651441D01*
X212748110Y-105796431D01*
X212846810Y-105816418D01*
X212883648Y-105853256D01*
X212621981Y-105945792D01*
X212403812Y-106537398D01*
X212428648Y-107167461D01*
X212621981Y-107634208D01*
X212883650Y-107726745D01*
X213820395Y-106790000D01*
X213806253Y-106775858D01*
X213985858Y-106596253D01*
X214000000Y-106610395D01*
X214014143Y-106596253D01*
X214193748Y-106775858D01*
X214179605Y-106790000D01*
X215116350Y-107726745D01*
X215378019Y-107634208D01*
X215596188Y-107042602D01*
X215571352Y-106412539D01*
X215378019Y-105945792D01*
X215116352Y-105853256D01*
X215150483Y-105819125D01*
X215235317Y-105803162D01*
X215451441Y-105664090D01*
X215596431Y-105451890D01*
X215647440Y-105200000D01*
X215647440Y-103636887D01*
X216365000Y-104354447D01*
X216365000Y-105700000D01*
X216408552Y-105918949D01*
X216420949Y-105981272D01*
X216580277Y-106219723D01*
X216730949Y-106370396D01*
X216636216Y-106370313D01*
X216239311Y-106534311D01*
X215935378Y-106837714D01*
X215770687Y-107234332D01*
X215770464Y-107490090D01*
X214995554Y-108265000D01*
X214610075Y-108265000D01*
X214844208Y-108168019D01*
X214936745Y-107906350D01*
X214000000Y-106969605D01*
X213063255Y-107906350D01*
X213155792Y-108168019D01*
X213418774Y-108265000D01*
X213000000Y-108265000D01*
X212718728Y-108320949D01*
X212480277Y-108480276D01*
X210961170Y-109999384D01*
X210915689Y-109889311D01*
X210612286Y-109585378D01*
X210215668Y-109420687D01*
X210101456Y-109420588D01*
X209335000Y-108654132D01*
X209335000Y-106191769D01*
X209414622Y-106112286D01*
X209579313Y-105715668D01*
X209579687Y-105286216D01*
X209415689Y-104889311D01*
X209112286Y-104585378D01*
X208938036Y-104513023D01*
X209328458Y-104252150D01*
X209653314Y-103765970D01*
X209767388Y-103192480D01*
X209693530Y-102821171D01*
X210064839Y-102895029D01*
X210638329Y-102780955D01*
X211124509Y-102456099D01*
X211449365Y-101969919D01*
X211563439Y-101396429D01*
X211449365Y-100822939D01*
X211124509Y-100336759D01*
X210863241Y-100075491D01*
X210377061Y-99750635D01*
X209803571Y-99636561D01*
X209230081Y-99750635D01*
X208743901Y-100075491D01*
X208419045Y-100561671D01*
X208304971Y-101135161D01*
X208378829Y-101506470D01*
X208007520Y-101432612D01*
X207624545Y-101508790D01*
X204870401Y-98754647D01*
X204953565Y-98336555D01*
X204879707Y-97965246D01*
X205251016Y-98039104D01*
X205824506Y-97925030D01*
X206310686Y-97600174D01*
X206635542Y-97113994D01*
X206749616Y-96540504D01*
X206675758Y-96169195D01*
X207047067Y-96243053D01*
X207620557Y-96128979D01*
X208106737Y-95804123D01*
X208431593Y-95317943D01*
X208545667Y-94744453D01*
X208462600Y-94326846D01*
X211145796Y-91643650D01*
X213063255Y-91643650D01*
X214000000Y-92580395D01*
X214936745Y-91643650D01*
X214844208Y-91381981D01*
X214252602Y-91163812D01*
X213622539Y-91188648D01*
X213155792Y-91381981D01*
X213063255Y-91643650D01*
X211145796Y-91643650D01*
X212054447Y-90735000D01*
X215295554Y-90735000D01*
X216080277Y-91519724D01*
X216080277Y-91519724D01*
G37*
X216080277Y-91519724D02*
X216318728Y-91679051D01*
X216600000Y-91735000D01*
X220965421Y-91735000D01*
X220775345Y-91813538D01*
X220315154Y-92272927D01*
X220065794Y-92873453D01*
X220065449Y-93268460D01*
X219502174Y-92705185D01*
X219304471Y-92570100D01*
X219053309Y-92515616D01*
X218800738Y-92563140D01*
X218586556Y-92705185D01*
X217455185Y-93836556D01*
X217320100Y-94034259D01*
X217265616Y-94285421D01*
X217313140Y-94537992D01*
X217455185Y-94752174D01*
X217642568Y-94939557D01*
X215792123Y-96790003D01*
X215632795Y-97028454D01*
X215617243Y-97106636D01*
X215387191Y-97201692D01*
X214927000Y-97661081D01*
X214735000Y-98123469D01*
X214735000Y-96897440D01*
X215000000Y-96897440D01*
X215235317Y-96853162D01*
X215451441Y-96714090D01*
X215596431Y-96501890D01*
X215647440Y-96250000D01*
X215647440Y-94350000D01*
X215603162Y-94114683D01*
X215464090Y-93898559D01*
X215251890Y-93753569D01*
X215153190Y-93733582D01*
X215116352Y-93696744D01*
X215378019Y-93604208D01*
X215596188Y-93012602D01*
X215571352Y-92382539D01*
X215378019Y-91915792D01*
X215116350Y-91823255D01*
X214179605Y-92760000D01*
X214193748Y-92774143D01*
X214014143Y-92953748D01*
X214000000Y-92939605D01*
X213985858Y-92953748D01*
X213806253Y-92774143D01*
X213820395Y-92760000D01*
X212883650Y-91823255D01*
X212621981Y-91915792D01*
X212403812Y-92507398D01*
X212428648Y-93137461D01*
X212621981Y-93604208D01*
X212883648Y-93696744D01*
X212849517Y-93730875D01*
X212764683Y-93746838D01*
X212548559Y-93885910D01*
X212403569Y-94098110D01*
X212352560Y-94350000D01*
X212352560Y-96250000D01*
X212396838Y-96485317D01*
X212535910Y-96701441D01*
X212748110Y-96846431D01*
X213000000Y-96897440D01*
X213265000Y-96897440D01*
X213265000Y-100950000D01*
X213318896Y-101220949D01*
X213320949Y-101231272D01*
X213480277Y-101469723D01*
X214663114Y-102652560D01*
X213000000Y-102652560D01*
X212764683Y-102696838D01*
X212548559Y-102835910D01*
X212403569Y-103048110D01*
X212352560Y-103300000D01*
X212352560Y-105200000D01*
X212396838Y-105435317D01*
X212535910Y-105651441D01*
X212748110Y-105796431D01*
X212846810Y-105816418D01*
X212883648Y-105853256D01*
X212621981Y-105945792D01*
X212403812Y-106537398D01*
X212428648Y-107167461D01*
X212621981Y-107634208D01*
X212883650Y-107726745D01*
X213820395Y-106790000D01*
X213806253Y-106775858D01*
X213985858Y-106596253D01*
X214000000Y-106610395D01*
X214014143Y-106596253D01*
X214193748Y-106775858D01*
X214179605Y-106790000D01*
X215116350Y-107726745D01*
X215378019Y-107634208D01*
X215596188Y-107042602D01*
X215571352Y-106412539D01*
X215378019Y-105945792D01*
X215116352Y-105853256D01*
X215150483Y-105819125D01*
X215235317Y-105803162D01*
X215451441Y-105664090D01*
X215596431Y-105451890D01*
X215647440Y-105200000D01*
X215647440Y-103636887D01*
X216365000Y-104354447D01*
X216365000Y-105700000D01*
X216408552Y-105918949D01*
X216420949Y-105981272D01*
X216580277Y-106219723D01*
X216730949Y-106370396D01*
X216636216Y-106370313D01*
X216239311Y-106534311D01*
X215935378Y-106837714D01*
X215770687Y-107234332D01*
X215770464Y-107490090D01*
X214995554Y-108265000D01*
X214610075Y-108265000D01*
X214844208Y-108168019D01*
X214936745Y-107906350D01*
X214000000Y-106969605D01*
X213063255Y-107906350D01*
X213155792Y-108168019D01*
X213418774Y-108265000D01*
X213000000Y-108265000D01*
X212718728Y-108320949D01*
X212480277Y-108480276D01*
X210961170Y-109999384D01*
X210915689Y-109889311D01*
X210612286Y-109585378D01*
X210215668Y-109420687D01*
X210101456Y-109420588D01*
X209335000Y-108654132D01*
X209335000Y-106191769D01*
X209414622Y-106112286D01*
X209579313Y-105715668D01*
X209579687Y-105286216D01*
X209415689Y-104889311D01*
X209112286Y-104585378D01*
X208938036Y-104513023D01*
X209328458Y-104252150D01*
X209653314Y-103765970D01*
X209767388Y-103192480D01*
X209693530Y-102821171D01*
X210064839Y-102895029D01*
X210638329Y-102780955D01*
X211124509Y-102456099D01*
X211449365Y-101969919D01*
X211563439Y-101396429D01*
X211449365Y-100822939D01*
X211124509Y-100336759D01*
X210863241Y-100075491D01*
X210377061Y-99750635D01*
X209803571Y-99636561D01*
X209230081Y-99750635D01*
X208743901Y-100075491D01*
X208419045Y-100561671D01*
X208304971Y-101135161D01*
X208378829Y-101506470D01*
X208007520Y-101432612D01*
X207624545Y-101508790D01*
X204870401Y-98754647D01*
X204953565Y-98336555D01*
X204879707Y-97965246D01*
X205251016Y-98039104D01*
X205824506Y-97925030D01*
X206310686Y-97600174D01*
X206635542Y-97113994D01*
X206749616Y-96540504D01*
X206675758Y-96169195D01*
X207047067Y-96243053D01*
X207620557Y-96128979D01*
X208106737Y-95804123D01*
X208431593Y-95317943D01*
X208545667Y-94744453D01*
X208462600Y-94326846D01*
X211145796Y-91643650D01*
X213063255Y-91643650D01*
X214000000Y-92580395D01*
X214936745Y-91643650D01*
X214844208Y-91381981D01*
X214252602Y-91163812D01*
X213622539Y-91188648D01*
X213155792Y-91381981D01*
X213063255Y-91643650D01*
X211145796Y-91643650D01*
X212054447Y-90735000D01*
X215295554Y-90735000D01*
X216080277Y-91519724D01*
M02*
