%FSLAX45Y45*%
G04 Gerber Fmt 4.5, Leading zero omitted, Abs format (unit mm)*
G04 Created by KiCad (PCBNEW 4.0.5) date 01/04/17 16:27:09*
%MOMM*%
%LPD*%
G01*
G04 APERTURE LIST*
%ADD10C,0.127000*%
%ADD11C,0.150000*%
%ADD12C,0.200000*%
%ADD13C,0.300000*%
G04 APERTURE END LIST*
D10*
D11*
X23900450Y-11300000D02*
G75*
G03X23900450Y-11300000I-2500450J0D01*
G01*
D12*
X19677600Y-9517600D02*
X19882400Y-9722400D01*
X19882400Y-9517600D02*
X19677600Y-9722400D01*
X19717600Y-12877600D02*
X19922400Y-13082400D01*
X19922400Y-12877600D02*
X19717600Y-13082400D01*
X22957600Y-9557600D02*
X23162400Y-9762400D01*
X23162400Y-9557600D02*
X22957600Y-9762400D01*
D13*
X19163479Y-14273664D02*
X19163479Y-13973664D01*
X19234907Y-13973664D01*
X19277764Y-13987950D01*
X19306336Y-14016521D01*
X19320621Y-14045093D01*
X19334907Y-14102236D01*
X19334907Y-14145093D01*
X19320621Y-14202236D01*
X19306336Y-14230807D01*
X19277764Y-14259379D01*
X19234907Y-14273664D01*
X19163479Y-14273664D01*
X19463479Y-14273664D02*
X19463479Y-14073664D01*
X19463479Y-14130807D02*
X19477764Y-14102236D01*
X19492050Y-14087950D01*
X19520621Y-14073664D01*
X19549193Y-14073664D01*
X19649193Y-14273664D02*
X19649193Y-14073664D01*
X19649193Y-13973664D02*
X19634907Y-13987950D01*
X19649193Y-14002236D01*
X19663479Y-13987950D01*
X19649193Y-13973664D01*
X19649193Y-14002236D01*
X19834907Y-14273664D02*
X19806336Y-14259379D01*
X19792050Y-14230807D01*
X19792050Y-13973664D01*
X19992050Y-14273664D02*
X19963479Y-14259379D01*
X19949193Y-14230807D01*
X19949193Y-13973664D01*
X20334907Y-14273664D02*
X20334907Y-13973664D01*
X20434907Y-14187950D01*
X20534907Y-13973664D01*
X20534907Y-14273664D01*
X20806336Y-14273664D02*
X20806336Y-14116521D01*
X20792050Y-14087950D01*
X20763479Y-14073664D01*
X20706336Y-14073664D01*
X20677764Y-14087950D01*
X20806336Y-14259379D02*
X20777764Y-14273664D01*
X20706336Y-14273664D01*
X20677764Y-14259379D01*
X20663479Y-14230807D01*
X20663479Y-14202236D01*
X20677764Y-14173664D01*
X20706336Y-14159379D01*
X20777764Y-14159379D01*
X20806336Y-14145093D01*
X20949193Y-14073664D02*
X20949193Y-14373664D01*
X20949193Y-14087950D02*
X20977764Y-14073664D01*
X21034907Y-14073664D01*
X21063479Y-14087950D01*
X21077764Y-14102236D01*
X21092050Y-14130807D01*
X21092050Y-14216521D01*
X21077764Y-14245093D01*
X21063479Y-14259379D01*
X21034907Y-14273664D01*
X20977764Y-14273664D01*
X20949193Y-14259379D01*
X21220621Y-14245093D02*
X21234907Y-14259379D01*
X21220621Y-14273664D01*
X21206336Y-14259379D01*
X21220621Y-14245093D01*
X21220621Y-14273664D01*
X21220621Y-14087950D02*
X21234907Y-14102236D01*
X21220621Y-14116521D01*
X21206336Y-14102236D01*
X21220621Y-14087950D01*
X21220621Y-14116521D01*
X18687250Y-14665550D02*
X18892050Y-14870350D01*
X18892050Y-14665550D02*
X18687250Y-14870350D01*
X19149193Y-14632236D02*
X19163479Y-14617950D01*
X19192050Y-14603664D01*
X19263479Y-14603664D01*
X19292050Y-14617950D01*
X19306336Y-14632236D01*
X19320621Y-14660807D01*
X19320621Y-14689379D01*
X19306336Y-14732236D01*
X19134907Y-14903664D01*
X19320621Y-14903664D01*
X19449193Y-14875093D02*
X19463479Y-14889379D01*
X19449193Y-14903664D01*
X19434907Y-14889379D01*
X19449193Y-14875093D01*
X19449193Y-14903664D01*
X19649193Y-14603664D02*
X19677764Y-14603664D01*
X19706336Y-14617950D01*
X19720621Y-14632236D01*
X19734907Y-14660807D01*
X19749193Y-14717950D01*
X19749193Y-14789379D01*
X19734907Y-14846521D01*
X19720621Y-14875093D01*
X19706336Y-14889379D01*
X19677764Y-14903664D01*
X19649193Y-14903664D01*
X19620621Y-14889379D01*
X19606336Y-14875093D01*
X19592050Y-14846521D01*
X19577764Y-14789379D01*
X19577764Y-14717950D01*
X19592050Y-14660807D01*
X19606336Y-14632236D01*
X19620621Y-14617950D01*
X19649193Y-14603664D01*
X20020621Y-14603664D02*
X19877764Y-14603664D01*
X19863479Y-14746521D01*
X19877764Y-14732236D01*
X19906336Y-14717950D01*
X19977764Y-14717950D01*
X20006336Y-14732236D01*
X20020621Y-14746521D01*
X20034907Y-14775093D01*
X20034907Y-14846521D01*
X20020621Y-14875093D01*
X20006336Y-14889379D01*
X19977764Y-14903664D01*
X19906336Y-14903664D01*
X19877764Y-14889379D01*
X19863479Y-14875093D01*
X20163479Y-14903664D02*
X20163479Y-14703664D01*
X20163479Y-14732236D02*
X20177764Y-14717950D01*
X20206336Y-14703664D01*
X20249193Y-14703664D01*
X20277764Y-14717950D01*
X20292050Y-14746521D01*
X20292050Y-14903664D01*
X20292050Y-14746521D02*
X20306336Y-14717950D01*
X20334907Y-14703664D01*
X20377764Y-14703664D01*
X20406336Y-14717950D01*
X20420621Y-14746521D01*
X20420621Y-14903664D01*
X20563479Y-14903664D02*
X20563479Y-14703664D01*
X20563479Y-14732236D02*
X20577764Y-14717950D01*
X20606336Y-14703664D01*
X20649193Y-14703664D01*
X20677764Y-14717950D01*
X20692050Y-14746521D01*
X20692050Y-14903664D01*
X20692050Y-14746521D02*
X20706336Y-14717950D01*
X20734907Y-14703664D01*
X20777764Y-14703664D01*
X20806336Y-14717950D01*
X20820621Y-14746521D01*
X20820621Y-14903664D01*
X21406336Y-14589379D02*
X21149193Y-14975093D01*
X21792050Y-14603664D02*
X21820621Y-14603664D01*
X21849193Y-14617950D01*
X21863478Y-14632236D01*
X21877764Y-14660807D01*
X21892050Y-14717950D01*
X21892050Y-14789379D01*
X21877764Y-14846521D01*
X21863478Y-14875093D01*
X21849193Y-14889379D01*
X21820621Y-14903664D01*
X21792050Y-14903664D01*
X21763478Y-14889379D01*
X21749193Y-14875093D01*
X21734907Y-14846521D01*
X21720621Y-14789379D01*
X21720621Y-14717950D01*
X21734907Y-14660807D01*
X21749193Y-14632236D01*
X21763478Y-14617950D01*
X21792050Y-14603664D01*
X22020621Y-14875093D02*
X22034907Y-14889379D01*
X22020621Y-14903664D01*
X22006336Y-14889379D01*
X22020621Y-14875093D01*
X22020621Y-14903664D01*
X22220621Y-14603664D02*
X22249193Y-14603664D01*
X22277764Y-14617950D01*
X22292050Y-14632236D01*
X22306336Y-14660807D01*
X22320621Y-14717950D01*
X22320621Y-14789379D01*
X22306336Y-14846521D01*
X22292050Y-14875093D01*
X22277764Y-14889379D01*
X22249193Y-14903664D01*
X22220621Y-14903664D01*
X22192050Y-14889379D01*
X22177764Y-14875093D01*
X22163478Y-14846521D01*
X22149193Y-14789379D01*
X22149193Y-14717950D01*
X22163478Y-14660807D01*
X22177764Y-14632236D01*
X22192050Y-14617950D01*
X22220621Y-14603664D01*
X22492050Y-14732236D02*
X22463478Y-14717950D01*
X22449193Y-14703664D01*
X22434907Y-14675093D01*
X22434907Y-14660807D01*
X22449193Y-14632236D01*
X22463478Y-14617950D01*
X22492050Y-14603664D01*
X22549193Y-14603664D01*
X22577764Y-14617950D01*
X22592050Y-14632236D01*
X22606335Y-14660807D01*
X22606335Y-14675093D01*
X22592050Y-14703664D01*
X22577764Y-14717950D01*
X22549193Y-14732236D01*
X22492050Y-14732236D01*
X22463478Y-14746521D01*
X22449193Y-14760807D01*
X22434907Y-14789379D01*
X22434907Y-14846521D01*
X22449193Y-14875093D01*
X22463478Y-14889379D01*
X22492050Y-14903664D01*
X22549193Y-14903664D01*
X22577764Y-14889379D01*
X22592050Y-14875093D01*
X22606335Y-14846521D01*
X22606335Y-14789379D01*
X22592050Y-14760807D01*
X22577764Y-14746521D01*
X22549193Y-14732236D01*
X22892050Y-14903664D02*
X22720621Y-14903664D01*
X22806335Y-14903664D02*
X22806335Y-14603664D01*
X22777764Y-14646521D01*
X22749193Y-14675093D01*
X22720621Y-14689379D01*
X23006336Y-14603664D02*
X23006336Y-14660807D01*
X23120621Y-14603664D02*
X23120621Y-14660807D01*
X23563478Y-15017950D02*
X23549193Y-15003664D01*
X23520621Y-14960807D01*
X23506335Y-14932236D01*
X23492050Y-14889379D01*
X23477764Y-14817950D01*
X23477764Y-14760807D01*
X23492050Y-14689379D01*
X23506335Y-14646521D01*
X23520621Y-14617950D01*
X23549193Y-14575093D01*
X23563478Y-14560807D01*
X23649193Y-14603664D02*
X23834907Y-14603664D01*
X23734907Y-14717950D01*
X23777764Y-14717950D01*
X23806335Y-14732236D01*
X23820621Y-14746521D01*
X23834907Y-14775093D01*
X23834907Y-14846521D01*
X23820621Y-14875093D01*
X23806335Y-14889379D01*
X23777764Y-14903664D01*
X23692050Y-14903664D01*
X23663478Y-14889379D01*
X23649193Y-14875093D01*
X24192050Y-14903664D02*
X24192050Y-14603664D01*
X24320621Y-14903664D02*
X24320621Y-14746521D01*
X24306335Y-14717950D01*
X24277764Y-14703664D01*
X24234907Y-14703664D01*
X24206335Y-14717950D01*
X24192050Y-14732236D01*
X24506335Y-14903664D02*
X24477764Y-14889379D01*
X24463478Y-14875093D01*
X24449193Y-14846521D01*
X24449193Y-14760807D01*
X24463478Y-14732236D01*
X24477764Y-14717950D01*
X24506335Y-14703664D01*
X24549193Y-14703664D01*
X24577764Y-14717950D01*
X24592050Y-14732236D01*
X24606335Y-14760807D01*
X24606335Y-14846521D01*
X24592050Y-14875093D01*
X24577764Y-14889379D01*
X24549193Y-14903664D01*
X24506335Y-14903664D01*
X24777764Y-14903664D02*
X24749193Y-14889379D01*
X24734907Y-14860807D01*
X24734907Y-14603664D01*
X25006336Y-14889379D02*
X24977764Y-14903664D01*
X24920621Y-14903664D01*
X24892050Y-14889379D01*
X24877764Y-14860807D01*
X24877764Y-14746521D01*
X24892050Y-14717950D01*
X24920621Y-14703664D01*
X24977764Y-14703664D01*
X25006336Y-14717950D01*
X25020621Y-14746521D01*
X25020621Y-14775093D01*
X24877764Y-14803664D01*
X25134907Y-14889379D02*
X25163478Y-14903664D01*
X25220621Y-14903664D01*
X25249193Y-14889379D01*
X25263478Y-14860807D01*
X25263478Y-14846521D01*
X25249193Y-14817950D01*
X25220621Y-14803664D01*
X25177764Y-14803664D01*
X25149193Y-14789379D01*
X25134907Y-14760807D01*
X25134907Y-14746521D01*
X25149193Y-14717950D01*
X25177764Y-14703664D01*
X25220621Y-14703664D01*
X25249193Y-14717950D01*
X25363478Y-15017950D02*
X25377764Y-15003664D01*
X25406336Y-14960807D01*
X25420621Y-14932236D01*
X25434907Y-14889379D01*
X25449193Y-14817950D01*
X25449193Y-14760807D01*
X25434907Y-14689379D01*
X25420621Y-14646521D01*
X25406336Y-14617950D01*
X25377764Y-14575093D01*
X25363478Y-14560807D01*
X25906336Y-15017950D02*
X25892050Y-15003664D01*
X25863478Y-14960807D01*
X25849193Y-14932236D01*
X25834907Y-14889379D01*
X25820621Y-14817950D01*
X25820621Y-14760807D01*
X25834907Y-14689379D01*
X25849193Y-14646521D01*
X25863478Y-14617950D01*
X25892050Y-14575093D01*
X25906336Y-14560807D01*
X26020621Y-14703664D02*
X26020621Y-14903664D01*
X26020621Y-14732236D02*
X26034907Y-14717950D01*
X26063478Y-14703664D01*
X26106336Y-14703664D01*
X26134907Y-14717950D01*
X26149193Y-14746521D01*
X26149193Y-14903664D01*
X26334907Y-14903664D02*
X26306336Y-14889379D01*
X26292050Y-14875093D01*
X26277764Y-14846521D01*
X26277764Y-14760807D01*
X26292050Y-14732236D01*
X26306336Y-14717950D01*
X26334907Y-14703664D01*
X26377764Y-14703664D01*
X26406336Y-14717950D01*
X26420621Y-14732236D01*
X26434907Y-14760807D01*
X26434907Y-14846521D01*
X26420621Y-14875093D01*
X26406336Y-14889379D01*
X26377764Y-14903664D01*
X26334907Y-14903664D01*
X26520621Y-14703664D02*
X26634907Y-14703664D01*
X26563478Y-14603664D02*
X26563478Y-14860807D01*
X26577764Y-14889379D01*
X26606336Y-14903664D01*
X26634907Y-14903664D01*
X26963478Y-14703664D02*
X26963478Y-15003664D01*
X26963478Y-14717950D02*
X26992050Y-14703664D01*
X27049193Y-14703664D01*
X27077764Y-14717950D01*
X27092050Y-14732236D01*
X27106336Y-14760807D01*
X27106336Y-14846521D01*
X27092050Y-14875093D01*
X27077764Y-14889379D01*
X27049193Y-14903664D01*
X26992050Y-14903664D01*
X26963478Y-14889379D01*
X27277764Y-14903664D02*
X27249193Y-14889379D01*
X27234907Y-14860807D01*
X27234907Y-14603664D01*
X27520621Y-14903664D02*
X27520621Y-14746521D01*
X27506336Y-14717950D01*
X27477764Y-14703664D01*
X27420621Y-14703664D01*
X27392050Y-14717950D01*
X27520621Y-14889379D02*
X27492050Y-14903664D01*
X27420621Y-14903664D01*
X27392050Y-14889379D01*
X27377764Y-14860807D01*
X27377764Y-14832236D01*
X27392050Y-14803664D01*
X27420621Y-14789379D01*
X27492050Y-14789379D01*
X27520621Y-14775093D01*
X27620621Y-14703664D02*
X27734907Y-14703664D01*
X27663479Y-14603664D02*
X27663479Y-14860807D01*
X27677764Y-14889379D01*
X27706336Y-14903664D01*
X27734907Y-14903664D01*
X27949193Y-14889379D02*
X27920621Y-14903664D01*
X27863479Y-14903664D01*
X27834907Y-14889379D01*
X27820621Y-14860807D01*
X27820621Y-14746521D01*
X27834907Y-14717950D01*
X27863479Y-14703664D01*
X27920621Y-14703664D01*
X27949193Y-14717950D01*
X27963479Y-14746521D01*
X27963479Y-14775093D01*
X27820621Y-14803664D01*
X28220621Y-14903664D02*
X28220621Y-14603664D01*
X28220621Y-14889379D02*
X28192050Y-14903664D01*
X28134907Y-14903664D01*
X28106336Y-14889379D01*
X28092050Y-14875093D01*
X28077764Y-14846521D01*
X28077764Y-14760807D01*
X28092050Y-14732236D01*
X28106336Y-14717950D01*
X28134907Y-14703664D01*
X28192050Y-14703664D01*
X28220621Y-14717950D01*
X28334907Y-15017950D02*
X28349193Y-15003664D01*
X28377764Y-14960807D01*
X28392050Y-14932236D01*
X28406336Y-14889379D01*
X28420621Y-14817950D01*
X28420621Y-14760807D01*
X28406336Y-14689379D01*
X28392050Y-14646521D01*
X28377764Y-14617950D01*
X28349193Y-14575093D01*
X28334907Y-14560807D01*
M02*
