M48
;DRILL file {KiCad 4.0.5} date 01/04/17 16:34:14
;FORMAT={-:-/ absolute / metric / decimal}
FMAT,2
METRIC,TZ
T1C0.400
T2C0.800
T3C0.800
T4C1.016
T5C3.048
%
G90
G05
M71
T1
X106.5Y-90.5
X109.25Y-95.5
X118.75Y-105.5
X119.75Y-108.
X120.Y-73.5
X127.75Y-109.5
X129.Y-110.25
X136.Y-72.75
X151.3Y-107.45
X156.5Y-102.
X157.75Y-105.
X159.5Y-80.
X166.Y-82.25
T2
X106.Y-65.
X122.25Y-70.75
X122.25Y-73.29
X122.25Y-75.83
X122.25Y-78.37
X122.25Y-80.91
X122.25Y-83.45
X122.25Y-85.99
X122.25Y-88.53
X129.87Y-70.75
X129.87Y-73.29
X129.87Y-75.83
X129.87Y-78.37
X129.87Y-80.91
X129.87Y-83.45
X129.87Y-85.99
X129.87Y-88.53
T3
X108.5Y-65.
T4
X111.46Y-95.42
X111.46Y-97.96
X111.46Y-100.5
X111.71Y-74.75
X111.71Y-77.29
X111.71Y-79.83
X111.71Y-82.37
X111.71Y-84.91
X111.71Y-87.45
X111.71Y-89.99
X112.25Y-105.96
X112.25Y-108.5
X114.Y-95.42
X114.Y-97.96
X114.Y-100.5
X114.25Y-74.75
X114.25Y-77.29
X114.25Y-79.83
X114.25Y-82.37
X114.25Y-84.91
X114.25Y-87.45
X114.25Y-89.99
X119.21Y-65.
X121.75Y-65.
X122.625Y-93.295
X122.625Y-95.835
X122.625Y-98.375
X122.625Y-104.295
X122.625Y-106.835
X122.625Y-109.375
X126.26Y-65.
X128.8Y-65.
X129.Y-113.25
X131.34Y-65.
X131.54Y-113.25
X133.88Y-65.
X134.08Y-113.25
X136.Y-77.25
X136.Y-79.79
X136.Y-82.33
X136.Y-85.75
X136.06Y-70.
X136.42Y-65.
X136.62Y-113.25
X138.54Y-85.75
X138.6Y-70.
X138.96Y-65.
X139.16Y-113.25
X141.08Y-85.75
X141.14Y-70.
X141.5Y-65.
X141.7Y-113.25
X143.62Y-85.75
X143.68Y-70.
X144.24Y-113.25
X145.97Y-65.
X146.16Y-85.75
X146.22Y-70.
X146.78Y-113.25
X148.5Y-97.
X148.5Y-99.54
X148.5Y-102.08
X148.5Y-104.62
X148.51Y-65.
X148.7Y-85.75
X148.76Y-70.
X151.05Y-65.
X151.24Y-85.75
X151.25Y-82.25
X151.3Y-70.
X151.5Y-110.
X151.5Y-113.25
X153.59Y-65.
X153.78Y-85.75
X153.79Y-82.25
X153.84Y-70.
X154.04Y-113.25
X156.13Y-65.
X156.32Y-85.75
X156.38Y-70.
X156.58Y-113.25
X157.5Y-75.
X157.5Y-77.54
X158.67Y-65.
X158.86Y-85.75
X158.92Y-70.
X159.12Y-113.25
X161.21Y-65.
X161.4Y-85.75
X161.46Y-70.
X161.66Y-113.25
X163.75Y-65.
X163.94Y-85.75
X164.Y-70.
X164.2Y-113.25
T5
X114.5Y-113.05
X115.75Y-64.8
X166.5Y-108.
T0
M30
