G04 #@! TF.FileFunction,Copper,L2,Bot,Signal*
%FSLAX46Y46*%
G04 Gerber Fmt 4.6, Leading zero omitted, Abs format (unit mm)*
G04 Created by KiCad (PCBNEW 4.0.5) date 01/04/17 16:34:07*
%MOMM*%
%LPD*%
G01*
G04 APERTURE LIST*
%ADD10C,0.100000*%
%ADD11C,4.064000*%
%ADD12R,1.727200X2.032000*%
%ADD13O,1.727200X2.032000*%
%ADD14R,1.300000X1.300000*%
%ADD15C,1.300000*%
%ADD16R,2.032000X1.727200*%
%ADD17O,2.032000X1.727200*%
%ADD18R,2.032000X2.032000*%
%ADD19O,2.032000X2.032000*%
%ADD20R,1.727200X1.727200*%
%ADD21O,1.727200X1.727200*%
%ADD22R,2.235200X2.235200*%
%ADD23O,2.300000X1.600000*%
%ADD24C,0.600000*%
%ADD25C,0.500000*%
%ADD26C,0.300000*%
%ADD27C,0.250000*%
%ADD28C,0.254000*%
G04 APERTURE END LIST*
D10*
D11*
X166500000Y-108000000D03*
D12*
X164000000Y-70000000D03*
D13*
X161460000Y-70000000D03*
X158920000Y-70000000D03*
X156380000Y-70000000D03*
X153840000Y-70000000D03*
X151300000Y-70000000D03*
X148760000Y-70000000D03*
X146220000Y-70000000D03*
X143680000Y-70000000D03*
X141140000Y-70000000D03*
X138600000Y-70000000D03*
X136060000Y-70000000D03*
D14*
X106000000Y-65000000D03*
D15*
X108500000Y-65000000D03*
D12*
X136000000Y-85750000D03*
D13*
X138540000Y-85750000D03*
X141080000Y-85750000D03*
X143620000Y-85750000D03*
X146160000Y-85750000D03*
X148700000Y-85750000D03*
X151240000Y-85750000D03*
X153780000Y-85750000D03*
X156320000Y-85750000D03*
X158860000Y-85750000D03*
X161400000Y-85750000D03*
X163940000Y-85750000D03*
D16*
X136000000Y-77250000D03*
D17*
X136000000Y-79790000D03*
X136000000Y-82330000D03*
D18*
X151250000Y-82250000D03*
D19*
X153790000Y-82250000D03*
D12*
X129000000Y-113250000D03*
D13*
X131540000Y-113250000D03*
X134080000Y-113250000D03*
X136620000Y-113250000D03*
X139160000Y-113250000D03*
X141700000Y-113250000D03*
X144240000Y-113250000D03*
X146780000Y-113250000D03*
D12*
X151500000Y-113250000D03*
D13*
X154040000Y-113250000D03*
X156580000Y-113250000D03*
X159120000Y-113250000D03*
X161660000Y-113250000D03*
X164200000Y-113250000D03*
D12*
X141500000Y-65000000D03*
D13*
X138960000Y-65000000D03*
X136420000Y-65000000D03*
X133880000Y-65000000D03*
X131340000Y-65000000D03*
X128800000Y-65000000D03*
X126260000Y-65000000D03*
D12*
X163750000Y-65000000D03*
D13*
X161210000Y-65000000D03*
X158670000Y-65000000D03*
X156130000Y-65000000D03*
X153590000Y-65000000D03*
X151050000Y-65000000D03*
X148510000Y-65000000D03*
X145970000Y-65000000D03*
D20*
X114000000Y-100500000D03*
D21*
X111460000Y-100500000D03*
X114000000Y-97960000D03*
X111460000Y-97960000D03*
X114000000Y-95420000D03*
X111460000Y-95420000D03*
D20*
X114250000Y-74750000D03*
D21*
X111710000Y-74750000D03*
X114250000Y-77290000D03*
X111710000Y-77290000D03*
X114250000Y-79830000D03*
X111710000Y-79830000D03*
X114250000Y-82370000D03*
X111710000Y-82370000D03*
X114250000Y-84910000D03*
X111710000Y-84910000D03*
X114250000Y-87450000D03*
X111710000Y-87450000D03*
X114250000Y-89990000D03*
X111710000Y-89990000D03*
D22*
X151500000Y-110000000D03*
D16*
X148500000Y-97000000D03*
D17*
X148500000Y-99540000D03*
X148500000Y-102080000D03*
X148500000Y-104620000D03*
D18*
X112250000Y-108500000D03*
D19*
X112250000Y-105960000D03*
D23*
X122250000Y-70750000D03*
X122250000Y-73290000D03*
X122250000Y-75830000D03*
X122250000Y-78370000D03*
X122250000Y-80910000D03*
X122250000Y-83450000D03*
X122250000Y-85990000D03*
X122250000Y-88530000D03*
X129870000Y-88530000D03*
X129870000Y-85990000D03*
X129870000Y-83450000D03*
X129870000Y-80910000D03*
X129870000Y-78370000D03*
X129870000Y-75830000D03*
X129870000Y-73290000D03*
X129870000Y-70750000D03*
D16*
X122625000Y-98375000D03*
D17*
X122625000Y-95835000D03*
X122625000Y-93295000D03*
D16*
X122625000Y-109375000D03*
D17*
X122625000Y-106835000D03*
X122625000Y-104295000D03*
D18*
X121750000Y-65000000D03*
D19*
X119210000Y-65000000D03*
D11*
X115750000Y-64800000D03*
X114500000Y-113050000D03*
D18*
X157500000Y-75000000D03*
D19*
X157500000Y-77540000D03*
D24*
X151300000Y-107450000D03*
X109250000Y-95500000D03*
X106500000Y-90500000D03*
X136000000Y-72750000D03*
X156500000Y-102000000D03*
X159500000Y-80000000D03*
X157750000Y-105000000D03*
X166000000Y-82250000D03*
X129000000Y-110250000D03*
X118750000Y-105500000D03*
X127750000Y-109500000D03*
X119750000Y-108000000D03*
X120000000Y-73500000D03*
D25*
X122250000Y-88530000D02*
X122780000Y-88530000D01*
X122780000Y-88530000D02*
X125500000Y-91250000D01*
X125500000Y-91250000D02*
X125500000Y-113250000D01*
X125500000Y-113250000D02*
X124250000Y-114500000D01*
X124250000Y-114500000D02*
X120000000Y-114500000D01*
X120000000Y-114500000D02*
X114000000Y-108500000D01*
X114000000Y-108500000D02*
X112250000Y-108500000D01*
D26*
X112250000Y-108500000D02*
X106500000Y-108500000D01*
X106000000Y-71000000D02*
X106000000Y-65000000D01*
X102500000Y-74500000D02*
X106000000Y-71000000D01*
X102500000Y-104500000D02*
X102500000Y-74500000D01*
X106500000Y-108500000D02*
X102500000Y-104500000D01*
D25*
X163940000Y-85750000D02*
X163940000Y-100560000D01*
X157050000Y-107450000D02*
X151300000Y-107450000D01*
X163940000Y-100560000D02*
X157050000Y-107450000D01*
D27*
X157500000Y-75000000D02*
X149290000Y-75000000D01*
X149290000Y-75000000D02*
X138540000Y-85750000D01*
X157500000Y-77540000D02*
X149290000Y-77540000D01*
X149290000Y-77540000D02*
X141080000Y-85750000D01*
X109250000Y-92000000D02*
X111260000Y-89990000D01*
X109250000Y-95500000D02*
X109250000Y-92000000D01*
X111260000Y-89990000D02*
X111710000Y-89990000D01*
X108250000Y-85000000D02*
X111620000Y-85000000D01*
X106500000Y-86750000D02*
X108250000Y-85000000D01*
X106500000Y-90500000D02*
X106500000Y-86750000D01*
X111620000Y-85000000D02*
X111710000Y-84910000D01*
X111620000Y-85000000D02*
X111710000Y-84910000D01*
X156320000Y-85750000D02*
X156320000Y-89930000D01*
X147040000Y-99540000D02*
X148500000Y-99540000D01*
X145500000Y-98000000D02*
X147040000Y-99540000D01*
X145500000Y-96750000D02*
X145500000Y-98000000D01*
X147000000Y-95250000D02*
X145500000Y-96750000D01*
X151000000Y-95250000D02*
X147000000Y-95250000D01*
X156320000Y-89930000D02*
X151000000Y-95250000D01*
X132250000Y-70750000D02*
X129870000Y-70750000D01*
X134250000Y-72750000D02*
X132250000Y-70750000D01*
X136000000Y-72750000D02*
X134250000Y-72750000D01*
X151250000Y-82250000D02*
X151250000Y-80750000D01*
X156420000Y-102080000D02*
X148500000Y-102080000D01*
X156500000Y-102000000D02*
X156420000Y-102080000D01*
X152000000Y-80000000D02*
X159500000Y-80000000D01*
X151250000Y-80750000D02*
X152000000Y-80000000D01*
X153790000Y-82250000D02*
X166000000Y-82250000D01*
X157370000Y-104620000D02*
X148500000Y-104620000D01*
X157750000Y-105000000D02*
X157370000Y-104620000D01*
X153840000Y-70000000D02*
X153840000Y-70590000D01*
X153840000Y-70590000D02*
X155500000Y-72250000D01*
X155500000Y-72250000D02*
X165250000Y-72250000D01*
X165250000Y-72250000D02*
X168000000Y-75000000D01*
X168000000Y-75000000D02*
X168000000Y-101000000D01*
X168000000Y-101000000D02*
X156580000Y-112420000D01*
X156580000Y-112420000D02*
X156580000Y-113250000D01*
X151300000Y-70000000D02*
X151500000Y-70000000D01*
X151500000Y-70000000D02*
X155000000Y-73500000D01*
X155000000Y-73500000D02*
X164750000Y-73500000D01*
X164750000Y-73500000D02*
X167000000Y-75750000D01*
X167000000Y-75750000D02*
X167000000Y-100750000D01*
X167000000Y-100750000D02*
X157750000Y-110000000D01*
X157750000Y-110000000D02*
X151500000Y-110000000D01*
X122250000Y-70750000D02*
X122250000Y-70250000D01*
X122250000Y-70250000D02*
X125750000Y-66750000D01*
X148760000Y-68010000D02*
X148760000Y-70000000D01*
X147500000Y-66750000D02*
X148760000Y-68010000D01*
X125750000Y-66750000D02*
X147500000Y-66750000D01*
X122250000Y-70750000D02*
X122750000Y-70750000D01*
X122250000Y-73290000D02*
X122250000Y-73000000D01*
X122250000Y-73000000D02*
X127750000Y-67500000D01*
X146220000Y-68470000D02*
X146220000Y-70000000D01*
X145250000Y-67500000D02*
X146220000Y-68470000D01*
X127750000Y-67500000D02*
X145250000Y-67500000D01*
X122250000Y-73290000D02*
X122710000Y-73290000D01*
X122250000Y-85990000D02*
X123010000Y-85990000D01*
X123010000Y-85990000D02*
X124500000Y-84500000D01*
X143680000Y-68680000D02*
X143680000Y-70000000D01*
X143250000Y-68250000D02*
X143680000Y-68680000D01*
X129000000Y-68250000D02*
X143250000Y-68250000D01*
X124500000Y-72750000D02*
X129000000Y-68250000D01*
X124500000Y-84500000D02*
X124500000Y-72750000D01*
X141140000Y-70000000D02*
X141140000Y-71860000D01*
X133500000Y-85750000D02*
X130720000Y-88530000D01*
X133500000Y-76250000D02*
X133500000Y-85750000D01*
X134750000Y-75000000D02*
X133500000Y-76250000D01*
X138000000Y-75000000D02*
X134750000Y-75000000D01*
X141140000Y-71860000D02*
X138000000Y-75000000D01*
X130720000Y-88530000D02*
X129870000Y-88530000D01*
X129870000Y-88530000D02*
X129970000Y-88530000D01*
X138600000Y-70000000D02*
X138600000Y-72400000D01*
X132500000Y-83360000D02*
X129870000Y-85990000D01*
X132500000Y-75750000D02*
X132500000Y-83360000D01*
X134250000Y-74000000D02*
X132500000Y-75750000D01*
X137000000Y-74000000D02*
X134250000Y-74000000D01*
X138600000Y-72400000D02*
X137000000Y-74000000D01*
X129870000Y-85990000D02*
X130010000Y-85990000D01*
D26*
X118000000Y-104750000D02*
X118750000Y-105500000D01*
X116500000Y-87250000D02*
X116500000Y-103250000D01*
X116500000Y-103250000D02*
X118000000Y-104750000D01*
X114250000Y-85000000D02*
X116500000Y-87250000D01*
X134750000Y-110250000D02*
X136870000Y-112370000D01*
X129000000Y-110250000D02*
X134750000Y-110250000D01*
X136870000Y-112370000D02*
X136870000Y-113250000D01*
X114250000Y-84910000D02*
X114250000Y-85000000D01*
X114250000Y-84910000D02*
X114660000Y-84910000D01*
X119875000Y-107875000D02*
X119750000Y-108000000D01*
X119875000Y-107875000D02*
X115750000Y-103750000D01*
X115750000Y-103750000D02*
X115750000Y-88950000D01*
X114250000Y-87450000D02*
X115750000Y-88950000D01*
X135750000Y-109500000D02*
X139410000Y-113160000D01*
X127750000Y-109500000D02*
X135750000Y-109500000D01*
X139410000Y-113160000D02*
X139410000Y-113250000D01*
X139410000Y-113250000D02*
X139410000Y-113160000D01*
X139410000Y-113250000D02*
X139410000Y-112910000D01*
X114250000Y-87450000D02*
X114450000Y-87450000D01*
X139500000Y-113160000D02*
X139410000Y-113250000D01*
X114250000Y-87450000D02*
X114250000Y-87500000D01*
D27*
X114250000Y-87450000D02*
X114950000Y-87450000D01*
D25*
X129870000Y-83450000D02*
X129300000Y-83450000D01*
X129300000Y-83450000D02*
X127500000Y-85250000D01*
X147030000Y-109280000D02*
X147030000Y-113250000D01*
X143000000Y-105250000D02*
X147030000Y-109280000D01*
X143000000Y-95750000D02*
X143000000Y-105250000D01*
X138500000Y-91250000D02*
X143000000Y-95750000D01*
X129500000Y-91250000D02*
X138500000Y-91250000D01*
X127500000Y-89250000D02*
X129500000Y-91250000D01*
X127500000Y-85250000D02*
X127500000Y-89250000D01*
D27*
X121750000Y-65000000D02*
X121750000Y-67750000D01*
X120000000Y-69500000D02*
X120000000Y-73500000D01*
X121750000Y-67750000D02*
X120000000Y-69500000D01*
X119210000Y-65000000D02*
X119210000Y-72040000D01*
X116500000Y-77580000D02*
X114250000Y-79830000D01*
X116500000Y-74750000D02*
X116500000Y-77580000D01*
X119210000Y-72040000D02*
X116500000Y-74750000D01*
X130840000Y-65000000D02*
X130840000Y-65160000D01*
D25*
X111460000Y-97960000D02*
X109040000Y-97960000D01*
X121500000Y-110500000D02*
X122625000Y-109375000D01*
X118250000Y-110500000D02*
X121500000Y-110500000D01*
X114250000Y-106500000D02*
X118250000Y-110500000D01*
X114250000Y-105250000D02*
X114250000Y-106500000D01*
X113000000Y-104000000D02*
X114250000Y-105250000D01*
X109500000Y-104000000D02*
X113000000Y-104000000D01*
X108000000Y-102500000D02*
X109500000Y-104000000D01*
X108000000Y-99000000D02*
X108000000Y-102500000D01*
X109040000Y-97960000D02*
X108000000Y-99000000D01*
X122625000Y-104295000D02*
X122625000Y-103875000D01*
X122625000Y-103875000D02*
X120000000Y-101250000D01*
X120420000Y-75830000D02*
X122250000Y-75830000D01*
X118750000Y-77500000D02*
X120420000Y-75830000D01*
X118750000Y-92000000D02*
X118750000Y-77500000D01*
X120000000Y-93250000D02*
X118750000Y-92000000D01*
X120000000Y-101250000D02*
X120000000Y-93250000D01*
X122250000Y-75830000D02*
X121670000Y-75830000D01*
X122625000Y-104125000D02*
X122625000Y-104295000D01*
X122625000Y-104295000D02*
X122625000Y-104125000D01*
X122250000Y-83450000D02*
X121800000Y-83450000D01*
X121800000Y-83450000D02*
X119750000Y-85500000D01*
X119750000Y-91250000D02*
X121795000Y-93295000D01*
X119750000Y-85500000D02*
X119750000Y-91250000D01*
X121795000Y-93295000D02*
X122625000Y-93295000D01*
D27*
X122625000Y-93295000D02*
X122045000Y-93295000D01*
X121300000Y-83450000D02*
X122250000Y-83450000D01*
D28*
G36*
X113490345Y-63287293D02*
X113083464Y-64267173D01*
X113082538Y-65328172D01*
X113487709Y-66308761D01*
X114237293Y-67059655D01*
X115217173Y-67466536D01*
X116278172Y-67467462D01*
X117258761Y-67062291D01*
X118009655Y-66312707D01*
X118053511Y-66207090D01*
X118450000Y-66472016D01*
X118450000Y-71725198D01*
X115962599Y-74212599D01*
X115797852Y-74459161D01*
X115761040Y-74644226D01*
X115761040Y-73886400D01*
X115716762Y-73651083D01*
X115577690Y-73434959D01*
X115365490Y-73289969D01*
X115113600Y-73238960D01*
X113386400Y-73238960D01*
X113151083Y-73283238D01*
X112934959Y-73422310D01*
X112789969Y-73634510D01*
X112781092Y-73678345D01*
X112312848Y-73365474D01*
X111739359Y-73251400D01*
X111680641Y-73251400D01*
X111107152Y-73365474D01*
X110620971Y-73690330D01*
X110296115Y-74176511D01*
X110182041Y-74750000D01*
X110296115Y-75323489D01*
X110620971Y-75809670D01*
X110935752Y-76020000D01*
X110620971Y-76230330D01*
X110296115Y-76716511D01*
X110182041Y-77290000D01*
X110296115Y-77863489D01*
X110620971Y-78349670D01*
X110935752Y-78560000D01*
X110620971Y-78770330D01*
X110296115Y-79256511D01*
X110182041Y-79830000D01*
X110296115Y-80403489D01*
X110620971Y-80889670D01*
X110944228Y-81105664D01*
X110821510Y-81163179D01*
X110427312Y-81595053D01*
X110255042Y-82010974D01*
X110376183Y-82243000D01*
X111583000Y-82243000D01*
X111583000Y-82223000D01*
X111837000Y-82223000D01*
X111837000Y-82243000D01*
X114123000Y-82243000D01*
X114123000Y-82223000D01*
X114377000Y-82223000D01*
X114377000Y-82243000D01*
X115583817Y-82243000D01*
X115704958Y-82010974D01*
X115532688Y-81595053D01*
X115138490Y-81163179D01*
X115015772Y-81105664D01*
X115339029Y-80889670D01*
X115663885Y-80403489D01*
X115777959Y-79830000D01*
X115702775Y-79452027D01*
X117037401Y-78117401D01*
X117202148Y-77870839D01*
X117260000Y-77580000D01*
X117260000Y-75064802D01*
X119103196Y-73221606D01*
X119065162Y-73313201D01*
X119064838Y-73685167D01*
X119206883Y-74028943D01*
X119469673Y-74292192D01*
X119813201Y-74434838D01*
X120185167Y-74435162D01*
X120528943Y-74293117D01*
X120717094Y-74105294D01*
X120850332Y-74304698D01*
X121232418Y-74560000D01*
X120850332Y-74815302D01*
X120763670Y-74945000D01*
X120420005Y-74945000D01*
X120420000Y-74944999D01*
X120143498Y-75000000D01*
X120081325Y-75012367D01*
X119794210Y-75204210D01*
X119794208Y-75204213D01*
X118124210Y-76874210D01*
X117932367Y-77161325D01*
X117932367Y-77161326D01*
X117864999Y-77500000D01*
X117865000Y-77500005D01*
X117865000Y-91999995D01*
X117864999Y-92000000D01*
X117911810Y-92235330D01*
X117932367Y-92338675D01*
X118065151Y-92537401D01*
X118124210Y-92625790D01*
X119115000Y-93616579D01*
X119115000Y-101249995D01*
X119114999Y-101250000D01*
X119140431Y-101377852D01*
X119182367Y-101588675D01*
X119296842Y-101760000D01*
X119374210Y-101875790D01*
X121121499Y-103623079D01*
X121055729Y-103721511D01*
X120941655Y-104295000D01*
X121055729Y-104868489D01*
X121380585Y-105354670D01*
X121690069Y-105561461D01*
X121274268Y-105932964D01*
X121020291Y-106460209D01*
X121017642Y-106475974D01*
X121138783Y-106708000D01*
X122498000Y-106708000D01*
X122498000Y-106688000D01*
X122752000Y-106688000D01*
X122752000Y-106708000D01*
X124111217Y-106708000D01*
X124232358Y-106475974D01*
X124229709Y-106460209D01*
X123975732Y-105932964D01*
X123559931Y-105561461D01*
X123869415Y-105354670D01*
X124194271Y-104868489D01*
X124308345Y-104295000D01*
X124194271Y-103721511D01*
X123869415Y-103235330D01*
X123383234Y-102910474D01*
X122809745Y-102796400D01*
X122797979Y-102796400D01*
X120885000Y-100883420D01*
X120885000Y-97511400D01*
X120961560Y-97511400D01*
X120961560Y-99238600D01*
X121005838Y-99473917D01*
X121144910Y-99690041D01*
X121357110Y-99835031D01*
X121609000Y-99886040D01*
X123641000Y-99886040D01*
X123876317Y-99841762D01*
X124092441Y-99702690D01*
X124237431Y-99490490D01*
X124288440Y-99238600D01*
X124288440Y-97511400D01*
X124244162Y-97276083D01*
X124105090Y-97059959D01*
X123892890Y-96914969D01*
X123798073Y-96895768D01*
X123975732Y-96737036D01*
X124229709Y-96209791D01*
X124232358Y-96194026D01*
X124111217Y-95962000D01*
X122752000Y-95962000D01*
X122752000Y-95982000D01*
X122498000Y-95982000D01*
X122498000Y-95962000D01*
X121138783Y-95962000D01*
X121017642Y-96194026D01*
X121020291Y-96209791D01*
X121274268Y-96737036D01*
X121449845Y-96893907D01*
X121373683Y-96908238D01*
X121157559Y-97047310D01*
X121012569Y-97259510D01*
X120961560Y-97511400D01*
X120885000Y-97511400D01*
X120885000Y-93636579D01*
X121040538Y-93792117D01*
X121055729Y-93868489D01*
X121380585Y-94354670D01*
X121690069Y-94561461D01*
X121274268Y-94932964D01*
X121020291Y-95460209D01*
X121017642Y-95475974D01*
X121138783Y-95708000D01*
X122498000Y-95708000D01*
X122498000Y-95688000D01*
X122752000Y-95688000D01*
X122752000Y-95708000D01*
X124111217Y-95708000D01*
X124232358Y-95475974D01*
X124229709Y-95460209D01*
X123975732Y-94932964D01*
X123559931Y-94561461D01*
X123869415Y-94354670D01*
X124194271Y-93868489D01*
X124308345Y-93295000D01*
X124194271Y-92721511D01*
X123869415Y-92235330D01*
X123383234Y-91910474D01*
X122809745Y-91796400D01*
X122440255Y-91796400D01*
X121866766Y-91910474D01*
X121744050Y-91992470D01*
X120635000Y-90883420D01*
X120635000Y-89222431D01*
X120850332Y-89544698D01*
X121315879Y-89855767D01*
X121865030Y-89965000D01*
X122634970Y-89965000D01*
X122908927Y-89910507D01*
X124615000Y-91616579D01*
X124615000Y-112883421D01*
X123883420Y-113615000D01*
X120366579Y-113615000D01*
X118108417Y-111356838D01*
X118250000Y-111385001D01*
X118250005Y-111385000D01*
X121499995Y-111385000D01*
X121500000Y-111385001D01*
X121782484Y-111328810D01*
X121838675Y-111317633D01*
X122125790Y-111125790D01*
X122365540Y-110886040D01*
X123641000Y-110886040D01*
X123876317Y-110841762D01*
X124092441Y-110702690D01*
X124237431Y-110490490D01*
X124288440Y-110238600D01*
X124288440Y-108511400D01*
X124244162Y-108276083D01*
X124105090Y-108059959D01*
X123892890Y-107914969D01*
X123798073Y-107895768D01*
X123975732Y-107737036D01*
X124229709Y-107209791D01*
X124232358Y-107194026D01*
X124111217Y-106962000D01*
X122752000Y-106962000D01*
X122752000Y-106982000D01*
X122498000Y-106982000D01*
X122498000Y-106962000D01*
X121138783Y-106962000D01*
X121017642Y-107194026D01*
X121020291Y-107209791D01*
X121274268Y-107737036D01*
X121449845Y-107893907D01*
X121373683Y-107908238D01*
X121157559Y-108047310D01*
X121012569Y-108259510D01*
X120961560Y-108511400D01*
X120961560Y-109615000D01*
X118616579Y-109615000D01*
X115135000Y-106133420D01*
X115135000Y-105250005D01*
X115135001Y-105250000D01*
X115067633Y-104911326D01*
X115067633Y-104911325D01*
X114875790Y-104624210D01*
X114875787Y-104624208D01*
X113625790Y-103374210D01*
X113541116Y-103317633D01*
X113338675Y-103182367D01*
X113282484Y-103171190D01*
X113000000Y-103114999D01*
X112999995Y-103115000D01*
X109866579Y-103115000D01*
X108885000Y-102133420D01*
X108885000Y-100859026D01*
X110005042Y-100859026D01*
X110177312Y-101274947D01*
X110571510Y-101706821D01*
X111100973Y-101954968D01*
X111333000Y-101834469D01*
X111333000Y-100627000D01*
X111587000Y-100627000D01*
X111587000Y-101834469D01*
X111819027Y-101954968D01*
X112348490Y-101706821D01*
X112515471Y-101523881D01*
X112598073Y-101723299D01*
X112776702Y-101901927D01*
X113010091Y-101998600D01*
X113714250Y-101998600D01*
X113873000Y-101839850D01*
X113873000Y-100627000D01*
X111587000Y-100627000D01*
X111333000Y-100627000D01*
X110126183Y-100627000D01*
X110005042Y-100859026D01*
X108885000Y-100859026D01*
X108885000Y-99366580D01*
X109406579Y-98845000D01*
X110254260Y-98845000D01*
X110370971Y-99019670D01*
X110694228Y-99235664D01*
X110571510Y-99293179D01*
X110177312Y-99725053D01*
X110005042Y-100140974D01*
X110126183Y-100373000D01*
X111333000Y-100373000D01*
X111333000Y-100353000D01*
X111587000Y-100353000D01*
X111587000Y-100373000D01*
X113873000Y-100373000D01*
X113873000Y-100353000D01*
X114127000Y-100353000D01*
X114127000Y-100373000D01*
X114147000Y-100373000D01*
X114147000Y-100627000D01*
X114127000Y-100627000D01*
X114127000Y-101839850D01*
X114285750Y-101998600D01*
X114965000Y-101998600D01*
X114965000Y-103750000D01*
X115024755Y-104050407D01*
X115194921Y-104305079D01*
X118815064Y-107925222D01*
X118814838Y-108185167D01*
X118956883Y-108528943D01*
X119219673Y-108792192D01*
X119563201Y-108934838D01*
X119935167Y-108935162D01*
X120278943Y-108793117D01*
X120542192Y-108530327D01*
X120684838Y-108186799D01*
X120685162Y-107814833D01*
X120613564Y-107641553D01*
X120600245Y-107574593D01*
X120562647Y-107518324D01*
X120543117Y-107471057D01*
X120506667Y-107434543D01*
X120430079Y-107319921D01*
X119341163Y-106231005D01*
X119542192Y-106030327D01*
X119684838Y-105686799D01*
X119685162Y-105314833D01*
X119543117Y-104971057D01*
X119280327Y-104707808D01*
X118936799Y-104565162D01*
X118925310Y-104565152D01*
X118210000Y-103849842D01*
X118210000Y-103000000D01*
X118155954Y-102728295D01*
X118002046Y-102497954D01*
X117771705Y-102344046D01*
X117500000Y-102290000D01*
X117285000Y-102332767D01*
X117285000Y-87250005D01*
X117285001Y-87250000D01*
X117225245Y-86949594D01*
X117075013Y-86724755D01*
X117055079Y-86694921D01*
X117055076Y-86694919D01*
X115693709Y-85333552D01*
X115777959Y-84910000D01*
X115663885Y-84336511D01*
X115339029Y-83850330D01*
X115015772Y-83634336D01*
X115138490Y-83576821D01*
X115532688Y-83144947D01*
X115704958Y-82729026D01*
X115583817Y-82497000D01*
X114377000Y-82497000D01*
X114377000Y-82517000D01*
X114123000Y-82517000D01*
X114123000Y-82497000D01*
X111837000Y-82497000D01*
X111837000Y-82517000D01*
X111583000Y-82517000D01*
X111583000Y-82497000D01*
X110376183Y-82497000D01*
X110255042Y-82729026D01*
X110427312Y-83144947D01*
X110821510Y-83576821D01*
X110944228Y-83634336D01*
X110620971Y-83850330D01*
X110360602Y-84240000D01*
X108250000Y-84240000D01*
X107959161Y-84297852D01*
X107712599Y-84462599D01*
X105962599Y-86212599D01*
X105797852Y-86459161D01*
X105740000Y-86750000D01*
X105740000Y-89937537D01*
X105707808Y-89969673D01*
X105565162Y-90313201D01*
X105564838Y-90685167D01*
X105706883Y-91028943D01*
X105969673Y-91292192D01*
X106313201Y-91434838D01*
X106685167Y-91435162D01*
X107028943Y-91293117D01*
X107292192Y-91030327D01*
X107434838Y-90686799D01*
X107435162Y-90314833D01*
X107293117Y-89971057D01*
X107260000Y-89937882D01*
X107260000Y-87064802D01*
X108564802Y-85760000D01*
X110480874Y-85760000D01*
X110620971Y-85969670D01*
X110935752Y-86180000D01*
X110620971Y-86390330D01*
X110296115Y-86876511D01*
X110182041Y-87450000D01*
X110296115Y-88023489D01*
X110620971Y-88509670D01*
X110935752Y-88720000D01*
X110620971Y-88930330D01*
X110296115Y-89416511D01*
X110182041Y-89990000D01*
X110182565Y-89992633D01*
X108712599Y-91462599D01*
X108547852Y-91709161D01*
X108490000Y-92000000D01*
X108490000Y-94937537D01*
X108457808Y-94969673D01*
X108315162Y-95313201D01*
X108314838Y-95685167D01*
X108456883Y-96028943D01*
X108719673Y-96292192D01*
X109063201Y-96434838D01*
X109435167Y-96435162D01*
X109778943Y-96293117D01*
X110042192Y-96030327D01*
X110053129Y-96003987D01*
X110370971Y-96479670D01*
X110685752Y-96690000D01*
X110370971Y-96900330D01*
X110254260Y-97075000D01*
X109040005Y-97075000D01*
X109040000Y-97074999D01*
X108701325Y-97142367D01*
X108414210Y-97334210D01*
X108414208Y-97334213D01*
X107374210Y-98374210D01*
X107182367Y-98661325D01*
X107182367Y-98661326D01*
X107114999Y-99000000D01*
X107115000Y-99000005D01*
X107115000Y-102499995D01*
X107114999Y-102500000D01*
X107145531Y-102653489D01*
X107182367Y-102838675D01*
X107367000Y-103114999D01*
X107374210Y-103125790D01*
X108874208Y-104625787D01*
X108874210Y-104625790D01*
X109161325Y-104817633D01*
X109500000Y-104885000D01*
X111038507Y-104885000D01*
X110843615Y-105095182D01*
X110644025Y-105577056D01*
X110763164Y-105833000D01*
X112123000Y-105833000D01*
X112123000Y-105813000D01*
X112377000Y-105813000D01*
X112377000Y-105833000D01*
X112397000Y-105833000D01*
X112397000Y-106087000D01*
X112377000Y-106087000D01*
X112377000Y-106107000D01*
X112123000Y-106107000D01*
X112123000Y-106087000D01*
X110763164Y-106087000D01*
X110644025Y-106342944D01*
X110843615Y-106824818D01*
X110934097Y-106922398D01*
X110782559Y-107019910D01*
X110637569Y-107232110D01*
X110586560Y-107484000D01*
X110586560Y-107715000D01*
X106825158Y-107715000D01*
X103285000Y-104174842D01*
X103285000Y-74825158D01*
X106555076Y-71555081D01*
X106555079Y-71555079D01*
X106725245Y-71300406D01*
X106785000Y-71000000D01*
X106785000Y-66272038D01*
X106885317Y-66253162D01*
X107101441Y-66114090D01*
X107246431Y-65901890D01*
X107247012Y-65899016D01*
X107780590Y-65899016D01*
X107836271Y-66129611D01*
X108319078Y-66297622D01*
X108829428Y-66268083D01*
X109163729Y-66129611D01*
X109219410Y-65899016D01*
X108500000Y-65179605D01*
X107780590Y-65899016D01*
X107247012Y-65899016D01*
X107297440Y-65650000D01*
X107297440Y-65487615D01*
X107370389Y-65663729D01*
X107600984Y-65719410D01*
X108320395Y-65000000D01*
X108679605Y-65000000D01*
X109399016Y-65719410D01*
X109629611Y-65663729D01*
X109797622Y-65180922D01*
X109768083Y-64670572D01*
X109629611Y-64336271D01*
X109399016Y-64280590D01*
X108679605Y-65000000D01*
X108320395Y-65000000D01*
X107600984Y-64280590D01*
X107370389Y-64336271D01*
X107297440Y-64545902D01*
X107297440Y-64350000D01*
X107253162Y-64114683D01*
X107244347Y-64100984D01*
X107780590Y-64100984D01*
X108500000Y-64820395D01*
X109219410Y-64100984D01*
X109163729Y-63870389D01*
X108680922Y-63702378D01*
X108170572Y-63731917D01*
X107836271Y-63870389D01*
X107780590Y-64100984D01*
X107244347Y-64100984D01*
X107114090Y-63898559D01*
X106901890Y-63753569D01*
X106650000Y-63702560D01*
X105350000Y-63702560D01*
X105114683Y-63746838D01*
X104898559Y-63885910D01*
X104753569Y-64098110D01*
X104702560Y-64350000D01*
X104702560Y-65650000D01*
X104746838Y-65885317D01*
X104885910Y-66101441D01*
X105098110Y-66246431D01*
X105215000Y-66270102D01*
X105215000Y-70674843D01*
X101944921Y-73944921D01*
X101774755Y-74199593D01*
X101762739Y-74260000D01*
X101715000Y-74500000D01*
X101715000Y-104500000D01*
X101774755Y-104800407D01*
X101944921Y-105055079D01*
X105944921Y-109055079D01*
X106199593Y-109225245D01*
X106500000Y-109285000D01*
X110586560Y-109285000D01*
X110586560Y-109516000D01*
X110630838Y-109751317D01*
X110769910Y-109967441D01*
X110982110Y-110112431D01*
X111234000Y-110163440D01*
X113266000Y-110163440D01*
X113501317Y-110119162D01*
X113717441Y-109980090D01*
X113862431Y-109767890D01*
X113888345Y-109639925D01*
X114631534Y-110383114D01*
X113971828Y-110382538D01*
X112991239Y-110787709D01*
X112240345Y-111537293D01*
X111833464Y-112517173D01*
X111832538Y-113578172D01*
X112237709Y-114558761D01*
X112468545Y-114790000D01*
X101794092Y-114790000D01*
X101210000Y-114205908D01*
X101210000Y-63544092D01*
X101794092Y-62960000D01*
X113818210Y-62960000D01*
X113490345Y-63287293D01*
X113490345Y-63287293D01*
G37*
X113490345Y-63287293D02*
X113083464Y-64267173D01*
X113082538Y-65328172D01*
X113487709Y-66308761D01*
X114237293Y-67059655D01*
X115217173Y-67466536D01*
X116278172Y-67467462D01*
X117258761Y-67062291D01*
X118009655Y-66312707D01*
X118053511Y-66207090D01*
X118450000Y-66472016D01*
X118450000Y-71725198D01*
X115962599Y-74212599D01*
X115797852Y-74459161D01*
X115761040Y-74644226D01*
X115761040Y-73886400D01*
X115716762Y-73651083D01*
X115577690Y-73434959D01*
X115365490Y-73289969D01*
X115113600Y-73238960D01*
X113386400Y-73238960D01*
X113151083Y-73283238D01*
X112934959Y-73422310D01*
X112789969Y-73634510D01*
X112781092Y-73678345D01*
X112312848Y-73365474D01*
X111739359Y-73251400D01*
X111680641Y-73251400D01*
X111107152Y-73365474D01*
X110620971Y-73690330D01*
X110296115Y-74176511D01*
X110182041Y-74750000D01*
X110296115Y-75323489D01*
X110620971Y-75809670D01*
X110935752Y-76020000D01*
X110620971Y-76230330D01*
X110296115Y-76716511D01*
X110182041Y-77290000D01*
X110296115Y-77863489D01*
X110620971Y-78349670D01*
X110935752Y-78560000D01*
X110620971Y-78770330D01*
X110296115Y-79256511D01*
X110182041Y-79830000D01*
X110296115Y-80403489D01*
X110620971Y-80889670D01*
X110944228Y-81105664D01*
X110821510Y-81163179D01*
X110427312Y-81595053D01*
X110255042Y-82010974D01*
X110376183Y-82243000D01*
X111583000Y-82243000D01*
X111583000Y-82223000D01*
X111837000Y-82223000D01*
X111837000Y-82243000D01*
X114123000Y-82243000D01*
X114123000Y-82223000D01*
X114377000Y-82223000D01*
X114377000Y-82243000D01*
X115583817Y-82243000D01*
X115704958Y-82010974D01*
X115532688Y-81595053D01*
X115138490Y-81163179D01*
X115015772Y-81105664D01*
X115339029Y-80889670D01*
X115663885Y-80403489D01*
X115777959Y-79830000D01*
X115702775Y-79452027D01*
X117037401Y-78117401D01*
X117202148Y-77870839D01*
X117260000Y-77580000D01*
X117260000Y-75064802D01*
X119103196Y-73221606D01*
X119065162Y-73313201D01*
X119064838Y-73685167D01*
X119206883Y-74028943D01*
X119469673Y-74292192D01*
X119813201Y-74434838D01*
X120185167Y-74435162D01*
X120528943Y-74293117D01*
X120717094Y-74105294D01*
X120850332Y-74304698D01*
X121232418Y-74560000D01*
X120850332Y-74815302D01*
X120763670Y-74945000D01*
X120420005Y-74945000D01*
X120420000Y-74944999D01*
X120143498Y-75000000D01*
X120081325Y-75012367D01*
X119794210Y-75204210D01*
X119794208Y-75204213D01*
X118124210Y-76874210D01*
X117932367Y-77161325D01*
X117932367Y-77161326D01*
X117864999Y-77500000D01*
X117865000Y-77500005D01*
X117865000Y-91999995D01*
X117864999Y-92000000D01*
X117911810Y-92235330D01*
X117932367Y-92338675D01*
X118065151Y-92537401D01*
X118124210Y-92625790D01*
X119115000Y-93616579D01*
X119115000Y-101249995D01*
X119114999Y-101250000D01*
X119140431Y-101377852D01*
X119182367Y-101588675D01*
X119296842Y-101760000D01*
X119374210Y-101875790D01*
X121121499Y-103623079D01*
X121055729Y-103721511D01*
X120941655Y-104295000D01*
X121055729Y-104868489D01*
X121380585Y-105354670D01*
X121690069Y-105561461D01*
X121274268Y-105932964D01*
X121020291Y-106460209D01*
X121017642Y-106475974D01*
X121138783Y-106708000D01*
X122498000Y-106708000D01*
X122498000Y-106688000D01*
X122752000Y-106688000D01*
X122752000Y-106708000D01*
X124111217Y-106708000D01*
X124232358Y-106475974D01*
X124229709Y-106460209D01*
X123975732Y-105932964D01*
X123559931Y-105561461D01*
X123869415Y-105354670D01*
X124194271Y-104868489D01*
X124308345Y-104295000D01*
X124194271Y-103721511D01*
X123869415Y-103235330D01*
X123383234Y-102910474D01*
X122809745Y-102796400D01*
X122797979Y-102796400D01*
X120885000Y-100883420D01*
X120885000Y-97511400D01*
X120961560Y-97511400D01*
X120961560Y-99238600D01*
X121005838Y-99473917D01*
X121144910Y-99690041D01*
X121357110Y-99835031D01*
X121609000Y-99886040D01*
X123641000Y-99886040D01*
X123876317Y-99841762D01*
X124092441Y-99702690D01*
X124237431Y-99490490D01*
X124288440Y-99238600D01*
X124288440Y-97511400D01*
X124244162Y-97276083D01*
X124105090Y-97059959D01*
X123892890Y-96914969D01*
X123798073Y-96895768D01*
X123975732Y-96737036D01*
X124229709Y-96209791D01*
X124232358Y-96194026D01*
X124111217Y-95962000D01*
X122752000Y-95962000D01*
X122752000Y-95982000D01*
X122498000Y-95982000D01*
X122498000Y-95962000D01*
X121138783Y-95962000D01*
X121017642Y-96194026D01*
X121020291Y-96209791D01*
X121274268Y-96737036D01*
X121449845Y-96893907D01*
X121373683Y-96908238D01*
X121157559Y-97047310D01*
X121012569Y-97259510D01*
X120961560Y-97511400D01*
X120885000Y-97511400D01*
X120885000Y-93636579D01*
X121040538Y-93792117D01*
X121055729Y-93868489D01*
X121380585Y-94354670D01*
X121690069Y-94561461D01*
X121274268Y-94932964D01*
X121020291Y-95460209D01*
X121017642Y-95475974D01*
X121138783Y-95708000D01*
X122498000Y-95708000D01*
X122498000Y-95688000D01*
X122752000Y-95688000D01*
X122752000Y-95708000D01*
X124111217Y-95708000D01*
X124232358Y-95475974D01*
X124229709Y-95460209D01*
X123975732Y-94932964D01*
X123559931Y-94561461D01*
X123869415Y-94354670D01*
X124194271Y-93868489D01*
X124308345Y-93295000D01*
X124194271Y-92721511D01*
X123869415Y-92235330D01*
X123383234Y-91910474D01*
X122809745Y-91796400D01*
X122440255Y-91796400D01*
X121866766Y-91910474D01*
X121744050Y-91992470D01*
X120635000Y-90883420D01*
X120635000Y-89222431D01*
X120850332Y-89544698D01*
X121315879Y-89855767D01*
X121865030Y-89965000D01*
X122634970Y-89965000D01*
X122908927Y-89910507D01*
X124615000Y-91616579D01*
X124615000Y-112883421D01*
X123883420Y-113615000D01*
X120366579Y-113615000D01*
X118108417Y-111356838D01*
X118250000Y-111385001D01*
X118250005Y-111385000D01*
X121499995Y-111385000D01*
X121500000Y-111385001D01*
X121782484Y-111328810D01*
X121838675Y-111317633D01*
X122125790Y-111125790D01*
X122365540Y-110886040D01*
X123641000Y-110886040D01*
X123876317Y-110841762D01*
X124092441Y-110702690D01*
X124237431Y-110490490D01*
X124288440Y-110238600D01*
X124288440Y-108511400D01*
X124244162Y-108276083D01*
X124105090Y-108059959D01*
X123892890Y-107914969D01*
X123798073Y-107895768D01*
X123975732Y-107737036D01*
X124229709Y-107209791D01*
X124232358Y-107194026D01*
X124111217Y-106962000D01*
X122752000Y-106962000D01*
X122752000Y-106982000D01*
X122498000Y-106982000D01*
X122498000Y-106962000D01*
X121138783Y-106962000D01*
X121017642Y-107194026D01*
X121020291Y-107209791D01*
X121274268Y-107737036D01*
X121449845Y-107893907D01*
X121373683Y-107908238D01*
X121157559Y-108047310D01*
X121012569Y-108259510D01*
X120961560Y-108511400D01*
X120961560Y-109615000D01*
X118616579Y-109615000D01*
X115135000Y-106133420D01*
X115135000Y-105250005D01*
X115135001Y-105250000D01*
X115067633Y-104911326D01*
X115067633Y-104911325D01*
X114875790Y-104624210D01*
X114875787Y-104624208D01*
X113625790Y-103374210D01*
X113541116Y-103317633D01*
X113338675Y-103182367D01*
X113282484Y-103171190D01*
X113000000Y-103114999D01*
X112999995Y-103115000D01*
X109866579Y-103115000D01*
X108885000Y-102133420D01*
X108885000Y-100859026D01*
X110005042Y-100859026D01*
X110177312Y-101274947D01*
X110571510Y-101706821D01*
X111100973Y-101954968D01*
X111333000Y-101834469D01*
X111333000Y-100627000D01*
X111587000Y-100627000D01*
X111587000Y-101834469D01*
X111819027Y-101954968D01*
X112348490Y-101706821D01*
X112515471Y-101523881D01*
X112598073Y-101723299D01*
X112776702Y-101901927D01*
X113010091Y-101998600D01*
X113714250Y-101998600D01*
X113873000Y-101839850D01*
X113873000Y-100627000D01*
X111587000Y-100627000D01*
X111333000Y-100627000D01*
X110126183Y-100627000D01*
X110005042Y-100859026D01*
X108885000Y-100859026D01*
X108885000Y-99366580D01*
X109406579Y-98845000D01*
X110254260Y-98845000D01*
X110370971Y-99019670D01*
X110694228Y-99235664D01*
X110571510Y-99293179D01*
X110177312Y-99725053D01*
X110005042Y-100140974D01*
X110126183Y-100373000D01*
X111333000Y-100373000D01*
X111333000Y-100353000D01*
X111587000Y-100353000D01*
X111587000Y-100373000D01*
X113873000Y-100373000D01*
X113873000Y-100353000D01*
X114127000Y-100353000D01*
X114127000Y-100373000D01*
X114147000Y-100373000D01*
X114147000Y-100627000D01*
X114127000Y-100627000D01*
X114127000Y-101839850D01*
X114285750Y-101998600D01*
X114965000Y-101998600D01*
X114965000Y-103750000D01*
X115024755Y-104050407D01*
X115194921Y-104305079D01*
X118815064Y-107925222D01*
X118814838Y-108185167D01*
X118956883Y-108528943D01*
X119219673Y-108792192D01*
X119563201Y-108934838D01*
X119935167Y-108935162D01*
X120278943Y-108793117D01*
X120542192Y-108530327D01*
X120684838Y-108186799D01*
X120685162Y-107814833D01*
X120613564Y-107641553D01*
X120600245Y-107574593D01*
X120562647Y-107518324D01*
X120543117Y-107471057D01*
X120506667Y-107434543D01*
X120430079Y-107319921D01*
X119341163Y-106231005D01*
X119542192Y-106030327D01*
X119684838Y-105686799D01*
X119685162Y-105314833D01*
X119543117Y-104971057D01*
X119280327Y-104707808D01*
X118936799Y-104565162D01*
X118925310Y-104565152D01*
X118210000Y-103849842D01*
X118210000Y-103000000D01*
X118155954Y-102728295D01*
X118002046Y-102497954D01*
X117771705Y-102344046D01*
X117500000Y-102290000D01*
X117285000Y-102332767D01*
X117285000Y-87250005D01*
X117285001Y-87250000D01*
X117225245Y-86949594D01*
X117075013Y-86724755D01*
X117055079Y-86694921D01*
X117055076Y-86694919D01*
X115693709Y-85333552D01*
X115777959Y-84910000D01*
X115663885Y-84336511D01*
X115339029Y-83850330D01*
X115015772Y-83634336D01*
X115138490Y-83576821D01*
X115532688Y-83144947D01*
X115704958Y-82729026D01*
X115583817Y-82497000D01*
X114377000Y-82497000D01*
X114377000Y-82517000D01*
X114123000Y-82517000D01*
X114123000Y-82497000D01*
X111837000Y-82497000D01*
X111837000Y-82517000D01*
X111583000Y-82517000D01*
X111583000Y-82497000D01*
X110376183Y-82497000D01*
X110255042Y-82729026D01*
X110427312Y-83144947D01*
X110821510Y-83576821D01*
X110944228Y-83634336D01*
X110620971Y-83850330D01*
X110360602Y-84240000D01*
X108250000Y-84240000D01*
X107959161Y-84297852D01*
X107712599Y-84462599D01*
X105962599Y-86212599D01*
X105797852Y-86459161D01*
X105740000Y-86750000D01*
X105740000Y-89937537D01*
X105707808Y-89969673D01*
X105565162Y-90313201D01*
X105564838Y-90685167D01*
X105706883Y-91028943D01*
X105969673Y-91292192D01*
X106313201Y-91434838D01*
X106685167Y-91435162D01*
X107028943Y-91293117D01*
X107292192Y-91030327D01*
X107434838Y-90686799D01*
X107435162Y-90314833D01*
X107293117Y-89971057D01*
X107260000Y-89937882D01*
X107260000Y-87064802D01*
X108564802Y-85760000D01*
X110480874Y-85760000D01*
X110620971Y-85969670D01*
X110935752Y-86180000D01*
X110620971Y-86390330D01*
X110296115Y-86876511D01*
X110182041Y-87450000D01*
X110296115Y-88023489D01*
X110620971Y-88509670D01*
X110935752Y-88720000D01*
X110620971Y-88930330D01*
X110296115Y-89416511D01*
X110182041Y-89990000D01*
X110182565Y-89992633D01*
X108712599Y-91462599D01*
X108547852Y-91709161D01*
X108490000Y-92000000D01*
X108490000Y-94937537D01*
X108457808Y-94969673D01*
X108315162Y-95313201D01*
X108314838Y-95685167D01*
X108456883Y-96028943D01*
X108719673Y-96292192D01*
X109063201Y-96434838D01*
X109435167Y-96435162D01*
X109778943Y-96293117D01*
X110042192Y-96030327D01*
X110053129Y-96003987D01*
X110370971Y-96479670D01*
X110685752Y-96690000D01*
X110370971Y-96900330D01*
X110254260Y-97075000D01*
X109040005Y-97075000D01*
X109040000Y-97074999D01*
X108701325Y-97142367D01*
X108414210Y-97334210D01*
X108414208Y-97334213D01*
X107374210Y-98374210D01*
X107182367Y-98661325D01*
X107182367Y-98661326D01*
X107114999Y-99000000D01*
X107115000Y-99000005D01*
X107115000Y-102499995D01*
X107114999Y-102500000D01*
X107145531Y-102653489D01*
X107182367Y-102838675D01*
X107367000Y-103114999D01*
X107374210Y-103125790D01*
X108874208Y-104625787D01*
X108874210Y-104625790D01*
X109161325Y-104817633D01*
X109500000Y-104885000D01*
X111038507Y-104885000D01*
X110843615Y-105095182D01*
X110644025Y-105577056D01*
X110763164Y-105833000D01*
X112123000Y-105833000D01*
X112123000Y-105813000D01*
X112377000Y-105813000D01*
X112377000Y-105833000D01*
X112397000Y-105833000D01*
X112397000Y-106087000D01*
X112377000Y-106087000D01*
X112377000Y-106107000D01*
X112123000Y-106107000D01*
X112123000Y-106087000D01*
X110763164Y-106087000D01*
X110644025Y-106342944D01*
X110843615Y-106824818D01*
X110934097Y-106922398D01*
X110782559Y-107019910D01*
X110637569Y-107232110D01*
X110586560Y-107484000D01*
X110586560Y-107715000D01*
X106825158Y-107715000D01*
X103285000Y-104174842D01*
X103285000Y-74825158D01*
X106555076Y-71555081D01*
X106555079Y-71555079D01*
X106725245Y-71300406D01*
X106785000Y-71000000D01*
X106785000Y-66272038D01*
X106885317Y-66253162D01*
X107101441Y-66114090D01*
X107246431Y-65901890D01*
X107247012Y-65899016D01*
X107780590Y-65899016D01*
X107836271Y-66129611D01*
X108319078Y-66297622D01*
X108829428Y-66268083D01*
X109163729Y-66129611D01*
X109219410Y-65899016D01*
X108500000Y-65179605D01*
X107780590Y-65899016D01*
X107247012Y-65899016D01*
X107297440Y-65650000D01*
X107297440Y-65487615D01*
X107370389Y-65663729D01*
X107600984Y-65719410D01*
X108320395Y-65000000D01*
X108679605Y-65000000D01*
X109399016Y-65719410D01*
X109629611Y-65663729D01*
X109797622Y-65180922D01*
X109768083Y-64670572D01*
X109629611Y-64336271D01*
X109399016Y-64280590D01*
X108679605Y-65000000D01*
X108320395Y-65000000D01*
X107600984Y-64280590D01*
X107370389Y-64336271D01*
X107297440Y-64545902D01*
X107297440Y-64350000D01*
X107253162Y-64114683D01*
X107244347Y-64100984D01*
X107780590Y-64100984D01*
X108500000Y-64820395D01*
X109219410Y-64100984D01*
X109163729Y-63870389D01*
X108680922Y-63702378D01*
X108170572Y-63731917D01*
X107836271Y-63870389D01*
X107780590Y-64100984D01*
X107244347Y-64100984D01*
X107114090Y-63898559D01*
X106901890Y-63753569D01*
X106650000Y-63702560D01*
X105350000Y-63702560D01*
X105114683Y-63746838D01*
X104898559Y-63885910D01*
X104753569Y-64098110D01*
X104702560Y-64350000D01*
X104702560Y-65650000D01*
X104746838Y-65885317D01*
X104885910Y-66101441D01*
X105098110Y-66246431D01*
X105215000Y-66270102D01*
X105215000Y-70674843D01*
X101944921Y-73944921D01*
X101774755Y-74199593D01*
X101762739Y-74260000D01*
X101715000Y-74500000D01*
X101715000Y-104500000D01*
X101774755Y-104800407D01*
X101944921Y-105055079D01*
X105944921Y-109055079D01*
X106199593Y-109225245D01*
X106500000Y-109285000D01*
X110586560Y-109285000D01*
X110586560Y-109516000D01*
X110630838Y-109751317D01*
X110769910Y-109967441D01*
X110982110Y-110112431D01*
X111234000Y-110163440D01*
X113266000Y-110163440D01*
X113501317Y-110119162D01*
X113717441Y-109980090D01*
X113862431Y-109767890D01*
X113888345Y-109639925D01*
X114631534Y-110383114D01*
X113971828Y-110382538D01*
X112991239Y-110787709D01*
X112240345Y-111537293D01*
X111833464Y-112517173D01*
X111832538Y-113578172D01*
X112237709Y-114558761D01*
X112468545Y-114790000D01*
X101794092Y-114790000D01*
X101210000Y-114205908D01*
X101210000Y-63544092D01*
X101794092Y-62960000D01*
X113818210Y-62960000D01*
X113490345Y-63287293D01*
G36*
X128159263Y-70200849D02*
X128050030Y-70750000D01*
X128159263Y-71299151D01*
X128470332Y-71764698D01*
X128852418Y-72020000D01*
X128470332Y-72275302D01*
X128159263Y-72740849D01*
X128050030Y-73290000D01*
X128159263Y-73839151D01*
X128470332Y-74304698D01*
X128852418Y-74560000D01*
X128470332Y-74815302D01*
X128159263Y-75280849D01*
X128050030Y-75830000D01*
X128159263Y-76379151D01*
X128470332Y-76844698D01*
X128848151Y-77097149D01*
X128415500Y-77445104D01*
X128145633Y-77938181D01*
X128128096Y-78020961D01*
X128250085Y-78243000D01*
X129743000Y-78243000D01*
X129743000Y-78223000D01*
X129997000Y-78223000D01*
X129997000Y-78243000D01*
X131489915Y-78243000D01*
X131611904Y-78020961D01*
X131594367Y-77938181D01*
X131324500Y-77445104D01*
X130891849Y-77097149D01*
X131269668Y-76844698D01*
X131580737Y-76379151D01*
X131689970Y-75830000D01*
X131580737Y-75280849D01*
X131269668Y-74815302D01*
X130887582Y-74560000D01*
X131269668Y-74304698D01*
X131580737Y-73839151D01*
X131689970Y-73290000D01*
X131580737Y-72740849D01*
X131269668Y-72275302D01*
X130887582Y-72020000D01*
X131269668Y-71764698D01*
X131439852Y-71510000D01*
X131935198Y-71510000D01*
X133712599Y-73287401D01*
X133843701Y-73375000D01*
X133712599Y-73462599D01*
X131962599Y-75212599D01*
X131797852Y-75459161D01*
X131740000Y-75750000D01*
X131740000Y-83045198D01*
X131631110Y-83154088D01*
X131580737Y-82900849D01*
X131269668Y-82435302D01*
X130891849Y-82182851D01*
X131324500Y-81834896D01*
X131594367Y-81341819D01*
X131611904Y-81259039D01*
X131489915Y-81037000D01*
X129997000Y-81037000D01*
X129997000Y-81057000D01*
X129743000Y-81057000D01*
X129743000Y-81037000D01*
X128250085Y-81037000D01*
X128128096Y-81259039D01*
X128145633Y-81341819D01*
X128415500Y-81834896D01*
X128848151Y-82182851D01*
X128470332Y-82435302D01*
X128159263Y-82900849D01*
X128050430Y-83447991D01*
X126874210Y-84624210D01*
X126682367Y-84911325D01*
X126671190Y-84967516D01*
X126614999Y-85250000D01*
X126615000Y-85250005D01*
X126615000Y-89249995D01*
X126614999Y-89250000D01*
X126665739Y-89505079D01*
X126682367Y-89588675D01*
X126740211Y-89675245D01*
X126874210Y-89875790D01*
X128874208Y-91875787D01*
X128874210Y-91875790D01*
X129161325Y-92067633D01*
X129500000Y-92135001D01*
X129500005Y-92135000D01*
X138133420Y-92135000D01*
X142115000Y-96116579D01*
X142115000Y-105249995D01*
X142114999Y-105250000D01*
X142170761Y-105530327D01*
X142182367Y-105588675D01*
X142243168Y-105679670D01*
X142374210Y-105875790D01*
X146145000Y-109646579D01*
X146145000Y-111721829D01*
X145720330Y-112005585D01*
X145513539Y-112315069D01*
X145142036Y-111899268D01*
X144614791Y-111645291D01*
X144599026Y-111642642D01*
X144367000Y-111763783D01*
X144367000Y-113123000D01*
X144387000Y-113123000D01*
X144387000Y-113377000D01*
X144367000Y-113377000D01*
X144367000Y-113397000D01*
X144113000Y-113397000D01*
X144113000Y-113377000D01*
X141827000Y-113377000D01*
X141827000Y-113397000D01*
X141573000Y-113397000D01*
X141573000Y-113377000D01*
X141553000Y-113377000D01*
X141553000Y-113123000D01*
X141573000Y-113123000D01*
X141573000Y-111763783D01*
X141827000Y-111763783D01*
X141827000Y-113123000D01*
X144113000Y-113123000D01*
X144113000Y-111763783D01*
X143880974Y-111642642D01*
X143865209Y-111645291D01*
X143337964Y-111899268D01*
X142970000Y-112311108D01*
X142602036Y-111899268D01*
X142074791Y-111645291D01*
X142059026Y-111642642D01*
X141827000Y-111763783D01*
X141573000Y-111763783D01*
X141340974Y-111642642D01*
X141325209Y-111645291D01*
X140797964Y-111899268D01*
X140426461Y-112315069D01*
X140219670Y-112005585D01*
X139733489Y-111680729D01*
X139160000Y-111566655D01*
X138965501Y-111605343D01*
X136305079Y-108944921D01*
X136050407Y-108774755D01*
X135750000Y-108715000D01*
X128287506Y-108715000D01*
X128280327Y-108707808D01*
X127936799Y-108565162D01*
X127564833Y-108564838D01*
X127221057Y-108706883D01*
X126957808Y-108969673D01*
X126815162Y-109313201D01*
X126814838Y-109685167D01*
X126956883Y-110028943D01*
X127219673Y-110292192D01*
X127563201Y-110434838D01*
X127935167Y-110435162D01*
X128064885Y-110381564D01*
X128064838Y-110435167D01*
X128206883Y-110778943D01*
X128469673Y-111042192D01*
X128813201Y-111184838D01*
X129185167Y-111185162D01*
X129528943Y-111043117D01*
X129537074Y-111035000D01*
X134424842Y-111035000D01*
X135494279Y-112104437D01*
X135350000Y-112320366D01*
X135139670Y-112005585D01*
X134653489Y-111680729D01*
X134080000Y-111566655D01*
X133506511Y-111680729D01*
X133020330Y-112005585D01*
X132810000Y-112320366D01*
X132599670Y-112005585D01*
X132113489Y-111680729D01*
X131540000Y-111566655D01*
X130966511Y-111680729D01*
X130480330Y-112005585D01*
X130470757Y-112019913D01*
X130466762Y-111998683D01*
X130327690Y-111782559D01*
X130115490Y-111637569D01*
X129863600Y-111586560D01*
X128136400Y-111586560D01*
X127901083Y-111630838D01*
X127684959Y-111769910D01*
X127539969Y-111982110D01*
X127488960Y-112234000D01*
X127488960Y-114266000D01*
X127533238Y-114501317D01*
X127672310Y-114717441D01*
X127778504Y-114790000D01*
X125211580Y-114790000D01*
X126125787Y-113875792D01*
X126125790Y-113875790D01*
X126317633Y-113588675D01*
X126348252Y-113434745D01*
X126385001Y-113250000D01*
X126385000Y-113249995D01*
X126385000Y-91250005D01*
X126385001Y-91250000D01*
X126317633Y-90911326D01*
X126317633Y-90911325D01*
X126125790Y-90624210D01*
X126125787Y-90624208D01*
X124063601Y-88562021D01*
X124069970Y-88530000D01*
X123960737Y-87980849D01*
X123649668Y-87515302D01*
X123267582Y-87260000D01*
X123649668Y-87004698D01*
X123960737Y-86539151D01*
X124066287Y-86008515D01*
X125037401Y-85037401D01*
X125202148Y-84790840D01*
X125260000Y-84500000D01*
X125260000Y-78719039D01*
X128128096Y-78719039D01*
X128145633Y-78801819D01*
X128415500Y-79294896D01*
X128844607Y-79640000D01*
X128415500Y-79985104D01*
X128145633Y-80478181D01*
X128128096Y-80560961D01*
X128250085Y-80783000D01*
X129743000Y-80783000D01*
X129743000Y-78497000D01*
X129997000Y-78497000D01*
X129997000Y-80783000D01*
X131489915Y-80783000D01*
X131611904Y-80560961D01*
X131594367Y-80478181D01*
X131324500Y-79985104D01*
X130895393Y-79640000D01*
X131324500Y-79294896D01*
X131594367Y-78801819D01*
X131611904Y-78719039D01*
X131489915Y-78497000D01*
X129997000Y-78497000D01*
X129743000Y-78497000D01*
X128250085Y-78497000D01*
X128128096Y-78719039D01*
X125260000Y-78719039D01*
X125260000Y-73064802D01*
X128230366Y-70094436D01*
X128159263Y-70200849D01*
X128159263Y-70200849D01*
G37*
X128159263Y-70200849D02*
X128050030Y-70750000D01*
X128159263Y-71299151D01*
X128470332Y-71764698D01*
X128852418Y-72020000D01*
X128470332Y-72275302D01*
X128159263Y-72740849D01*
X128050030Y-73290000D01*
X128159263Y-73839151D01*
X128470332Y-74304698D01*
X128852418Y-74560000D01*
X128470332Y-74815302D01*
X128159263Y-75280849D01*
X128050030Y-75830000D01*
X128159263Y-76379151D01*
X128470332Y-76844698D01*
X128848151Y-77097149D01*
X128415500Y-77445104D01*
X128145633Y-77938181D01*
X128128096Y-78020961D01*
X128250085Y-78243000D01*
X129743000Y-78243000D01*
X129743000Y-78223000D01*
X129997000Y-78223000D01*
X129997000Y-78243000D01*
X131489915Y-78243000D01*
X131611904Y-78020961D01*
X131594367Y-77938181D01*
X131324500Y-77445104D01*
X130891849Y-77097149D01*
X131269668Y-76844698D01*
X131580737Y-76379151D01*
X131689970Y-75830000D01*
X131580737Y-75280849D01*
X131269668Y-74815302D01*
X130887582Y-74560000D01*
X131269668Y-74304698D01*
X131580737Y-73839151D01*
X131689970Y-73290000D01*
X131580737Y-72740849D01*
X131269668Y-72275302D01*
X130887582Y-72020000D01*
X131269668Y-71764698D01*
X131439852Y-71510000D01*
X131935198Y-71510000D01*
X133712599Y-73287401D01*
X133843701Y-73375000D01*
X133712599Y-73462599D01*
X131962599Y-75212599D01*
X131797852Y-75459161D01*
X131740000Y-75750000D01*
X131740000Y-83045198D01*
X131631110Y-83154088D01*
X131580737Y-82900849D01*
X131269668Y-82435302D01*
X130891849Y-82182851D01*
X131324500Y-81834896D01*
X131594367Y-81341819D01*
X131611904Y-81259039D01*
X131489915Y-81037000D01*
X129997000Y-81037000D01*
X129997000Y-81057000D01*
X129743000Y-81057000D01*
X129743000Y-81037000D01*
X128250085Y-81037000D01*
X128128096Y-81259039D01*
X128145633Y-81341819D01*
X128415500Y-81834896D01*
X128848151Y-82182851D01*
X128470332Y-82435302D01*
X128159263Y-82900849D01*
X128050430Y-83447991D01*
X126874210Y-84624210D01*
X126682367Y-84911325D01*
X126671190Y-84967516D01*
X126614999Y-85250000D01*
X126615000Y-85250005D01*
X126615000Y-89249995D01*
X126614999Y-89250000D01*
X126665739Y-89505079D01*
X126682367Y-89588675D01*
X126740211Y-89675245D01*
X126874210Y-89875790D01*
X128874208Y-91875787D01*
X128874210Y-91875790D01*
X129161325Y-92067633D01*
X129500000Y-92135001D01*
X129500005Y-92135000D01*
X138133420Y-92135000D01*
X142115000Y-96116579D01*
X142115000Y-105249995D01*
X142114999Y-105250000D01*
X142170761Y-105530327D01*
X142182367Y-105588675D01*
X142243168Y-105679670D01*
X142374210Y-105875790D01*
X146145000Y-109646579D01*
X146145000Y-111721829D01*
X145720330Y-112005585D01*
X145513539Y-112315069D01*
X145142036Y-111899268D01*
X144614791Y-111645291D01*
X144599026Y-111642642D01*
X144367000Y-111763783D01*
X144367000Y-113123000D01*
X144387000Y-113123000D01*
X144387000Y-113377000D01*
X144367000Y-113377000D01*
X144367000Y-113397000D01*
X144113000Y-113397000D01*
X144113000Y-113377000D01*
X141827000Y-113377000D01*
X141827000Y-113397000D01*
X141573000Y-113397000D01*
X141573000Y-113377000D01*
X141553000Y-113377000D01*
X141553000Y-113123000D01*
X141573000Y-113123000D01*
X141573000Y-111763783D01*
X141827000Y-111763783D01*
X141827000Y-113123000D01*
X144113000Y-113123000D01*
X144113000Y-111763783D01*
X143880974Y-111642642D01*
X143865209Y-111645291D01*
X143337964Y-111899268D01*
X142970000Y-112311108D01*
X142602036Y-111899268D01*
X142074791Y-111645291D01*
X142059026Y-111642642D01*
X141827000Y-111763783D01*
X141573000Y-111763783D01*
X141340974Y-111642642D01*
X141325209Y-111645291D01*
X140797964Y-111899268D01*
X140426461Y-112315069D01*
X140219670Y-112005585D01*
X139733489Y-111680729D01*
X139160000Y-111566655D01*
X138965501Y-111605343D01*
X136305079Y-108944921D01*
X136050407Y-108774755D01*
X135750000Y-108715000D01*
X128287506Y-108715000D01*
X128280327Y-108707808D01*
X127936799Y-108565162D01*
X127564833Y-108564838D01*
X127221057Y-108706883D01*
X126957808Y-108969673D01*
X126815162Y-109313201D01*
X126814838Y-109685167D01*
X126956883Y-110028943D01*
X127219673Y-110292192D01*
X127563201Y-110434838D01*
X127935167Y-110435162D01*
X128064885Y-110381564D01*
X128064838Y-110435167D01*
X128206883Y-110778943D01*
X128469673Y-111042192D01*
X128813201Y-111184838D01*
X129185167Y-111185162D01*
X129528943Y-111043117D01*
X129537074Y-111035000D01*
X134424842Y-111035000D01*
X135494279Y-112104437D01*
X135350000Y-112320366D01*
X135139670Y-112005585D01*
X134653489Y-111680729D01*
X134080000Y-111566655D01*
X133506511Y-111680729D01*
X133020330Y-112005585D01*
X132810000Y-112320366D01*
X132599670Y-112005585D01*
X132113489Y-111680729D01*
X131540000Y-111566655D01*
X130966511Y-111680729D01*
X130480330Y-112005585D01*
X130470757Y-112019913D01*
X130466762Y-111998683D01*
X130327690Y-111782559D01*
X130115490Y-111637569D01*
X129863600Y-111586560D01*
X128136400Y-111586560D01*
X127901083Y-111630838D01*
X127684959Y-111769910D01*
X127539969Y-111982110D01*
X127488960Y-112234000D01*
X127488960Y-114266000D01*
X127533238Y-114501317D01*
X127672310Y-114717441D01*
X127778504Y-114790000D01*
X125211580Y-114790000D01*
X126125787Y-113875792D01*
X126125790Y-113875790D01*
X126317633Y-113588675D01*
X126348252Y-113434745D01*
X126385001Y-113250000D01*
X126385000Y-113249995D01*
X126385000Y-91250005D01*
X126385001Y-91250000D01*
X126317633Y-90911326D01*
X126317633Y-90911325D01*
X126125790Y-90624210D01*
X126125787Y-90624208D01*
X124063601Y-88562021D01*
X124069970Y-88530000D01*
X123960737Y-87980849D01*
X123649668Y-87515302D01*
X123267582Y-87260000D01*
X123649668Y-87004698D01*
X123960737Y-86539151D01*
X124066287Y-86008515D01*
X125037401Y-85037401D01*
X125202148Y-84790840D01*
X125260000Y-84500000D01*
X125260000Y-78719039D01*
X128128096Y-78719039D01*
X128145633Y-78801819D01*
X128415500Y-79294896D01*
X128844607Y-79640000D01*
X128415500Y-79985104D01*
X128145633Y-80478181D01*
X128128096Y-80560961D01*
X128250085Y-80783000D01*
X129743000Y-80783000D01*
X129743000Y-78497000D01*
X129997000Y-78497000D01*
X129997000Y-80783000D01*
X131489915Y-80783000D01*
X131611904Y-80560961D01*
X131594367Y-80478181D01*
X131324500Y-79985104D01*
X130895393Y-79640000D01*
X131324500Y-79294896D01*
X131594367Y-78801819D01*
X131611904Y-78719039D01*
X131489915Y-78497000D01*
X129997000Y-78497000D01*
X129743000Y-78497000D01*
X128250085Y-78497000D01*
X128128096Y-78719039D01*
X125260000Y-78719039D01*
X125260000Y-73064802D01*
X128230366Y-70094436D01*
X128159263Y-70200849D01*
G36*
X150240330Y-71244415D02*
X150726511Y-71569271D01*
X151300000Y-71683345D01*
X151873489Y-71569271D01*
X151946011Y-71520813D01*
X154462599Y-74037401D01*
X154709160Y-74202148D01*
X154757414Y-74211746D01*
X154899454Y-74240000D01*
X149290000Y-74240000D01*
X148999161Y-74297852D01*
X148752599Y-74462599D01*
X139047579Y-84167619D01*
X138540000Y-84066655D01*
X137966511Y-84180729D01*
X137480330Y-84505585D01*
X137470757Y-84519913D01*
X137466762Y-84498683D01*
X137327690Y-84282559D01*
X137115490Y-84137569D01*
X136863600Y-84086560D01*
X135136400Y-84086560D01*
X134901083Y-84130838D01*
X134684959Y-84269910D01*
X134539969Y-84482110D01*
X134488960Y-84734000D01*
X134488960Y-86766000D01*
X134533238Y-87001317D01*
X134672310Y-87217441D01*
X134884510Y-87362431D01*
X135136400Y-87413440D01*
X136863600Y-87413440D01*
X137098917Y-87369162D01*
X137315041Y-87230090D01*
X137460031Y-87017890D01*
X137468400Y-86976561D01*
X137480330Y-86994415D01*
X137966511Y-87319271D01*
X138540000Y-87433345D01*
X139113489Y-87319271D01*
X139599670Y-86994415D01*
X139810000Y-86679634D01*
X140020330Y-86994415D01*
X140506511Y-87319271D01*
X141080000Y-87433345D01*
X141653489Y-87319271D01*
X142139670Y-86994415D01*
X142350000Y-86679634D01*
X142560330Y-86994415D01*
X143046511Y-87319271D01*
X143620000Y-87433345D01*
X144193489Y-87319271D01*
X144679670Y-86994415D01*
X144890000Y-86679634D01*
X145100330Y-86994415D01*
X145586511Y-87319271D01*
X146160000Y-87433345D01*
X146733489Y-87319271D01*
X147219670Y-86994415D01*
X147430000Y-86679634D01*
X147640330Y-86994415D01*
X148126511Y-87319271D01*
X148700000Y-87433345D01*
X149273489Y-87319271D01*
X149759670Y-86994415D01*
X149970000Y-86679634D01*
X150180330Y-86994415D01*
X150666511Y-87319271D01*
X151240000Y-87433345D01*
X151813489Y-87319271D01*
X152299670Y-86994415D01*
X152510000Y-86679634D01*
X152720330Y-86994415D01*
X153206511Y-87319271D01*
X153780000Y-87433345D01*
X154353489Y-87319271D01*
X154839670Y-86994415D01*
X155050000Y-86679634D01*
X155260330Y-86994415D01*
X155560000Y-87194648D01*
X155560000Y-89615198D01*
X150685198Y-94490000D01*
X147000000Y-94490000D01*
X146709160Y-94547852D01*
X146462599Y-94712599D01*
X144962599Y-96212599D01*
X144797852Y-96459161D01*
X144740000Y-96750000D01*
X144740000Y-98000000D01*
X144797852Y-98290839D01*
X144962599Y-98537401D01*
X146502599Y-100077401D01*
X146749161Y-100242148D01*
X147040000Y-100300000D01*
X147055352Y-100300000D01*
X147255585Y-100599670D01*
X147570366Y-100810000D01*
X147255585Y-101020330D01*
X146930729Y-101506511D01*
X146816655Y-102080000D01*
X146930729Y-102653489D01*
X147255585Y-103139670D01*
X147570366Y-103350000D01*
X147255585Y-103560330D01*
X146930729Y-104046511D01*
X146816655Y-104620000D01*
X146930729Y-105193489D01*
X147255585Y-105679670D01*
X147741766Y-106004526D01*
X148315255Y-106118600D01*
X148684745Y-106118600D01*
X149258234Y-106004526D01*
X149744415Y-105679670D01*
X149944648Y-105380000D01*
X156895341Y-105380000D01*
X156956883Y-105528943D01*
X157219673Y-105792192D01*
X157386822Y-105861599D01*
X156683420Y-106565000D01*
X151606822Y-106565000D01*
X151486799Y-106515162D01*
X151114833Y-106514838D01*
X150771057Y-106656883D01*
X150507808Y-106919673D01*
X150365162Y-107263201D01*
X150364838Y-107635167D01*
X150506883Y-107978943D01*
X150762454Y-108234960D01*
X150382400Y-108234960D01*
X150147083Y-108279238D01*
X149930959Y-108418310D01*
X149785969Y-108630510D01*
X149734960Y-108882400D01*
X149734960Y-111117600D01*
X149779238Y-111352917D01*
X149918310Y-111569041D01*
X150130510Y-111714031D01*
X150237977Y-111735794D01*
X150184959Y-111769910D01*
X150039969Y-111982110D01*
X149988960Y-112234000D01*
X149988960Y-114266000D01*
X150033238Y-114501317D01*
X150172310Y-114717441D01*
X150278504Y-114790000D01*
X147397296Y-114790000D01*
X147839670Y-114494415D01*
X148164526Y-114008234D01*
X148278600Y-113434745D01*
X148278600Y-113065255D01*
X148164526Y-112491766D01*
X147915000Y-112118324D01*
X147915000Y-109280005D01*
X147915001Y-109280000D01*
X147847633Y-108941326D01*
X147847633Y-108941325D01*
X147655790Y-108654210D01*
X147655787Y-108654208D01*
X143885000Y-104883420D01*
X143885000Y-95750005D01*
X143885001Y-95750000D01*
X143827357Y-95460209D01*
X143817633Y-95411325D01*
X143625790Y-95124210D01*
X143625787Y-95124208D01*
X139125790Y-90624210D01*
X138980904Y-90527401D01*
X138838675Y-90432367D01*
X138782484Y-90421190D01*
X138500000Y-90364999D01*
X138499995Y-90365000D01*
X129866579Y-90365000D01*
X129461998Y-89960419D01*
X129485030Y-89965000D01*
X130254970Y-89965000D01*
X130804121Y-89855767D01*
X131269668Y-89544698D01*
X131580737Y-89079151D01*
X131663940Y-88660862D01*
X134037401Y-86287401D01*
X134202148Y-86040839D01*
X134260000Y-85750000D01*
X134260000Y-79790000D01*
X134316655Y-79790000D01*
X134430729Y-80363489D01*
X134755585Y-80849670D01*
X135070366Y-81060000D01*
X134755585Y-81270330D01*
X134430729Y-81756511D01*
X134316655Y-82330000D01*
X134430729Y-82903489D01*
X134755585Y-83389670D01*
X135241766Y-83714526D01*
X135815255Y-83828600D01*
X136184745Y-83828600D01*
X136758234Y-83714526D01*
X137244415Y-83389670D01*
X137569271Y-82903489D01*
X137683345Y-82330000D01*
X137569271Y-81756511D01*
X137244415Y-81270330D01*
X136929634Y-81060000D01*
X137244415Y-80849670D01*
X137569271Y-80363489D01*
X137683345Y-79790000D01*
X137569271Y-79216511D01*
X137244415Y-78730330D01*
X137222220Y-78715500D01*
X137375698Y-78651927D01*
X137554327Y-78473299D01*
X137651000Y-78239910D01*
X137651000Y-77535750D01*
X137492250Y-77377000D01*
X136127000Y-77377000D01*
X136127000Y-77397000D01*
X135873000Y-77397000D01*
X135873000Y-77377000D01*
X134507750Y-77377000D01*
X134349000Y-77535750D01*
X134349000Y-78239910D01*
X134445673Y-78473299D01*
X134624302Y-78651927D01*
X134777780Y-78715500D01*
X134755585Y-78730330D01*
X134430729Y-79216511D01*
X134316655Y-79790000D01*
X134260000Y-79790000D01*
X134260000Y-76564802D01*
X134349000Y-76475802D01*
X134349000Y-76964250D01*
X134507750Y-77123000D01*
X135873000Y-77123000D01*
X135873000Y-77103000D01*
X136127000Y-77103000D01*
X136127000Y-77123000D01*
X137492250Y-77123000D01*
X137651000Y-76964250D01*
X137651000Y-76260090D01*
X137554327Y-76026701D01*
X137375698Y-75848073D01*
X137163071Y-75760000D01*
X138000000Y-75760000D01*
X138290839Y-75702148D01*
X138537401Y-75537401D01*
X141677401Y-72397401D01*
X141842148Y-72150839D01*
X141900000Y-71860000D01*
X141900000Y-71444648D01*
X142199670Y-71244415D01*
X142410000Y-70929634D01*
X142620330Y-71244415D01*
X143106511Y-71569271D01*
X143680000Y-71683345D01*
X144253489Y-71569271D01*
X144739670Y-71244415D01*
X144950000Y-70929634D01*
X145160330Y-71244415D01*
X145646511Y-71569271D01*
X146220000Y-71683345D01*
X146793489Y-71569271D01*
X147279670Y-71244415D01*
X147490000Y-70929634D01*
X147700330Y-71244415D01*
X148186511Y-71569271D01*
X148760000Y-71683345D01*
X149333489Y-71569271D01*
X149819670Y-71244415D01*
X150030000Y-70929634D01*
X150240330Y-71244415D01*
X150240330Y-71244415D01*
G37*
X150240330Y-71244415D02*
X150726511Y-71569271D01*
X151300000Y-71683345D01*
X151873489Y-71569271D01*
X151946011Y-71520813D01*
X154462599Y-74037401D01*
X154709160Y-74202148D01*
X154757414Y-74211746D01*
X154899454Y-74240000D01*
X149290000Y-74240000D01*
X148999161Y-74297852D01*
X148752599Y-74462599D01*
X139047579Y-84167619D01*
X138540000Y-84066655D01*
X137966511Y-84180729D01*
X137480330Y-84505585D01*
X137470757Y-84519913D01*
X137466762Y-84498683D01*
X137327690Y-84282559D01*
X137115490Y-84137569D01*
X136863600Y-84086560D01*
X135136400Y-84086560D01*
X134901083Y-84130838D01*
X134684959Y-84269910D01*
X134539969Y-84482110D01*
X134488960Y-84734000D01*
X134488960Y-86766000D01*
X134533238Y-87001317D01*
X134672310Y-87217441D01*
X134884510Y-87362431D01*
X135136400Y-87413440D01*
X136863600Y-87413440D01*
X137098917Y-87369162D01*
X137315041Y-87230090D01*
X137460031Y-87017890D01*
X137468400Y-86976561D01*
X137480330Y-86994415D01*
X137966511Y-87319271D01*
X138540000Y-87433345D01*
X139113489Y-87319271D01*
X139599670Y-86994415D01*
X139810000Y-86679634D01*
X140020330Y-86994415D01*
X140506511Y-87319271D01*
X141080000Y-87433345D01*
X141653489Y-87319271D01*
X142139670Y-86994415D01*
X142350000Y-86679634D01*
X142560330Y-86994415D01*
X143046511Y-87319271D01*
X143620000Y-87433345D01*
X144193489Y-87319271D01*
X144679670Y-86994415D01*
X144890000Y-86679634D01*
X145100330Y-86994415D01*
X145586511Y-87319271D01*
X146160000Y-87433345D01*
X146733489Y-87319271D01*
X147219670Y-86994415D01*
X147430000Y-86679634D01*
X147640330Y-86994415D01*
X148126511Y-87319271D01*
X148700000Y-87433345D01*
X149273489Y-87319271D01*
X149759670Y-86994415D01*
X149970000Y-86679634D01*
X150180330Y-86994415D01*
X150666511Y-87319271D01*
X151240000Y-87433345D01*
X151813489Y-87319271D01*
X152299670Y-86994415D01*
X152510000Y-86679634D01*
X152720330Y-86994415D01*
X153206511Y-87319271D01*
X153780000Y-87433345D01*
X154353489Y-87319271D01*
X154839670Y-86994415D01*
X155050000Y-86679634D01*
X155260330Y-86994415D01*
X155560000Y-87194648D01*
X155560000Y-89615198D01*
X150685198Y-94490000D01*
X147000000Y-94490000D01*
X146709160Y-94547852D01*
X146462599Y-94712599D01*
X144962599Y-96212599D01*
X144797852Y-96459161D01*
X144740000Y-96750000D01*
X144740000Y-98000000D01*
X144797852Y-98290839D01*
X144962599Y-98537401D01*
X146502599Y-100077401D01*
X146749161Y-100242148D01*
X147040000Y-100300000D01*
X147055352Y-100300000D01*
X147255585Y-100599670D01*
X147570366Y-100810000D01*
X147255585Y-101020330D01*
X146930729Y-101506511D01*
X146816655Y-102080000D01*
X146930729Y-102653489D01*
X147255585Y-103139670D01*
X147570366Y-103350000D01*
X147255585Y-103560330D01*
X146930729Y-104046511D01*
X146816655Y-104620000D01*
X146930729Y-105193489D01*
X147255585Y-105679670D01*
X147741766Y-106004526D01*
X148315255Y-106118600D01*
X148684745Y-106118600D01*
X149258234Y-106004526D01*
X149744415Y-105679670D01*
X149944648Y-105380000D01*
X156895341Y-105380000D01*
X156956883Y-105528943D01*
X157219673Y-105792192D01*
X157386822Y-105861599D01*
X156683420Y-106565000D01*
X151606822Y-106565000D01*
X151486799Y-106515162D01*
X151114833Y-106514838D01*
X150771057Y-106656883D01*
X150507808Y-106919673D01*
X150365162Y-107263201D01*
X150364838Y-107635167D01*
X150506883Y-107978943D01*
X150762454Y-108234960D01*
X150382400Y-108234960D01*
X150147083Y-108279238D01*
X149930959Y-108418310D01*
X149785969Y-108630510D01*
X149734960Y-108882400D01*
X149734960Y-111117600D01*
X149779238Y-111352917D01*
X149918310Y-111569041D01*
X150130510Y-111714031D01*
X150237977Y-111735794D01*
X150184959Y-111769910D01*
X150039969Y-111982110D01*
X149988960Y-112234000D01*
X149988960Y-114266000D01*
X150033238Y-114501317D01*
X150172310Y-114717441D01*
X150278504Y-114790000D01*
X147397296Y-114790000D01*
X147839670Y-114494415D01*
X148164526Y-114008234D01*
X148278600Y-113434745D01*
X148278600Y-113065255D01*
X148164526Y-112491766D01*
X147915000Y-112118324D01*
X147915000Y-109280005D01*
X147915001Y-109280000D01*
X147847633Y-108941326D01*
X147847633Y-108941325D01*
X147655790Y-108654210D01*
X147655787Y-108654208D01*
X143885000Y-104883420D01*
X143885000Y-95750005D01*
X143885001Y-95750000D01*
X143827357Y-95460209D01*
X143817633Y-95411325D01*
X143625790Y-95124210D01*
X143625787Y-95124208D01*
X139125790Y-90624210D01*
X138980904Y-90527401D01*
X138838675Y-90432367D01*
X138782484Y-90421190D01*
X138500000Y-90364999D01*
X138499995Y-90365000D01*
X129866579Y-90365000D01*
X129461998Y-89960419D01*
X129485030Y-89965000D01*
X130254970Y-89965000D01*
X130804121Y-89855767D01*
X131269668Y-89544698D01*
X131580737Y-89079151D01*
X131663940Y-88660862D01*
X134037401Y-86287401D01*
X134202148Y-86040839D01*
X134260000Y-85750000D01*
X134260000Y-79790000D01*
X134316655Y-79790000D01*
X134430729Y-80363489D01*
X134755585Y-80849670D01*
X135070366Y-81060000D01*
X134755585Y-81270330D01*
X134430729Y-81756511D01*
X134316655Y-82330000D01*
X134430729Y-82903489D01*
X134755585Y-83389670D01*
X135241766Y-83714526D01*
X135815255Y-83828600D01*
X136184745Y-83828600D01*
X136758234Y-83714526D01*
X137244415Y-83389670D01*
X137569271Y-82903489D01*
X137683345Y-82330000D01*
X137569271Y-81756511D01*
X137244415Y-81270330D01*
X136929634Y-81060000D01*
X137244415Y-80849670D01*
X137569271Y-80363489D01*
X137683345Y-79790000D01*
X137569271Y-79216511D01*
X137244415Y-78730330D01*
X137222220Y-78715500D01*
X137375698Y-78651927D01*
X137554327Y-78473299D01*
X137651000Y-78239910D01*
X137651000Y-77535750D01*
X137492250Y-77377000D01*
X136127000Y-77377000D01*
X136127000Y-77397000D01*
X135873000Y-77397000D01*
X135873000Y-77377000D01*
X134507750Y-77377000D01*
X134349000Y-77535750D01*
X134349000Y-78239910D01*
X134445673Y-78473299D01*
X134624302Y-78651927D01*
X134777780Y-78715500D01*
X134755585Y-78730330D01*
X134430729Y-79216511D01*
X134316655Y-79790000D01*
X134260000Y-79790000D01*
X134260000Y-76564802D01*
X134349000Y-76475802D01*
X134349000Y-76964250D01*
X134507750Y-77123000D01*
X135873000Y-77123000D01*
X135873000Y-77103000D01*
X136127000Y-77103000D01*
X136127000Y-77123000D01*
X137492250Y-77123000D01*
X137651000Y-76964250D01*
X137651000Y-76260090D01*
X137554327Y-76026701D01*
X137375698Y-75848073D01*
X137163071Y-75760000D01*
X138000000Y-75760000D01*
X138290839Y-75702148D01*
X138537401Y-75537401D01*
X141677401Y-72397401D01*
X141842148Y-72150839D01*
X141900000Y-71860000D01*
X141900000Y-71444648D01*
X142199670Y-71244415D01*
X142410000Y-70929634D01*
X142620330Y-71244415D01*
X143106511Y-71569271D01*
X143680000Y-71683345D01*
X144253489Y-71569271D01*
X144739670Y-71244415D01*
X144950000Y-70929634D01*
X145160330Y-71244415D01*
X145646511Y-71569271D01*
X146220000Y-71683345D01*
X146793489Y-71569271D01*
X147279670Y-71244415D01*
X147490000Y-70929634D01*
X147700330Y-71244415D01*
X148186511Y-71569271D01*
X148760000Y-71683345D01*
X149333489Y-71569271D01*
X149819670Y-71244415D01*
X150030000Y-70929634D01*
X150240330Y-71244415D01*
G36*
X166240000Y-76064802D02*
X166240000Y-81337253D01*
X166186799Y-81315162D01*
X165814833Y-81314838D01*
X165471057Y-81456883D01*
X165437882Y-81490000D01*
X155251283Y-81490000D01*
X154957433Y-81050222D01*
X154523085Y-80760000D01*
X158937537Y-80760000D01*
X158969673Y-80792192D01*
X159313201Y-80934838D01*
X159685167Y-80935162D01*
X160028943Y-80793117D01*
X160292192Y-80530327D01*
X160434838Y-80186799D01*
X160435162Y-79814833D01*
X160293117Y-79471057D01*
X160030327Y-79207808D01*
X159686799Y-79065162D01*
X159314833Y-79064838D01*
X158971057Y-79206883D01*
X158937882Y-79240000D01*
X152000000Y-79240000D01*
X151709160Y-79297852D01*
X151462599Y-79462599D01*
X150712599Y-80212599D01*
X150547852Y-80459161D01*
X150522511Y-80586560D01*
X150234000Y-80586560D01*
X149998683Y-80630838D01*
X149782559Y-80769910D01*
X149637569Y-80982110D01*
X149586560Y-81234000D01*
X149586560Y-83266000D01*
X149630838Y-83501317D01*
X149769910Y-83717441D01*
X149982110Y-83862431D01*
X150234000Y-83913440D01*
X152266000Y-83913440D01*
X152501317Y-83869162D01*
X152717441Y-83730090D01*
X152819198Y-83581163D01*
X153158190Y-83807670D01*
X153790000Y-83933345D01*
X154421810Y-83807670D01*
X154957433Y-83449778D01*
X155251283Y-83010000D01*
X165437537Y-83010000D01*
X165469673Y-83042192D01*
X165813201Y-83184838D01*
X166185167Y-83185162D01*
X166240000Y-83162506D01*
X166240000Y-100435198D01*
X157435198Y-109240000D01*
X153265040Y-109240000D01*
X153265040Y-108882400D01*
X153220762Y-108647083D01*
X153081690Y-108430959D01*
X152941249Y-108335000D01*
X157049995Y-108335000D01*
X157050000Y-108335001D01*
X157346194Y-108276083D01*
X157388675Y-108267633D01*
X157675790Y-108075790D01*
X164565787Y-101185792D01*
X164565790Y-101185790D01*
X164757633Y-100898675D01*
X164825000Y-100560000D01*
X164825000Y-87111126D01*
X164999670Y-86994415D01*
X165324526Y-86508234D01*
X165438600Y-85934745D01*
X165438600Y-85565255D01*
X165324526Y-84991766D01*
X164999670Y-84505585D01*
X164513489Y-84180729D01*
X163940000Y-84066655D01*
X163366511Y-84180729D01*
X162880330Y-84505585D01*
X162673539Y-84815069D01*
X162302036Y-84399268D01*
X161774791Y-84145291D01*
X161759026Y-84142642D01*
X161527000Y-84263783D01*
X161527000Y-85623000D01*
X161547000Y-85623000D01*
X161547000Y-85877000D01*
X161527000Y-85877000D01*
X161527000Y-87236217D01*
X161759026Y-87357358D01*
X161774791Y-87354709D01*
X162302036Y-87100732D01*
X162673539Y-86684931D01*
X162880330Y-86994415D01*
X163055000Y-87111126D01*
X163055000Y-100193421D01*
X158611606Y-104636814D01*
X158543117Y-104471057D01*
X158280327Y-104207808D01*
X157936799Y-104065162D01*
X157881232Y-104065114D01*
X157660839Y-103917852D01*
X157370000Y-103860000D01*
X149944648Y-103860000D01*
X149744415Y-103560330D01*
X149429634Y-103350000D01*
X149744415Y-103139670D01*
X149944648Y-102840000D01*
X156084807Y-102840000D01*
X156313201Y-102934838D01*
X156685167Y-102935162D01*
X157028943Y-102793117D01*
X157292192Y-102530327D01*
X157434838Y-102186799D01*
X157435162Y-101814833D01*
X157293117Y-101471057D01*
X157030327Y-101207808D01*
X156686799Y-101065162D01*
X156314833Y-101064838D01*
X155971057Y-101206883D01*
X155857742Y-101320000D01*
X149944648Y-101320000D01*
X149744415Y-101020330D01*
X149429634Y-100810000D01*
X149744415Y-100599670D01*
X150069271Y-100113489D01*
X150183345Y-99540000D01*
X150069271Y-98966511D01*
X149744415Y-98480330D01*
X149722220Y-98465500D01*
X149875698Y-98401927D01*
X150054327Y-98223299D01*
X150151000Y-97989910D01*
X150151000Y-97285750D01*
X149992250Y-97127000D01*
X148627000Y-97127000D01*
X148627000Y-97147000D01*
X148373000Y-97147000D01*
X148373000Y-97127000D01*
X147007750Y-97127000D01*
X146849000Y-97285750D01*
X146849000Y-97989910D01*
X146945673Y-98223299D01*
X147124302Y-98401927D01*
X147277780Y-98465500D01*
X147255585Y-98480330D01*
X147175295Y-98600493D01*
X146260000Y-97685198D01*
X146260000Y-97064802D01*
X146849000Y-96475802D01*
X146849000Y-96714250D01*
X147007750Y-96873000D01*
X148373000Y-96873000D01*
X148373000Y-96853000D01*
X148627000Y-96853000D01*
X148627000Y-96873000D01*
X149992250Y-96873000D01*
X150151000Y-96714250D01*
X150151000Y-96010090D01*
X150150963Y-96010000D01*
X151000000Y-96010000D01*
X151290839Y-95952148D01*
X151537401Y-95787401D01*
X156857401Y-90467401D01*
X157022148Y-90220839D01*
X157080000Y-89930000D01*
X157080000Y-87194648D01*
X157379670Y-86994415D01*
X157590000Y-86679634D01*
X157800330Y-86994415D01*
X158286511Y-87319271D01*
X158860000Y-87433345D01*
X159433489Y-87319271D01*
X159919670Y-86994415D01*
X160126461Y-86684931D01*
X160497964Y-87100732D01*
X161025209Y-87354709D01*
X161040974Y-87357358D01*
X161273000Y-87236217D01*
X161273000Y-85877000D01*
X161253000Y-85877000D01*
X161253000Y-85623000D01*
X161273000Y-85623000D01*
X161273000Y-84263783D01*
X161040974Y-84142642D01*
X161025209Y-84145291D01*
X160497964Y-84399268D01*
X160126461Y-84815069D01*
X159919670Y-84505585D01*
X159433489Y-84180729D01*
X158860000Y-84066655D01*
X158286511Y-84180729D01*
X157800330Y-84505585D01*
X157590000Y-84820366D01*
X157379670Y-84505585D01*
X156893489Y-84180729D01*
X156320000Y-84066655D01*
X155746511Y-84180729D01*
X155260330Y-84505585D01*
X155050000Y-84820366D01*
X154839670Y-84505585D01*
X154353489Y-84180729D01*
X153780000Y-84066655D01*
X153206511Y-84180729D01*
X152720330Y-84505585D01*
X152510000Y-84820366D01*
X152299670Y-84505585D01*
X151813489Y-84180729D01*
X151240000Y-84066655D01*
X150666511Y-84180729D01*
X150180330Y-84505585D01*
X149970000Y-84820366D01*
X149759670Y-84505585D01*
X149273489Y-84180729D01*
X148700000Y-84066655D01*
X148126511Y-84180729D01*
X147640330Y-84505585D01*
X147430000Y-84820366D01*
X147219670Y-84505585D01*
X146733489Y-84180729D01*
X146160000Y-84066655D01*
X145586511Y-84180729D01*
X145100330Y-84505585D01*
X144890000Y-84820366D01*
X144679670Y-84505585D01*
X144193489Y-84180729D01*
X143801954Y-84102848D01*
X149604802Y-78300000D01*
X156038717Y-78300000D01*
X156332567Y-78739778D01*
X156868190Y-79097670D01*
X157500000Y-79223345D01*
X158131810Y-79097670D01*
X158667433Y-78739778D01*
X159025325Y-78204155D01*
X159151000Y-77572345D01*
X159151000Y-77507655D01*
X159025325Y-76875845D01*
X158822996Y-76573038D01*
X158967441Y-76480090D01*
X159112431Y-76267890D01*
X159163440Y-76016000D01*
X159163440Y-74260000D01*
X164435198Y-74260000D01*
X166240000Y-76064802D01*
X166240000Y-76064802D01*
G37*
X166240000Y-76064802D02*
X166240000Y-81337253D01*
X166186799Y-81315162D01*
X165814833Y-81314838D01*
X165471057Y-81456883D01*
X165437882Y-81490000D01*
X155251283Y-81490000D01*
X154957433Y-81050222D01*
X154523085Y-80760000D01*
X158937537Y-80760000D01*
X158969673Y-80792192D01*
X159313201Y-80934838D01*
X159685167Y-80935162D01*
X160028943Y-80793117D01*
X160292192Y-80530327D01*
X160434838Y-80186799D01*
X160435162Y-79814833D01*
X160293117Y-79471057D01*
X160030327Y-79207808D01*
X159686799Y-79065162D01*
X159314833Y-79064838D01*
X158971057Y-79206883D01*
X158937882Y-79240000D01*
X152000000Y-79240000D01*
X151709160Y-79297852D01*
X151462599Y-79462599D01*
X150712599Y-80212599D01*
X150547852Y-80459161D01*
X150522511Y-80586560D01*
X150234000Y-80586560D01*
X149998683Y-80630838D01*
X149782559Y-80769910D01*
X149637569Y-80982110D01*
X149586560Y-81234000D01*
X149586560Y-83266000D01*
X149630838Y-83501317D01*
X149769910Y-83717441D01*
X149982110Y-83862431D01*
X150234000Y-83913440D01*
X152266000Y-83913440D01*
X152501317Y-83869162D01*
X152717441Y-83730090D01*
X152819198Y-83581163D01*
X153158190Y-83807670D01*
X153790000Y-83933345D01*
X154421810Y-83807670D01*
X154957433Y-83449778D01*
X155251283Y-83010000D01*
X165437537Y-83010000D01*
X165469673Y-83042192D01*
X165813201Y-83184838D01*
X166185167Y-83185162D01*
X166240000Y-83162506D01*
X166240000Y-100435198D01*
X157435198Y-109240000D01*
X153265040Y-109240000D01*
X153265040Y-108882400D01*
X153220762Y-108647083D01*
X153081690Y-108430959D01*
X152941249Y-108335000D01*
X157049995Y-108335000D01*
X157050000Y-108335001D01*
X157346194Y-108276083D01*
X157388675Y-108267633D01*
X157675790Y-108075790D01*
X164565787Y-101185792D01*
X164565790Y-101185790D01*
X164757633Y-100898675D01*
X164825000Y-100560000D01*
X164825000Y-87111126D01*
X164999670Y-86994415D01*
X165324526Y-86508234D01*
X165438600Y-85934745D01*
X165438600Y-85565255D01*
X165324526Y-84991766D01*
X164999670Y-84505585D01*
X164513489Y-84180729D01*
X163940000Y-84066655D01*
X163366511Y-84180729D01*
X162880330Y-84505585D01*
X162673539Y-84815069D01*
X162302036Y-84399268D01*
X161774791Y-84145291D01*
X161759026Y-84142642D01*
X161527000Y-84263783D01*
X161527000Y-85623000D01*
X161547000Y-85623000D01*
X161547000Y-85877000D01*
X161527000Y-85877000D01*
X161527000Y-87236217D01*
X161759026Y-87357358D01*
X161774791Y-87354709D01*
X162302036Y-87100732D01*
X162673539Y-86684931D01*
X162880330Y-86994415D01*
X163055000Y-87111126D01*
X163055000Y-100193421D01*
X158611606Y-104636814D01*
X158543117Y-104471057D01*
X158280327Y-104207808D01*
X157936799Y-104065162D01*
X157881232Y-104065114D01*
X157660839Y-103917852D01*
X157370000Y-103860000D01*
X149944648Y-103860000D01*
X149744415Y-103560330D01*
X149429634Y-103350000D01*
X149744415Y-103139670D01*
X149944648Y-102840000D01*
X156084807Y-102840000D01*
X156313201Y-102934838D01*
X156685167Y-102935162D01*
X157028943Y-102793117D01*
X157292192Y-102530327D01*
X157434838Y-102186799D01*
X157435162Y-101814833D01*
X157293117Y-101471057D01*
X157030327Y-101207808D01*
X156686799Y-101065162D01*
X156314833Y-101064838D01*
X155971057Y-101206883D01*
X155857742Y-101320000D01*
X149944648Y-101320000D01*
X149744415Y-101020330D01*
X149429634Y-100810000D01*
X149744415Y-100599670D01*
X150069271Y-100113489D01*
X150183345Y-99540000D01*
X150069271Y-98966511D01*
X149744415Y-98480330D01*
X149722220Y-98465500D01*
X149875698Y-98401927D01*
X150054327Y-98223299D01*
X150151000Y-97989910D01*
X150151000Y-97285750D01*
X149992250Y-97127000D01*
X148627000Y-97127000D01*
X148627000Y-97147000D01*
X148373000Y-97147000D01*
X148373000Y-97127000D01*
X147007750Y-97127000D01*
X146849000Y-97285750D01*
X146849000Y-97989910D01*
X146945673Y-98223299D01*
X147124302Y-98401927D01*
X147277780Y-98465500D01*
X147255585Y-98480330D01*
X147175295Y-98600493D01*
X146260000Y-97685198D01*
X146260000Y-97064802D01*
X146849000Y-96475802D01*
X146849000Y-96714250D01*
X147007750Y-96873000D01*
X148373000Y-96873000D01*
X148373000Y-96853000D01*
X148627000Y-96853000D01*
X148627000Y-96873000D01*
X149992250Y-96873000D01*
X150151000Y-96714250D01*
X150151000Y-96010090D01*
X150150963Y-96010000D01*
X151000000Y-96010000D01*
X151290839Y-95952148D01*
X151537401Y-95787401D01*
X156857401Y-90467401D01*
X157022148Y-90220839D01*
X157080000Y-89930000D01*
X157080000Y-87194648D01*
X157379670Y-86994415D01*
X157590000Y-86679634D01*
X157800330Y-86994415D01*
X158286511Y-87319271D01*
X158860000Y-87433345D01*
X159433489Y-87319271D01*
X159919670Y-86994415D01*
X160126461Y-86684931D01*
X160497964Y-87100732D01*
X161025209Y-87354709D01*
X161040974Y-87357358D01*
X161273000Y-87236217D01*
X161273000Y-85877000D01*
X161253000Y-85877000D01*
X161253000Y-85623000D01*
X161273000Y-85623000D01*
X161273000Y-84263783D01*
X161040974Y-84142642D01*
X161025209Y-84145291D01*
X160497964Y-84399268D01*
X160126461Y-84815069D01*
X159919670Y-84505585D01*
X159433489Y-84180729D01*
X158860000Y-84066655D01*
X158286511Y-84180729D01*
X157800330Y-84505585D01*
X157590000Y-84820366D01*
X157379670Y-84505585D01*
X156893489Y-84180729D01*
X156320000Y-84066655D01*
X155746511Y-84180729D01*
X155260330Y-84505585D01*
X155050000Y-84820366D01*
X154839670Y-84505585D01*
X154353489Y-84180729D01*
X153780000Y-84066655D01*
X153206511Y-84180729D01*
X152720330Y-84505585D01*
X152510000Y-84820366D01*
X152299670Y-84505585D01*
X151813489Y-84180729D01*
X151240000Y-84066655D01*
X150666511Y-84180729D01*
X150180330Y-84505585D01*
X149970000Y-84820366D01*
X149759670Y-84505585D01*
X149273489Y-84180729D01*
X148700000Y-84066655D01*
X148126511Y-84180729D01*
X147640330Y-84505585D01*
X147430000Y-84820366D01*
X147219670Y-84505585D01*
X146733489Y-84180729D01*
X146160000Y-84066655D01*
X145586511Y-84180729D01*
X145100330Y-84505585D01*
X144890000Y-84820366D01*
X144679670Y-84505585D01*
X144193489Y-84180729D01*
X143801954Y-84102848D01*
X149604802Y-78300000D01*
X156038717Y-78300000D01*
X156332567Y-78739778D01*
X156868190Y-79097670D01*
X157500000Y-79223345D01*
X158131810Y-79097670D01*
X158667433Y-78739778D01*
X159025325Y-78204155D01*
X159151000Y-77572345D01*
X159151000Y-77507655D01*
X159025325Y-76875845D01*
X158822996Y-76573038D01*
X158967441Y-76480090D01*
X159112431Y-76267890D01*
X159163440Y-76016000D01*
X159163440Y-74260000D01*
X164435198Y-74260000D01*
X166240000Y-76064802D01*
G36*
X120850332Y-76844698D02*
X121228151Y-77097149D01*
X120795500Y-77445104D01*
X120525633Y-77938181D01*
X120508096Y-78020961D01*
X120630085Y-78243000D01*
X122123000Y-78243000D01*
X122123000Y-78223000D01*
X122377000Y-78223000D01*
X122377000Y-78243000D01*
X122397000Y-78243000D01*
X122397000Y-78497000D01*
X122377000Y-78497000D01*
X122377000Y-80783000D01*
X122397000Y-80783000D01*
X122397000Y-81037000D01*
X122377000Y-81037000D01*
X122377000Y-81057000D01*
X122123000Y-81057000D01*
X122123000Y-81037000D01*
X120630085Y-81037000D01*
X120508096Y-81259039D01*
X120525633Y-81341819D01*
X120795500Y-81834896D01*
X121228151Y-82182851D01*
X120850332Y-82435302D01*
X120539263Y-82900849D01*
X120430030Y-83450000D01*
X120449672Y-83548748D01*
X119635000Y-84363420D01*
X119635000Y-78719039D01*
X120508096Y-78719039D01*
X120525633Y-78801819D01*
X120795500Y-79294896D01*
X121224607Y-79640000D01*
X120795500Y-79985104D01*
X120525633Y-80478181D01*
X120508096Y-80560961D01*
X120630085Y-80783000D01*
X122123000Y-80783000D01*
X122123000Y-78497000D01*
X120630085Y-78497000D01*
X120508096Y-78719039D01*
X119635000Y-78719039D01*
X119635000Y-77866580D01*
X120772846Y-76728733D01*
X120850332Y-76844698D01*
X120850332Y-76844698D01*
G37*
X120850332Y-76844698D02*
X121228151Y-77097149D01*
X120795500Y-77445104D01*
X120525633Y-77938181D01*
X120508096Y-78020961D01*
X120630085Y-78243000D01*
X122123000Y-78243000D01*
X122123000Y-78223000D01*
X122377000Y-78223000D01*
X122377000Y-78243000D01*
X122397000Y-78243000D01*
X122397000Y-78497000D01*
X122377000Y-78497000D01*
X122377000Y-80783000D01*
X122397000Y-80783000D01*
X122397000Y-81037000D01*
X122377000Y-81037000D01*
X122377000Y-81057000D01*
X122123000Y-81057000D01*
X122123000Y-81037000D01*
X120630085Y-81037000D01*
X120508096Y-81259039D01*
X120525633Y-81341819D01*
X120795500Y-81834896D01*
X121228151Y-82182851D01*
X120850332Y-82435302D01*
X120539263Y-82900849D01*
X120430030Y-83450000D01*
X120449672Y-83548748D01*
X119635000Y-84363420D01*
X119635000Y-78719039D01*
X120508096Y-78719039D01*
X120525633Y-78801819D01*
X120795500Y-79294896D01*
X121224607Y-79640000D01*
X120795500Y-79985104D01*
X120525633Y-80478181D01*
X120508096Y-80560961D01*
X120630085Y-80783000D01*
X122123000Y-80783000D01*
X122123000Y-78497000D01*
X120630085Y-78497000D01*
X120508096Y-78719039D01*
X119635000Y-78719039D01*
X119635000Y-77866580D01*
X120772846Y-76728733D01*
X120850332Y-76844698D01*
G36*
X165790000Y-64044092D02*
X165790000Y-67000000D01*
X165844046Y-67271705D01*
X165997954Y-67502046D01*
X168290000Y-69794092D01*
X168290000Y-74215198D01*
X165787401Y-71712599D01*
X165540839Y-71547852D01*
X165287919Y-71497543D01*
X165315041Y-71480090D01*
X165460031Y-71267890D01*
X165511040Y-71016000D01*
X165511040Y-68984000D01*
X165466762Y-68748683D01*
X165327690Y-68532559D01*
X165115490Y-68387569D01*
X164863600Y-68336560D01*
X163136400Y-68336560D01*
X162901083Y-68380838D01*
X162684959Y-68519910D01*
X162539969Y-68732110D01*
X162531600Y-68773439D01*
X162519670Y-68755585D01*
X162033489Y-68430729D01*
X161460000Y-68316655D01*
X160886511Y-68430729D01*
X160400330Y-68755585D01*
X160190000Y-69070366D01*
X159979670Y-68755585D01*
X159493489Y-68430729D01*
X158920000Y-68316655D01*
X158346511Y-68430729D01*
X157860330Y-68755585D01*
X157653539Y-69065069D01*
X157282036Y-68649268D01*
X156754791Y-68395291D01*
X156739026Y-68392642D01*
X156507000Y-68513783D01*
X156507000Y-69873000D01*
X156527000Y-69873000D01*
X156527000Y-70127000D01*
X156507000Y-70127000D01*
X156507000Y-70147000D01*
X156253000Y-70147000D01*
X156253000Y-70127000D01*
X156233000Y-70127000D01*
X156233000Y-69873000D01*
X156253000Y-69873000D01*
X156253000Y-68513783D01*
X156020974Y-68392642D01*
X156005209Y-68395291D01*
X155477964Y-68649268D01*
X155106461Y-69065069D01*
X154899670Y-68755585D01*
X154413489Y-68430729D01*
X153840000Y-68316655D01*
X153266511Y-68430729D01*
X152780330Y-68755585D01*
X152570000Y-69070366D01*
X152359670Y-68755585D01*
X151873489Y-68430729D01*
X151300000Y-68316655D01*
X150726511Y-68430729D01*
X150240330Y-68755585D01*
X150030000Y-69070366D01*
X149819670Y-68755585D01*
X149520000Y-68555352D01*
X149520000Y-68010000D01*
X149462148Y-67719161D01*
X149297401Y-67472599D01*
X148507687Y-66682885D01*
X148510000Y-66683345D01*
X149083489Y-66569271D01*
X149569670Y-66244415D01*
X149780000Y-65929634D01*
X149990330Y-66244415D01*
X150476511Y-66569271D01*
X151050000Y-66683345D01*
X151623489Y-66569271D01*
X152109670Y-66244415D01*
X152320000Y-65929634D01*
X152530330Y-66244415D01*
X153016511Y-66569271D01*
X153590000Y-66683345D01*
X154163489Y-66569271D01*
X154649670Y-66244415D01*
X154860000Y-65929634D01*
X155070330Y-66244415D01*
X155556511Y-66569271D01*
X156130000Y-66683345D01*
X156703489Y-66569271D01*
X157189670Y-66244415D01*
X157400000Y-65929634D01*
X157610330Y-66244415D01*
X158096511Y-66569271D01*
X158670000Y-66683345D01*
X159243489Y-66569271D01*
X159729670Y-66244415D01*
X159940000Y-65929634D01*
X160150330Y-66244415D01*
X160636511Y-66569271D01*
X161210000Y-66683345D01*
X161783489Y-66569271D01*
X162269670Y-66244415D01*
X162279243Y-66230087D01*
X162283238Y-66251317D01*
X162422310Y-66467441D01*
X162634510Y-66612431D01*
X162886400Y-66663440D01*
X164613600Y-66663440D01*
X164848917Y-66619162D01*
X165065041Y-66480090D01*
X165210031Y-66267890D01*
X165261040Y-66016000D01*
X165261040Y-63984000D01*
X165216762Y-63748683D01*
X165077690Y-63532559D01*
X164865490Y-63387569D01*
X164613600Y-63336560D01*
X162886400Y-63336560D01*
X162651083Y-63380838D01*
X162434959Y-63519910D01*
X162289969Y-63732110D01*
X162281600Y-63773439D01*
X162269670Y-63755585D01*
X161783489Y-63430729D01*
X161210000Y-63316655D01*
X160636511Y-63430729D01*
X160150330Y-63755585D01*
X159940000Y-64070366D01*
X159729670Y-63755585D01*
X159243489Y-63430729D01*
X158670000Y-63316655D01*
X158096511Y-63430729D01*
X157610330Y-63755585D01*
X157400000Y-64070366D01*
X157189670Y-63755585D01*
X156703489Y-63430729D01*
X156130000Y-63316655D01*
X155556511Y-63430729D01*
X155070330Y-63755585D01*
X154860000Y-64070366D01*
X154649670Y-63755585D01*
X154163489Y-63430729D01*
X153590000Y-63316655D01*
X153016511Y-63430729D01*
X152530330Y-63755585D01*
X152320000Y-64070366D01*
X152109670Y-63755585D01*
X151623489Y-63430729D01*
X151050000Y-63316655D01*
X150476511Y-63430729D01*
X149990330Y-63755585D01*
X149780000Y-64070366D01*
X149569670Y-63755585D01*
X149083489Y-63430729D01*
X148510000Y-63316655D01*
X147936511Y-63430729D01*
X147450330Y-63755585D01*
X147240000Y-64070366D01*
X147029670Y-63755585D01*
X146543489Y-63430729D01*
X145970000Y-63316655D01*
X145396511Y-63430729D01*
X144910330Y-63755585D01*
X144585474Y-64241766D01*
X144471400Y-64815255D01*
X144471400Y-65184745D01*
X144585474Y-65758234D01*
X144740335Y-65990000D01*
X143011040Y-65990000D01*
X143011040Y-63984000D01*
X142966762Y-63748683D01*
X142827690Y-63532559D01*
X142615490Y-63387569D01*
X142363600Y-63336560D01*
X140636400Y-63336560D01*
X140401083Y-63380838D01*
X140184959Y-63519910D01*
X140039969Y-63732110D01*
X140031600Y-63773439D01*
X140019670Y-63755585D01*
X139533489Y-63430729D01*
X138960000Y-63316655D01*
X138386511Y-63430729D01*
X137900330Y-63755585D01*
X137690000Y-64070366D01*
X137479670Y-63755585D01*
X136993489Y-63430729D01*
X136420000Y-63316655D01*
X135846511Y-63430729D01*
X135360330Y-63755585D01*
X135150000Y-64070366D01*
X134939670Y-63755585D01*
X134453489Y-63430729D01*
X133880000Y-63316655D01*
X133306511Y-63430729D01*
X132820330Y-63755585D01*
X132610000Y-64070366D01*
X132399670Y-63755585D01*
X131913489Y-63430729D01*
X131340000Y-63316655D01*
X130766511Y-63430729D01*
X130280330Y-63755585D01*
X130070000Y-64070366D01*
X129859670Y-63755585D01*
X129373489Y-63430729D01*
X128800000Y-63316655D01*
X128226511Y-63430729D01*
X127740330Y-63755585D01*
X127533539Y-64065069D01*
X127162036Y-63649268D01*
X126634791Y-63395291D01*
X126619026Y-63392642D01*
X126387000Y-63513783D01*
X126387000Y-64873000D01*
X126407000Y-64873000D01*
X126407000Y-65127000D01*
X126387000Y-65127000D01*
X126387000Y-65147000D01*
X126133000Y-65147000D01*
X126133000Y-65127000D01*
X124919076Y-65127000D01*
X124774816Y-65361913D01*
X124968046Y-65914320D01*
X125226342Y-66203416D01*
X125212599Y-66212599D01*
X122110198Y-69315000D01*
X121865030Y-69315000D01*
X121315879Y-69424233D01*
X120850332Y-69735302D01*
X120760000Y-69870493D01*
X120760000Y-69814802D01*
X122287401Y-68287401D01*
X122452148Y-68040839D01*
X122510000Y-67750000D01*
X122510000Y-66663440D01*
X122766000Y-66663440D01*
X123001317Y-66619162D01*
X123217441Y-66480090D01*
X123362431Y-66267890D01*
X123413440Y-66016000D01*
X123413440Y-64638087D01*
X124774816Y-64638087D01*
X124919076Y-64873000D01*
X126133000Y-64873000D01*
X126133000Y-63513783D01*
X125900974Y-63392642D01*
X125885209Y-63395291D01*
X125357964Y-63649268D01*
X124968046Y-64085680D01*
X124774816Y-64638087D01*
X123413440Y-64638087D01*
X123413440Y-63984000D01*
X123369162Y-63748683D01*
X123230090Y-63532559D01*
X123017890Y-63387569D01*
X122766000Y-63336560D01*
X120734000Y-63336560D01*
X120498683Y-63380838D01*
X120282559Y-63519910D01*
X120180802Y-63668837D01*
X119841810Y-63442330D01*
X119210000Y-63316655D01*
X118578190Y-63442330D01*
X118183648Y-63705955D01*
X118012291Y-63291239D01*
X117681630Y-62960000D01*
X164705908Y-62960000D01*
X165790000Y-64044092D01*
X165790000Y-64044092D01*
G37*
X165790000Y-64044092D02*
X165790000Y-67000000D01*
X165844046Y-67271705D01*
X165997954Y-67502046D01*
X168290000Y-69794092D01*
X168290000Y-74215198D01*
X165787401Y-71712599D01*
X165540839Y-71547852D01*
X165287919Y-71497543D01*
X165315041Y-71480090D01*
X165460031Y-71267890D01*
X165511040Y-71016000D01*
X165511040Y-68984000D01*
X165466762Y-68748683D01*
X165327690Y-68532559D01*
X165115490Y-68387569D01*
X164863600Y-68336560D01*
X163136400Y-68336560D01*
X162901083Y-68380838D01*
X162684959Y-68519910D01*
X162539969Y-68732110D01*
X162531600Y-68773439D01*
X162519670Y-68755585D01*
X162033489Y-68430729D01*
X161460000Y-68316655D01*
X160886511Y-68430729D01*
X160400330Y-68755585D01*
X160190000Y-69070366D01*
X159979670Y-68755585D01*
X159493489Y-68430729D01*
X158920000Y-68316655D01*
X158346511Y-68430729D01*
X157860330Y-68755585D01*
X157653539Y-69065069D01*
X157282036Y-68649268D01*
X156754791Y-68395291D01*
X156739026Y-68392642D01*
X156507000Y-68513783D01*
X156507000Y-69873000D01*
X156527000Y-69873000D01*
X156527000Y-70127000D01*
X156507000Y-70127000D01*
X156507000Y-70147000D01*
X156253000Y-70147000D01*
X156253000Y-70127000D01*
X156233000Y-70127000D01*
X156233000Y-69873000D01*
X156253000Y-69873000D01*
X156253000Y-68513783D01*
X156020974Y-68392642D01*
X156005209Y-68395291D01*
X155477964Y-68649268D01*
X155106461Y-69065069D01*
X154899670Y-68755585D01*
X154413489Y-68430729D01*
X153840000Y-68316655D01*
X153266511Y-68430729D01*
X152780330Y-68755585D01*
X152570000Y-69070366D01*
X152359670Y-68755585D01*
X151873489Y-68430729D01*
X151300000Y-68316655D01*
X150726511Y-68430729D01*
X150240330Y-68755585D01*
X150030000Y-69070366D01*
X149819670Y-68755585D01*
X149520000Y-68555352D01*
X149520000Y-68010000D01*
X149462148Y-67719161D01*
X149297401Y-67472599D01*
X148507687Y-66682885D01*
X148510000Y-66683345D01*
X149083489Y-66569271D01*
X149569670Y-66244415D01*
X149780000Y-65929634D01*
X149990330Y-66244415D01*
X150476511Y-66569271D01*
X151050000Y-66683345D01*
X151623489Y-66569271D01*
X152109670Y-66244415D01*
X152320000Y-65929634D01*
X152530330Y-66244415D01*
X153016511Y-66569271D01*
X153590000Y-66683345D01*
X154163489Y-66569271D01*
X154649670Y-66244415D01*
X154860000Y-65929634D01*
X155070330Y-66244415D01*
X155556511Y-66569271D01*
X156130000Y-66683345D01*
X156703489Y-66569271D01*
X157189670Y-66244415D01*
X157400000Y-65929634D01*
X157610330Y-66244415D01*
X158096511Y-66569271D01*
X158670000Y-66683345D01*
X159243489Y-66569271D01*
X159729670Y-66244415D01*
X159940000Y-65929634D01*
X160150330Y-66244415D01*
X160636511Y-66569271D01*
X161210000Y-66683345D01*
X161783489Y-66569271D01*
X162269670Y-66244415D01*
X162279243Y-66230087D01*
X162283238Y-66251317D01*
X162422310Y-66467441D01*
X162634510Y-66612431D01*
X162886400Y-66663440D01*
X164613600Y-66663440D01*
X164848917Y-66619162D01*
X165065041Y-66480090D01*
X165210031Y-66267890D01*
X165261040Y-66016000D01*
X165261040Y-63984000D01*
X165216762Y-63748683D01*
X165077690Y-63532559D01*
X164865490Y-63387569D01*
X164613600Y-63336560D01*
X162886400Y-63336560D01*
X162651083Y-63380838D01*
X162434959Y-63519910D01*
X162289969Y-63732110D01*
X162281600Y-63773439D01*
X162269670Y-63755585D01*
X161783489Y-63430729D01*
X161210000Y-63316655D01*
X160636511Y-63430729D01*
X160150330Y-63755585D01*
X159940000Y-64070366D01*
X159729670Y-63755585D01*
X159243489Y-63430729D01*
X158670000Y-63316655D01*
X158096511Y-63430729D01*
X157610330Y-63755585D01*
X157400000Y-64070366D01*
X157189670Y-63755585D01*
X156703489Y-63430729D01*
X156130000Y-63316655D01*
X155556511Y-63430729D01*
X155070330Y-63755585D01*
X154860000Y-64070366D01*
X154649670Y-63755585D01*
X154163489Y-63430729D01*
X153590000Y-63316655D01*
X153016511Y-63430729D01*
X152530330Y-63755585D01*
X152320000Y-64070366D01*
X152109670Y-63755585D01*
X151623489Y-63430729D01*
X151050000Y-63316655D01*
X150476511Y-63430729D01*
X149990330Y-63755585D01*
X149780000Y-64070366D01*
X149569670Y-63755585D01*
X149083489Y-63430729D01*
X148510000Y-63316655D01*
X147936511Y-63430729D01*
X147450330Y-63755585D01*
X147240000Y-64070366D01*
X147029670Y-63755585D01*
X146543489Y-63430729D01*
X145970000Y-63316655D01*
X145396511Y-63430729D01*
X144910330Y-63755585D01*
X144585474Y-64241766D01*
X144471400Y-64815255D01*
X144471400Y-65184745D01*
X144585474Y-65758234D01*
X144740335Y-65990000D01*
X143011040Y-65990000D01*
X143011040Y-63984000D01*
X142966762Y-63748683D01*
X142827690Y-63532559D01*
X142615490Y-63387569D01*
X142363600Y-63336560D01*
X140636400Y-63336560D01*
X140401083Y-63380838D01*
X140184959Y-63519910D01*
X140039969Y-63732110D01*
X140031600Y-63773439D01*
X140019670Y-63755585D01*
X139533489Y-63430729D01*
X138960000Y-63316655D01*
X138386511Y-63430729D01*
X137900330Y-63755585D01*
X137690000Y-64070366D01*
X137479670Y-63755585D01*
X136993489Y-63430729D01*
X136420000Y-63316655D01*
X135846511Y-63430729D01*
X135360330Y-63755585D01*
X135150000Y-64070366D01*
X134939670Y-63755585D01*
X134453489Y-63430729D01*
X133880000Y-63316655D01*
X133306511Y-63430729D01*
X132820330Y-63755585D01*
X132610000Y-64070366D01*
X132399670Y-63755585D01*
X131913489Y-63430729D01*
X131340000Y-63316655D01*
X130766511Y-63430729D01*
X130280330Y-63755585D01*
X130070000Y-64070366D01*
X129859670Y-63755585D01*
X129373489Y-63430729D01*
X128800000Y-63316655D01*
X128226511Y-63430729D01*
X127740330Y-63755585D01*
X127533539Y-64065069D01*
X127162036Y-63649268D01*
X126634791Y-63395291D01*
X126619026Y-63392642D01*
X126387000Y-63513783D01*
X126387000Y-64873000D01*
X126407000Y-64873000D01*
X126407000Y-65127000D01*
X126387000Y-65127000D01*
X126387000Y-65147000D01*
X126133000Y-65147000D01*
X126133000Y-65127000D01*
X124919076Y-65127000D01*
X124774816Y-65361913D01*
X124968046Y-65914320D01*
X125226342Y-66203416D01*
X125212599Y-66212599D01*
X122110198Y-69315000D01*
X121865030Y-69315000D01*
X121315879Y-69424233D01*
X120850332Y-69735302D01*
X120760000Y-69870493D01*
X120760000Y-69814802D01*
X122287401Y-68287401D01*
X122452148Y-68040839D01*
X122510000Y-67750000D01*
X122510000Y-66663440D01*
X122766000Y-66663440D01*
X123001317Y-66619162D01*
X123217441Y-66480090D01*
X123362431Y-66267890D01*
X123413440Y-66016000D01*
X123413440Y-64638087D01*
X124774816Y-64638087D01*
X124919076Y-64873000D01*
X126133000Y-64873000D01*
X126133000Y-63513783D01*
X125900974Y-63392642D01*
X125885209Y-63395291D01*
X125357964Y-63649268D01*
X124968046Y-64085680D01*
X124774816Y-64638087D01*
X123413440Y-64638087D01*
X123413440Y-63984000D01*
X123369162Y-63748683D01*
X123230090Y-63532559D01*
X123017890Y-63387569D01*
X122766000Y-63336560D01*
X120734000Y-63336560D01*
X120498683Y-63380838D01*
X120282559Y-63519910D01*
X120180802Y-63668837D01*
X119841810Y-63442330D01*
X119210000Y-63316655D01*
X118578190Y-63442330D01*
X118183648Y-63705955D01*
X118012291Y-63291239D01*
X117681630Y-62960000D01*
X164705908Y-62960000D01*
X165790000Y-64044092D01*
M02*
