G04 #@! TF.FileFunction,Legend,Bot*
%FSLAX46Y46*%
G04 Gerber Fmt 4.6, Leading zero omitted, Abs format (unit mm)*
G04 Created by KiCad (PCBNEW 4.0.5) date 01/04/17 16:34:07*
%MOMM*%
%LPD*%
G01*
G04 APERTURE LIST*
%ADD10C,0.100000*%
%ADD11C,0.150000*%
G04 APERTURE END LIST*
D10*
D11*
X112726000Y-89736000D02*
X113234000Y-89736000D01*
X112726000Y-90244000D02*
X113234000Y-90244000D01*
X112726000Y-87704000D02*
X113234000Y-87704000D01*
X112726000Y-87196000D02*
X113234000Y-87196000D01*
X112726000Y-85164000D02*
X113234000Y-85164000D01*
X112726000Y-84656000D02*
X113234000Y-84656000D01*
X112726000Y-74496000D02*
X113234000Y-74496000D01*
X112726000Y-75004000D02*
X113234000Y-75004000D01*
X112726000Y-77036000D02*
X113234000Y-77036000D01*
X112726000Y-77544000D02*
X113234000Y-77544000D01*
X112726000Y-82624000D02*
X113234000Y-82624000D01*
X112726000Y-82116000D02*
X113234000Y-82116000D01*
X112726000Y-80084000D02*
X113234000Y-80084000D01*
X112726000Y-79576000D02*
X113234000Y-79576000D01*
X110186000Y-89736000D02*
X110694000Y-89736000D01*
X110186000Y-90244000D02*
X110694000Y-90244000D01*
X110186000Y-87704000D02*
X110694000Y-87704000D01*
X110186000Y-87196000D02*
X110694000Y-87196000D01*
X110186000Y-85164000D02*
X110694000Y-85164000D01*
X110186000Y-84656000D02*
X110694000Y-84656000D01*
X110186000Y-74496000D02*
X110694000Y-74496000D01*
X110186000Y-75004000D02*
X110694000Y-75004000D01*
X110186000Y-77036000D02*
X110694000Y-77036000D01*
X110186000Y-77544000D02*
X110694000Y-77544000D01*
X110186000Y-82624000D02*
X110694000Y-82624000D01*
X110186000Y-82116000D02*
X110694000Y-82116000D01*
X110186000Y-80084000D02*
X110694000Y-80084000D01*
X110186000Y-79576000D02*
X110694000Y-79576000D01*
X114250000Y-73200000D02*
X115400000Y-73200000D01*
X115400000Y-73200000D02*
X115400000Y-74750000D01*
X107646000Y-74623000D02*
X101677000Y-74623000D01*
X101677000Y-74623000D02*
X101677000Y-74877000D01*
X101677000Y-74877000D02*
X107519000Y-74877000D01*
X107519000Y-74877000D02*
X107519000Y-74750000D01*
X107519000Y-74750000D02*
X101677000Y-74750000D01*
X110186000Y-83640000D02*
X107646000Y-83640000D01*
X110186000Y-83640000D02*
X110186000Y-86180000D01*
X110186000Y-86180000D02*
X107646000Y-86180000D01*
X107646000Y-84656000D02*
X101550000Y-84656000D01*
X101550000Y-84656000D02*
X101550000Y-85164000D01*
X101550000Y-85164000D02*
X107646000Y-85164000D01*
X107646000Y-86180000D02*
X107646000Y-83640000D01*
X107646000Y-88720000D02*
X107646000Y-86180000D01*
X101550000Y-87704000D02*
X107646000Y-87704000D01*
X101550000Y-87196000D02*
X101550000Y-87704000D01*
X107646000Y-87196000D02*
X101550000Y-87196000D01*
X110186000Y-88720000D02*
X107646000Y-88720000D01*
X110186000Y-86180000D02*
X110186000Y-88720000D01*
X110186000Y-86180000D02*
X107646000Y-86180000D01*
X107646000Y-91260000D02*
X107646000Y-88720000D01*
X101550000Y-90244000D02*
X107646000Y-90244000D01*
X101550000Y-89736000D02*
X101550000Y-90244000D01*
X107646000Y-89736000D02*
X101550000Y-89736000D01*
X110186000Y-91260000D02*
X107646000Y-91260000D01*
X110186000Y-88720000D02*
X110186000Y-91260000D01*
X110186000Y-88720000D02*
X107646000Y-88720000D01*
X110186000Y-78560000D02*
X107646000Y-78560000D01*
X110186000Y-78560000D02*
X110186000Y-81100000D01*
X110186000Y-81100000D02*
X107646000Y-81100000D01*
X107646000Y-79576000D02*
X101550000Y-79576000D01*
X101550000Y-79576000D02*
X101550000Y-80084000D01*
X101550000Y-80084000D02*
X107646000Y-80084000D01*
X107646000Y-81100000D02*
X107646000Y-78560000D01*
X107646000Y-83640000D02*
X107646000Y-81100000D01*
X101550000Y-82624000D02*
X107646000Y-82624000D01*
X101550000Y-82116000D02*
X101550000Y-82624000D01*
X107646000Y-82116000D02*
X101550000Y-82116000D01*
X110186000Y-83640000D02*
X107646000Y-83640000D01*
X110186000Y-81100000D02*
X110186000Y-83640000D01*
X110186000Y-81100000D02*
X107646000Y-81100000D01*
X110186000Y-76020000D02*
X107646000Y-76020000D01*
X110186000Y-76020000D02*
X110186000Y-78560000D01*
X110186000Y-78560000D02*
X107646000Y-78560000D01*
X107646000Y-77036000D02*
X101550000Y-77036000D01*
X101550000Y-77036000D02*
X101550000Y-77544000D01*
X101550000Y-77544000D02*
X107646000Y-77544000D01*
X107646000Y-78560000D02*
X107646000Y-76020000D01*
X107646000Y-76020000D02*
X107646000Y-73480000D01*
X101550000Y-75004000D02*
X107646000Y-75004000D01*
X101550000Y-74496000D02*
X101550000Y-75004000D01*
X107646000Y-74496000D02*
X101550000Y-74496000D01*
X110186000Y-76020000D02*
X107646000Y-76020000D01*
X110186000Y-73480000D02*
X110186000Y-76020000D01*
X110186000Y-73480000D02*
X107646000Y-73480000D01*
X167600000Y-78810000D02*
X158770000Y-78810000D01*
X167600000Y-76270000D02*
X167600000Y-78810000D01*
X158770000Y-76270000D02*
X167600000Y-76270000D01*
X158770000Y-76270000D02*
X158770000Y-78810000D01*
X158770000Y-73730000D02*
X158770000Y-76270000D01*
X156100000Y-75000000D02*
X156100000Y-73450000D01*
X156100000Y-73450000D02*
X157500000Y-73450000D01*
X158770000Y-73730000D02*
X167600000Y-73730000D01*
X167600000Y-73730000D02*
X167600000Y-76270000D01*
X167600000Y-76270000D02*
X158770000Y-76270000D01*
X115464286Y-70102381D02*
X115464286Y-69102381D01*
X115083333Y-69102381D01*
X114988095Y-69150000D01*
X114940476Y-69197619D01*
X114892857Y-69292857D01*
X114892857Y-69435714D01*
X114940476Y-69530952D01*
X114988095Y-69578571D01*
X115083333Y-69626190D01*
X115464286Y-69626190D01*
X113940476Y-70102381D02*
X114511905Y-70102381D01*
X114226191Y-70102381D02*
X114226191Y-69102381D01*
X114321429Y-69245238D01*
X114416667Y-69340476D01*
X114511905Y-69388095D01*
X113321429Y-69102381D02*
X113226190Y-69102381D01*
X113130952Y-69150000D01*
X113083333Y-69197619D01*
X113035714Y-69292857D01*
X112988095Y-69483333D01*
X112988095Y-69721429D01*
X113035714Y-69911905D01*
X113083333Y-70007143D01*
X113130952Y-70054762D01*
X113226190Y-70102381D01*
X113321429Y-70102381D01*
X113416667Y-70054762D01*
X113464286Y-70007143D01*
X113511905Y-69911905D01*
X113559524Y-69721429D01*
X113559524Y-69483333D01*
X113511905Y-69292857D01*
X113464286Y-69197619D01*
X113416667Y-69150000D01*
X113321429Y-69102381D01*
X153202381Y-73785714D02*
X152202381Y-73785714D01*
X152202381Y-74166667D01*
X152250000Y-74261905D01*
X152297619Y-74309524D01*
X152392857Y-74357143D01*
X152535714Y-74357143D01*
X152630952Y-74309524D01*
X152678571Y-74261905D01*
X152726190Y-74166667D01*
X152726190Y-73785714D01*
X153202381Y-75309524D02*
X153202381Y-74738095D01*
X153202381Y-75023809D02*
X152202381Y-75023809D01*
X152345238Y-74928571D01*
X152440476Y-74833333D01*
X152488095Y-74738095D01*
X152202381Y-75642857D02*
X152202381Y-76309524D01*
X153202381Y-75880952D01*
M02*
